Radio-Canada-Condensed-Light.ufo
<glyph name="exclam" format="2">
	<advance width="306"/>
	<unicode hex="0021"/>
	<outline>
		<contour>
			<point x="110" y="36" type="curve" smooth="yes"/>
			<point x="110" y="12"/>
			<point x="129" y="-8"/>
			<point x="153" y="-8" type="curve" smooth="yes"/>
			<point x="178" y="-8"/>
			<point x="196" y="12"/>
			<point x="196" y="36" type="curve" smooth="yes"/>
			<point x="196" y="61"/>
			<point x="178" y="81"/>
			<point x="153" y="81" type="curve" smooth="yes"/>
			<point x="129" y="81"/>
			<point x="110" y="61"/>
		</contour>
		<contour>
			<point x="131" y="180" type="line"/>
			<point x="175" y="180" type="line"/>
			<point x="184" y="510" type="line"/>
			<point x="184" y="690" type="line"/>
			<point x="122" y="690" type="line"/>
			<point x="122" y="510" type="line"/>
		</contour>
	</outline>
</glyph>
<glyph name="quotedbl" format="2">
	<advance width="341"/>
	<unicode hex="0022"/>
	<outline>
		<contour>
			<point x="70" y="720" type="line"/>
			<point x="81" y="500" type="line"/>
			<point x="126" y="500" type="line"/>
			<point x="136" y="720" type="line"/>
		</contour>
		<contour>
			<point x="205" y="720" type="line"/>
			<point x="216" y="500" type="line"/>
			<point x="261" y="500" type="line"/>
			<point x="271" y="720" type="line"/>
		</contour>
	</outline>
</glyph>
<glyph name="dollar" format="2">
  <advance width="600"/>
  <unicode hex="0024"/>
  <outline>
    <contour>
      <point x="55.0" y="88" type="line"/>
      <point x="116.0" y="26"/>
      <point x="197.0" y="-8"/>
      <point x="300.0" y="-8" type="curve"/>
      <point x="447.0" y="-8"/>
      <point x="540.0" y="68"/>
      <point x="540.0" y="177" type="curve"/>
      <point x="540.0" y="266"/>
      <point x="475.0" y="336"/>
      <point x="314.0" y="387" type="curve" smooth="yes"/>
      <point x="186.0" y="428"/>
      <point x="150.0" y="466"/>
      <point x="150.0" y="522" type="curve"/>
      <point x="150.0" y="588"/>
      <point x="212.0" y="644"/>
      <point x="314.0" y="644" type="curve"/>
      <point x="387.0" y="644"/>
      <point x="438.0" y="616"/>
      <point x="478.0" y="576" type="curve"/>
      <point x="516.0" y="622" type="line"/>
      <point x="465.0" y="670"/>
      <point x="401.0" y="698"/>
      <point x="314.0" y="698" type="curve"/>
      <point x="179.0" y="698"/>
      <point x="91.0" y="615"/>
      <point x="91.0" y="519" type="curve"/>
      <point x="91.0" y="437"/>
      <point x="144.0" y="378"/>
      <point x="290.0" y="331" type="curve" smooth="yes"/>
      <point x="442.0" y="282"/>
      <point x="479.0" y="233"/>
      <point x="479.0" y="172" type="curve"/>
      <point x="479.0" y="101"/>
      <point x="416.0" y="46"/>
      <point x="300.0" y="46" type="curve"/>
      <point x="211.0" y="46"/>
      <point x="146.0" y="78"/>
      <point x="95.0" y="131" type="curve"/>
    </contour>
    <contour>
      <point x="284.0" y="-100" type="line"/>
      <point x="340.0" y="-100" type="line"/>
      <point x="340.0" y="344" type="line"/>
      <point x="284.0" y="362" type="line"/>
    </contour>
    <contour>
      <point x="284.0" y="362" type="line"/>
      <point x="340.0" y="344" type="line"/>
      <point x="340.0" y="790" type="line"/>
      <point x="284.0" y="790" type="line"/>
    </contour>
  </outline>
</glyph>
<glyph name="percent" format="1">
  <advance width="804"/>
  <unicode hex="0025"/>
  <outline>
    <contour>
      <point x="62" y="518" type="curve" smooth="yes"/>
      <point x="62" y="401"/>
      <point x="127" y="337"/>
      <point x="208" y="337" type="curve" smooth="yes"/>
      <point x="288" y="337"/>
      <point x="354" y="401"/>
      <point x="354" y="518" type="curve" smooth="yes"/>
      <point x="354" y="635"/>
      <point x="288" y="700"/>
      <point x="208" y="700" type="curve" smooth="yes"/>
      <point x="127" y="700"/>
      <point x="62" y="635"/>
    </contour>
    <contour>
      <point x="141" y="518" type="curve" smooth="yes"/>
      <point x="141" y="587"/>
      <point x="171" y="621"/>
      <point x="208" y="621" type="curve" smooth="yes"/>
      <point x="245" y="621"/>
      <point x="275" y="587"/>
      <point x="275" y="518" type="curve" smooth="yes"/>
      <point x="275" y="450"/>
      <point x="245" y="417"/>
      <point x="208" y="417" type="curve" smooth="yes"/>
      <point x="171" y="417"/>
      <point x="141" y="450"/>
    </contour>
    <contour>
      <point x="165" y="0" type="line"/>
      <point x="259" y="0" type="line"/>
      <point x="638" y="690" type="line"/>
      <point x="545" y="690" type="line"/>
    </contour>
    <contour>
      <point x="450" y="171" type="curve" smooth="yes"/>
      <point x="450" y="54"/>
      <point x="515" y="-10"/>
      <point x="596" y="-10" type="curve" smooth="yes"/>
      <point x="676" y="-10"/>
      <point x="742" y="54"/>
      <point x="742" y="171" type="curve" smooth="yes"/>
      <point x="742" y="288"/>
      <point x="676" y="353"/>
      <point x="596" y="353" type="curve" smooth="yes"/>
      <point x="515" y="353"/>
      <point x="450" y="288"/>
    </contour>
    <contour>
      <point x="529" y="170" type="curve" smooth="yes"/>
      <point x="529" y="239"/>
      <point x="559" y="273"/>
      <point x="596" y="273" type="curve" smooth="yes"/>
      <point x="633" y="273"/>
      <point x="663" y="239"/>
      <point x="663" y="170" type="curve" smooth="yes"/>
      <point x="663" y="102"/>
      <point x="633" y="69"/>
      <point x="596" y="69" type="curve" smooth="yes"/>
      <point x="559" y="69"/>
      <point x="529" y="102"/>
    </contour>
  </outline>
</glyph>
<glyph name="ampersand" format="2">
  <advance width="556"/>
  <unicode hex="0026"/>
  <outline>
    <contour>
      <point x="41" y="161" type="curve" smooth="yes"/>
      <point x="41.0" y="54.86206896551724"/>
      <point x="117.125" y="-10.0"/>
      <point x="215" y="-10" type="curve" smooth="yes"/>
      <point x="371" y="-10"/>
      <point x="458" y="140"/>
      <point x="509" y="289" type="curve"/>
      <point x="433" y="316" type="line"/>
      <point x="393.625" y="178.0"/>
      <point x="325.9807692307693" y="69.0"/>
      <point x="223" y="69" type="curve" smooth="yes"/>
      <point x="170.0" y="69.0"/>
      <point x="129.0" y="113.1"/>
      <point x="129" y="167" type="curve" smooth="yes"/>
      <point x="129.0" y="214.77049180327867"/>
      <point x="158.0" y="253.39344262295083"/>
      <point x="205" y="291" type="curve" smooth="yes"/>
      <point x="280" y="350" type="line" smooth="yes"/>
      <point x="334.0" y="392.8704663212435"/>
      <point x="399.0" y="464.32124352331607"/>
      <point x="399" y="547" type="curve" smooth="yes"/>
      <point x="399.0" y="634.7070063694268"/>
      <point x="343.0" y="700.0"/>
      <point x="252" y="700" type="curve" smooth="yes"/>
      <point x="161.21052631578948" y="700.0"/>
      <point x="102.0" y="625.0"/>
      <point x="102" y="539" type="curve" smooth="yes"/>
      <point x="102.0" y="464.0"/>
      <point x="142.0" y="401.0"/>
      <point x="184" y="351" type="curve"/>
      <point x="440" y="0" type="line"/>
      <point x="552" y="0" type="line"/>
      <point x="255" y="399" type="line"/>
      <point x="215.65079365079364" y="454.0"/>
      <point x="188.0" y="486.0"/>
      <point x="188" y="540" type="curve" smooth="yes"/>
      <point x="188.0" y="584.0"/>
      <point x="213" y="619"/>
      <point x="253" y="619" type="curve" smooth="yes"/>
      <point x="293.0" y="619.0"/>
      <point x="316" y="585"/>
      <point x="316" y="542" type="curve"/>
      <point x="316" y="481"/>
      <point x="272" y="433"/>
      <point x="234" y="406" type="curve" smooth="yes"/>
      <point x="159" y="352" type="line" smooth="yes"/>
      <point x="90.16666666666666" y="301.2021276595745"/>
      <point x="41.0" y="239.22872340425533"/>
    </contour>
  </outline>
</glyph>
<glyph name="parenleft" format="1">
  <advance width="274"/>
  <unicode hex="0028"/>
  <outline>
    <contour>
      <point x="65" y="268" type="curve" smooth="yes"/>
      <point x="65.0" y="53.0"/>
      <point x="146.79245283018872" y="-122.54671968190854"/>
      <point x="269" y="-237" type="curve"/>
      <point x="306" y="-197" type="line"/>
      <point x="209.63636363636363" y="-89.5377969762419"/>
      <point x="147.0" y="88.0"/>
      <point x="147" y="268" type="curve" smooth="yes"/>
      <point x="147.0" y="448.0"/>
      <point x="210.0" y="625.0"/>
      <point x="308" y="732" type="curve"/>
      <point x="267" y="772" type="line"/>
      <point x="145.79999999999995" y="657.5458167330678"/>
      <point x="65.0" y="484.0"/>
    </contour>
  </outline>
</glyph>
<glyph name="parenright" format="2">
	<advance width="330"/>
	<unicode hex="0029"/>
	<outline>
		<contour>
			<point x="-15" y="-145" type="curve"/>
			<point x="13" y="-179" type="line"/>
			<point x="143" y="-59"/>
			<point x="240" y="96"/>
			<point x="240" y="318" type="curve" smooth="yes"/>
			<point x="240" y="540"/>
			<point x="143" y="694"/>
			<point x="13" y="814" type="curve"/>
			<point x="-15" y="780" type="line"/>
			<point x="99" y="669"/>
			<point x="184" y="518"/>
			<point x="184" y="318" type="curve" smooth="yes"/>
			<point x="184" y="118"/>
			<point x="99" y="-34"/>
		</contour>
	</outline>
</glyph>
<glyph name="asterisk" format="2">
  <advance width="508"/>
  <unicode hex="002A"/>
  <outline>
    <contour>
      <point x="37" y="525" type="line"/>
      <point x="204" y="479" type="line"/>
      <point x="88" y="338" type="line"/>
      <point x="157" y="283" type="line"/>
      <point x="254" y="439" type="line"/>
      <point x="351" y="283" type="line"/>
      <point x="420" y="338" type="line"/>
      <point x="304" y="479" type="line"/>
      <point x="471" y="525" type="line"/>
      <point x="442" y="607" type="line"/>
      <point x="287" y="540" type="line"/>
      <point x="298" y="720" type="line"/>
      <point x="210" y="720" type="line"/>
      <point x="221" y="540" type="line"/>
      <point x="66" y="607" type="line"/>
    </contour>
  </outline>
</glyph>
<glyph name="plus" format="2">
  <advance width="500"/>
  <unicode hex="002B"/>
  <outline>
    <contour>
      <point x="52.0" y="252" type="line"/>
      <point x="448.0" y="252" type="line"/>
      <point x="448.0" y="328" type="line"/>
      <point x="52.0" y="328" type="line"/>
    </contour>
    <contour>
      <point x="210.0" y="66" type="line"/>
      <point x="290.0" y="66" type="line"/>
      <point x="290.0" y="514" type="line"/>
      <point x="210.0" y="514" type="line"/>
    </contour>
  </outline>
</glyph>
<glyph name="comma" format="2">
	<advance width="216"/>
	<unicode hex="002C"/>
	<outline>
		<contour>
			<point x="64" y="-134" type="line"/>
			<point x="104" y="-134" type="line"/>
			<point x="141" y="-18" type="line" smooth="yes"/>
			<point x="147" y="0"/>
			<point x="151" y="16"/>
			<point x="151" y="33" type="curve" smooth="yes"/>
			<point x="151" y="61"/>
			<point x="133" y="81"/>
			<point x="108" y="81" type="curve" smooth="yes"/>
			<point x="84" y="81"/>
			<point x="65" y="61"/>
			<point x="65" y="36" type="curve" smooth="yes"/>
			<point x="65" y="15"/>
			<point x="77" y="1"/>
			<point x="93" y="-5" type="curve"/>
		</contour>
	</outline>
</glyph>
<glyph name="hyphen" format="1">
  <advance width="315"/>
  <unicode hex="002D"/>
  <outline>
    <contour>
      <point x="50" y="236" type="line"/>
      <point x="266" y="236" type="line"/>
      <point x="266" y="313" type="line"/>
      <point x="50" y="313" type="line"/>
    </contour>
  </outline>
</glyph>
<glyph name="period" format="2">
  <advance width="197"/>
  <unicode hex="002E"/>
  <outline>
    <contour>
      <point x="40" y="49" type="curve" smooth="yes"/>
      <point x="40" y="17"/>
      <point x="67" y="-10"/>
      <point x="99" y="-10" type="curve" smooth="yes"/>
      <point x="132" y="-10"/>
      <point x="158" y="17"/>
      <point x="158" y="49" type="curve" smooth="yes"/>
      <point x="158" y="82"/>
      <point x="132" y="108"/>
      <point x="99" y="108" type="curve" smooth="yes"/>
      <point x="67" y="108"/>
      <point x="40" y="82"/>
    </contour>
  </outline>
</glyph>
<glyph name="slash" format="2">
	<advance width="308"/>
	<unicode hex="002F"/>
	<outline>
		<contour>
			<point x="0" y="-30" type="line"/>
			<point x="58" y="-30" type="line"/>
			<point x="308" y="720" type="line"/>
			<point x="250" y="720" type="line"/>
		</contour>
	</outline>
</glyph>
<glyph name="zero" format="2">
  <advance width="500"/>
  <unicode hex="0030"/>
  <outline>
    <contour>
      <point x="37.0" y="345" type="curve" smooth="yes"/>
      <point x="37.0" y="77"/>
      <point x="130.0" y="-10"/>
      <point x="250.0" y="-10" type="curve" smooth="yes"/>
      <point x="371.0" y="-10"/>
      <point x="463.0" y="77"/>
      <point x="463.0" y="345" type="curve" smooth="yes"/>
      <point x="463.0" y="613"/>
      <point x="371.0" y="700"/>
      <point x="250.0" y="700" type="curve" smooth="yes"/>
      <point x="130.0" y="700"/>
      <point x="37.0" y="613"/>
    </contour>
    <contour>
      <point x="130.0" y="345" type="curve" smooth="yes"/>
      <point x="130.0" y="554"/>
      <point x="183.0" y="614"/>
      <point x="250.0" y="614" type="curve" smooth="yes"/>
      <point x="317.0" y="614"/>
      <point x="370.0" y="554"/>
      <point x="370.0" y="345" type="curve" smooth="yes"/>
      <point x="370.0" y="136"/>
      <point x="317.0" y="76"/>
      <point x="250.0" y="76" type="curve" smooth="yes"/>
      <point x="183.0" y="76"/>
      <point x="130.0" y="136"/>
    </contour>
  </outline>
</glyph>
<glyph name="one" format="2">
	<advance width="600"/>
	<unicode hex="0031"/>
	<outline>
		<contour>
			<point x="100" y="0" type="line"/>
			<point x="516" y="0" type="line"/>
			<point x="516" y="54" type="line"/>
			<point x="100" y="54" type="line"/>
		</contour>
		<contour>
			<point x="107" y="601" type="line"/>
			<point x="131" y="551" type="line"/>
			<point x="319" y="638" type="line"/>
			<point x="298" y="690" type="line"/>
		</contour>
		<contour>
			<point x="279" y="0" type="line"/>
			<point x="341" y="0" type="line"/>
			<point x="341" y="690" type="line"/>
			<point x="298" y="690" type="line"/>
			<point x="279" y="637" type="line"/>
		</contour>
	</outline>
</glyph>
<glyph name="two" format="2">
	<advance width="600"/>
	<unicode hex="0032"/>
	<outline>
		<contour>
			<point x="65" y="586" type="curve"/>
			<point x="106" y="549" type="line"/>
			<point x="153" y="605"/>
			<point x="208" y="639"/>
			<point x="273" y="639" type="curve"/>
			<point x="377" y="639"/>
			<point x="439" y="568"/>
			<point x="439" y="488" type="curve" smooth="yes"/>
			<point x="439" y="434"/>
			<point x="417" y="385"/>
			<point x="347" y="316" type="curve" smooth="yes"/>
			<point x="69" y="42" type="line"/>
			<point x="104" y="0" type="line"/>
			<point x="387" y="272" type="line" smooth="yes"/>
			<point x="467" y="348"/>
			<point x="503" y="420"/>
			<point x="503" y="488" type="curve" smooth="yes"/>
			<point x="503" y="607"/>
			<point x="408" y="698"/>
			<point x="278" y="698" type="curve"/>
			<point x="193" y="698"/>
			<point x="123" y="660"/>
		</contour>
		<contour>
			<point x="69" y="0" type="line"/>
			<point x="513" y="0" type="line"/>
			<point x="513" y="54" type="line"/>
			<point x="115" y="54" type="line"/>
			<point x="69" y="42" type="line"/>
		</contour>
	</outline>
</glyph>
<glyph name="three" format="2">
	<advance width="500"/>
	<unicode hex="0033"/>
	<outline>
		<contour>
			<point x="40" y="84" type="line"/>
			<point x="89" y="26"/>
			<point x="134" y="-8"/>
			<point x="219" y="-8" type="curve"/>
			<point x="350" y="-8"/>
			<point x="440" y="69"/>
			<point x="440" y="202" type="curve"/>
			<point x="440" y="317"/>
			<point x="348" y="396"/>
			<point x="260" y="396" type="curve" smooth="yes"/>
			<point x="211" y="396" type="line"/>
			<point x="158" y="384" type="line"/>
			<point x="158" y="343" type="line"/>
			<point x="237" y="343" type="line" smooth="yes"/>
			<point x="316" y="343"/>
			<point x="376" y="278"/>
			<point x="376" y="202" type="curve"/>
			<point x="376" y="106"/>
			<point x="318" y="48"/>
			<point x="219" y="48" type="curve"/>
			<point x="156" y="48"/>
			<point x="118" y="82"/>
			<point x="82" y="125" type="curve"/>
		</contour>
		<contour>
			<point x="57" y="634" type="line"/>
			<point x="357" y="634" type="line"/>
			<point x="406" y="648" type="line"/>
			<point x="406" y="690" type="line"/>
			<point x="57" y="690" type="line"/>
		</contour>
		<contour>
			<point x="158" y="384" type="line"/>
			<point x="233" y="384" type="line"/>
			<point x="406" y="648" type="line"/>
			<point x="367" y="690" type="line"/>
		</contour>
	</outline>
</glyph>
<glyph name="four" format="2">
  <advance width="500"/>
  <unicode hex="0034"/>
  <outline>
    <contour>
      <point x="36.0" y="205" type="line"/>
      <point x="94.0" y="141" type="line"/>
      <point x="352.0" y="690" type="line"/>
      <point x="271.0" y="690" type="line"/>
    </contour>
    <contour>
      <point x="36.0" y="141" type="line"/>
      <point x="459.0" y="141" type="line"/>
      <point x="459.0" y="224" type="line"/>
      <point x="73.0" y="224" type="line"/>
      <point x="36.0" y="205" type="line"/>
    </contour>
    <contour>
      <point x="301.0" y="0" type="line"/>
      <point x="386.0" y="0" type="line"/>
      <point x="386.0" y="690" type="line"/>
      <point x="301.0" y="690" type="line"/>
    </contour>
  </outline>
</glyph>
<glyph name="five" format="2">
  <advance width="600"/>
  <unicode hex="0035"/>
  <outline>
    <contour>
      <point x="70.0" y="84" type="line"/>
      <point x="129.0" y="23"/>
      <point x="200.0" y="-8"/>
      <point x="289.0" y="-8" type="curve" smooth="yes"/>
      <point x="420.0" y="-8"/>
      <point x="530.0" y="67"/>
      <point x="530.0" y="204" type="curve"/>
      <point x="530.0" y="338"/>
      <point x="422.0" y="420"/>
      <point x="306.0" y="420" type="curve"/>
      <point x="250.0" y="420"/>
      <point x="196.0" y="405"/>
      <point x="146.0" y="373" type="curve"/>
      <point x="138.0" y="317" type="line"/>
      <point x="183.0" y="349"/>
      <point x="234.0" y="364"/>
      <point x="290.0" y="364" type="curve"/>
      <point x="393.0" y="364"/>
      <point x="466.0" y="302"/>
      <point x="466.0" y="204" type="curve"/>
      <point x="466.0" y="104"/>
      <point x="391.0" y="48"/>
      <point x="289.0" y="48" type="curve" smooth="yes"/>
      <point x="217.0" y="48"/>
      <point x="158.0" y="78"/>
      <point x="114.0" y="127" type="curve"/>
    </contour>
    <contour>
      <point x="108.0" y="338" type="line"/>
      <point x="138.0" y="317" type="line"/>
      <point x="161.0" y="339" type="line"/>
      <point x="185.0" y="690" type="line"/>
      <point x="131.0" y="690" type="line"/>
    </contour>
    <contour>
      <point x="139.0" y="690" type="line"/>
      <point x="169.0" y="634" type="line"/>
      <point x="486.0" y="634" type="line"/>
      <point x="486.0" y="690" type="line"/>
    </contour>
  </outline>
</glyph>
<glyph name="six" format="2">
	<advance width="500"/>
	<unicode hex="0036"/>
	<outline>
		<contour>
			<point x="50" y="322" type="curve" smooth="yes"/>
			<point x="50" y="102"/>
			<point x="134" y="-8"/>
			<point x="260" y="-8" type="curve"/>
			<point x="389" y="-8"/>
			<point x="450" y="93"/>
			<point x="450" y="225" type="curve"/>
			<point x="450" y="352"/>
			<point x="386" y="434"/>
			<point x="271" y="434" type="curve"/>
			<point x="190" y="434"/>
			<point x="140" y="393"/>
			<point x="101" y="345" type="curve"/>
			<point x="101" y="280" type="line"/>
			<point x="158" y="346"/>
			<point x="190" y="379"/>
			<point x="267" y="379" type="curve"/>
			<point x="350" y="379"/>
			<point x="385" y="315"/>
			<point x="385" y="222" type="curve"/>
			<point x="385" y="122"/>
			<point x="358" y="48"/>
			<point x="265" y="48" type="curve"/>
			<point x="167" y="48"/>
			<point x="113" y="136"/>
			<point x="113" y="322" type="curve" smooth="yes"/>
			<point x="113" y="539"/>
			<point x="191" y="642"/>
			<point x="287" y="642" type="curve"/>
			<point x="327" y="642"/>
			<point x="356" y="632"/>
			<point x="391" y="604" type="curve"/>
			<point x="420" y="653" type="line"/>
			<point x="374" y="686"/>
			<point x="329" y="698"/>
			<point x="287" y="698" type="curve"/>
			<point x="155" y="698"/>
			<point x="50" y="566"/>
		</contour>
	</outline>
</glyph>
<glyph name="seven" format="2">
  <advance width="600"/>
  <unicode hex="0037"/>
  <outline>
    <contour>
      <point x="70.0" y="628" type="line"/>
      <point x="455.0" y="628" type="line"/>
      <point x="504.0" y="648" type="line"/>
      <point x="504.0" y="690" type="line"/>
      <point x="70.0" y="690" type="line"/>
    </contour>
    <contour>
      <point x="190.0" y="0" type="line"/>
      <point x="258.0" y="0" type="line"/>
      <point x="504.0" y="648" type="line"/>
      <point x="460.0" y="690" type="line"/>
    </contour>
  </outline>
</glyph>
<glyph name="eight" format="2">
  <advance width="500"/>
  <unicode hex="0038"/>
  <outline>
    <contour>
      <point x="48.0" y="177" type="curve" smooth="yes"/>
      <point x="48.0" y="67.83243243243243"/>
      <point x="123.0" y="-10.0"/>
      <point x="249.0" y="-10" type="curve" smooth="yes"/>
      <point x="368.0" y="-10.0"/>
      <point x="452.0" y="71.84816753926701"/>
      <point x="452.0" y="183" type="curve" smooth="yes"/>
      <point x="452.0" y="267.2201834862385"/>
      <point x="406.5108695652174" y="342.5229357798165"/>
      <point x="266.0" y="399" type="curve"/>
      <point x="184.74545454545455" y="433.5483870967742"/>
      <point x="157.0" y="478"/>
      <point x="157.0" y="525" type="curve" smooth="yes"/>
      <point x="157.0" y="579"/>
      <point x="196.85714285714286" y="621.0"/>
      <point x="250.0" y="621" type="curve" smooth="yes"/>
      <point x="305.7872340425532" y="621.0"/>
      <point x="342.0" y="581.0"/>
      <point x="342.0" y="524" type="curve" smooth="yes"/>
      <point x="342.0" y="460"/>
      <point x="297.42857142857144" y="407.5230769230769"/>
      <point x="238.0" y="390" type="curve"/>
      <point x="283.0" y="347" type="line"/>
      <point x="363.0" y="371.5333333333333"/>
      <point x="428.0" y="446"/>
      <point x="428.0" y="531" type="curve" smooth="yes"/>
      <point x="428.0" y="637"/>
      <point x="355.0" y="700"/>
      <point x="252.0" y="700" type="curve" smooth="yes"/>
      <point x="141.0" y="700"/>
      <point x="67.0" y="624.0"/>
      <point x="67.0" y="526" type="curve" smooth="yes"/>
      <point x="67.0" y="448"/>
      <point x="110.49425287356323" y="369.4179104477612"/>
      <point x="243.0" y="313" type="curve" smooth="yes"/>
      <point x="336.80172413793105" y="274.8445942442313"/>
      <point x="360.0" y="228.29323308270676"/>
      <point x="360.0" y="182" type="curve" smooth="yes"/>
      <point x="360.0" y="114.77777777777777"/>
      <point x="312.0" y="72.0"/>
      <point x="250.0" y="72" type="curve" smooth="yes"/>
      <point x="187.0" y="72.0"/>
      <point x="138.0" y="114.77064220183486"/>
      <point x="138.0" y="183" type="curve" smooth="yes"/>
      <point x="138.0" y="241.16312056737587"/>
      <point x="183.43269230769232" y="303.40140845070425"/>
      <point x="243.0" y="322" type="curve"/>
      <point x="195.0" y="363" type="line"/>
      <point x="116.0" y="337.27659574468083"/>
      <point x="48.0" y="263.0744680851064"/>
    </contour>
  </outline>
</glyph>
<glyph name="nine" format="2">
	<advance width="600"/>
	<unicode hex="0039"/>
	<outline>
		<contour>
			<point x="66" y="465" type="curve"/>
			<point x="66" y="338"/>
			<point x="163" y="256"/>
			<point x="278" y="256" type="curve"/>
			<point x="363" y="256"/>
			<point x="438" y="311"/>
			<point x="472" y="373" type="curve"/>
			<point x="472" y="438" type="line"/>
			<point x="420" y="358"/>
			<point x="363" y="311"/>
			<point x="282" y="311" type="curve"/>
			<point x="199" y="311"/>
			<point x="131" y="375"/>
			<point x="131" y="468" type="curve"/>
			<point x="131" y="568"/>
			<point x="194" y="642"/>
			<point x="287" y="642" type="curve"/>
			<point x="385" y="642"/>
			<point x="469" y="554"/>
			<point x="469" y="368" type="curve" smooth="yes"/>
			<point x="469" y="151"/>
			<point x="352" y="48"/>
			<point x="245" y="48" type="curve"/>
			<point x="200" y="48"/>
			<point x="165" y="60"/>
			<point x="125" y="86" type="curve"/>
			<point x="96" y="37" type="line"/>
			<point x="147" y="6"/>
			<point x="198" y="-8"/>
			<point x="245" y="-8" type="curve"/>
			<point x="388" y="-8"/>
			<point x="532" y="124"/>
			<point x="532" y="368" type="curve" smooth="yes"/>
			<point x="532" y="588"/>
			<point x="418" y="698"/>
			<point x="292" y="698" type="curve"/>
			<point x="163" y="698"/>
			<point x="66" y="597"/>
		</contour>
	</outline>
</glyph>
<glyph name="less" format="2">
  <advance width="600"/>
  <unicode hex="003C"/>
  <outline>
    <contour>
      <point x="80.0" y="264" type="line"/>
      <point x="480.0" y="62" type="line"/>
      <point x="480.0" y="125" type="line"/>
      <point x="116.0" y="306" type="line"/>
      <point x="80.0" y="306" type="line"/>
    </contour>
    <contour>
      <point x="80.0" y="277" type="line"/>
      <point x="116.0" y="277" type="line"/>
      <point x="480.0" y="457" type="line"/>
      <point x="480.0" y="518" type="line"/>
      <point x="80.0" y="316" type="line"/>
    </contour>
  </outline>
</glyph>
<glyph name="equal" format="2">
	<advance width="600"/>
	<unicode hex="003D"/>
	<outline>
		<contour>
			<point x="79" y="153" type="line"/>
			<point x="521" y="153" type="line"/>
			<point x="521" y="207" type="line"/>
			<point x="79" y="207" type="line"/>
		</contour>
		<contour>
			<point x="79" y="373" type="line"/>
			<point x="521" y="373" type="line"/>
			<point x="521" y="427" type="line"/>
			<point x="79" y="427" type="line"/>
		</contour>
	</outline>
</glyph>
<glyph name="question" format="2">
	<advance width="393"/>
	<unicode hex="003F"/>
	<outline>
		<contour>
			<point x="132" y="36" type="curve" smooth="yes"/>
			<point x="132" y="12"/>
			<point x="151" y="-8"/>
			<point x="175" y="-8" type="curve" smooth="yes"/>
			<point x="200" y="-8"/>
			<point x="218" y="12"/>
			<point x="218" y="36" type="curve" smooth="yes"/>
			<point x="218" y="61"/>
			<point x="200" y="81"/>
			<point x="175" y="81" type="curve" smooth="yes"/>
			<point x="151" y="81"/>
			<point x="132" y="61"/>
		</contour>
		<contour>
			<point x="15" y="606" type="curve"/>
			<point x="57" y="572" type="line"/>
			<point x="94" y="622"/>
			<point x="127" y="639"/>
			<point x="177" y="639" type="curve"/>
			<point x="248" y="639"/>
			<point x="279" y="577"/>
			<point x="279" y="516" type="curve"/>
			<point x="279" y="465"/>
			<point x="274" y="430"/>
			<point x="207" y="386" type="curve" smooth="yes"/>
			<point x="158" y="354"/>
			<point x="144" y="318"/>
			<point x="147" y="263" type="curve" smooth="yes"/>
			<point x="151" y="180" type="line"/>
			<point x="202" y="180" type="line"/>
			<point x="205" y="254" type="line" smooth="yes"/>
			<point x="207" y="294"/>
			<point x="215" y="321"/>
			<point x="247" y="342" type="curve" smooth="yes"/>
			<point x="327" y="395"/>
			<point x="343" y="451"/>
			<point x="343" y="516" type="curve"/>
			<point x="343" y="615"/>
			<point x="281" y="698"/>
			<point x="182" y="698" type="curve"/>
			<point x="112" y="698"/>
			<point x="64" y="670"/>
		</contour>
	</outline>
</glyph>
<glyph name="at" format="2">
  <advance width="832"/>
  <unicode hex="0040"/>
  <outline>
    <contour>
      <point x="54" y="249" type="curve" smooth="yes"/>
      <point x="54.0" y="-10.248322147651038"/>
      <point x="199.83023872679044" y="-195.0"/>
      <point x="428" y="-195" type="curve" smooth="yes"/>
      <point x="507" y="-195"/>
      <point x="584" y="-170"/>
      <point x="638" y="-136" type="curve"/>
      <point x="610" y="-69" type="line"/>
      <point x="554.0" y="-101.0"/>
      <point x="494" y="-120"/>
      <point x="438" y="-120" type="curve" smooth="yes"/>
      <point x="243" y="-120"/>
      <point x="135" y="31"/>
      <point x="135" y="249" type="curve" smooth="yes"/>
      <point x="135" y="474"/>
      <point x="259" y="621"/>
      <point x="427" y="621" type="curve" smooth="yes"/>
      <point x="608" y="621"/>
      <point x="704" y="470"/>
      <point x="704" y="258" type="curve" smooth="yes"/>
      <point x="704" y="120"/>
      <point x="670" y="64"/>
      <point x="627" y="64" type="curve"/>
      <point x="601" y="64"/>
      <point x="582" y="83"/>
      <point x="582" y="141" type="curve"/>
      <point x="582" y="373" type="line" smooth="yes"/>
      <point x="582" y="401"/>
      <point x="584" y="422"/>
      <point x="588" y="451" type="curve"/>
      <point x="595" y="495" type="line"/>
      <point x="512" y="495" type="line"/>
      <point x="494" y="395" type="line"/>
      <point x="494" y="152" type="line"/>
      <point x="496" y="116" type="line"/>
      <point x="510" y="24"/>
      <point x="560" y="-10"/>
      <point x="621" y="-10" type="curve" smooth="yes"/>
      <point x="695.925" y="-10.0"/>
      <point x="783.0" y="52.0"/>
      <point x="783" y="258" type="curve" smooth="yes"/>
      <point x="783" y="516"/>
      <point x="647.2394366197183" y="700.0"/>
      <point x="426" y="700" type="curve" smooth="yes"/>
      <point x="212.14973262032086" y="700.0"/>
      <point x="54.0" y="514.7678571428572"/>
    </contour>
    <contour>
      <point x="219" y="248" type="curve" smooth="yes"/>
      <point x="219.0" y="101.0"/>
      <point x="290.2549019607843" y="10.0"/>
      <point x="377" y="10" type="curve" smooth="yes"/>
      <point x="430.0357142857143" y="10.0"/>
      <point x="478.0" y="38.93333333333333"/>
      <point x="512" y="80" type="curve"/>
      <point x="507" y="152" type="line"/>
      <point x="476.45454545454544" y="116.19753086419755"/>
      <point x="438" y="94"/>
      <point x="402" y="94" type="curve" smooth="yes"/>
      <point x="342" y="94"/>
      <point x="308.0" y="153.71951219512195"/>
      <point x="308" y="260" type="curve" smooth="yes"/>
      <point x="308" y="357"/>
      <point x="348.969696969697" y="426.0"/>
      <point x="412" y="426" type="curve" smooth="yes"/>
      <point x="454.41379310344826" y="426.0"/>
      <point x="494.0" y="387.50375939849624"/>
      <point x="494" y="298" type="curve"/>
      <point x="530" y="318" type="line"/>
      <point x="530.0" y="454.69035532994917"/>
      <point x="465.4632352941176" y="505.0"/>
      <point x="399" y="505" type="curve" smooth="yes"/>
      <point x="292.0285714285714" y="505.0"/>
      <point x="219" y="396"/>
    </contour>
  </outline>
</glyph>
<glyph name="A" format="2">
	<advance width="500"/>
	<unicode hex="0041"/>
	<anchor x="245" y="690" name="top"/>
	<anchor x="252" y="0" name="bottom"/>
	<anchor x="415" y="0" name="ogonek"/>
	<outline>
		<contour>
			<point x="20" y="0" type="line"/>
			<point x="82" y="0" type="line"/>
			<point x="263" y="654" type="line"/>
			<point x="261" y="690" type="line"/>
			<point x="221" y="690" type="line"/>
		</contour>
		<contour>
			<point x="124" y="226" type="line"/>
			<point x="368" y="226" type="line"/>
			<point x="368" y="280" type="line"/>
			<point x="124" y="280" type="line"/>
		</contour>
		<contour>
			<point x="231" y="654" type="line"/>
			<point x="415" y="0" type="line"/>
			<point x="480" y="0" type="line"/>
			<point x="273" y="690" type="line"/>
			<point x="229" y="690" type="line"/>
		</contour>
	</outline>
</glyph>
<glyph name="B" format="2">
	<advance width="499"/>
	<unicode hex="0042"/>
	<outline>
		<contour>
			<point x="77" y="0" type="line"/>
			<point x="139" y="0" type="line"/>
			<point x="139" y="690" type="line"/>
			<point x="77" y="690" type="line"/>
		</contour>
		<contour>
			<point x="107" y="0" type="line"/>
			<point x="227" y="0" type="line" smooth="yes"/>
			<point x="356" y="0"/>
			<point x="453" y="70"/>
			<point x="453" y="187" type="curve" smooth="yes"/>
			<point x="453" y="303"/>
			<point x="355" y="370"/>
			<point x="226" y="370" type="curve" smooth="yes"/>
			<point x="107" y="370" type="line"/>
			<point x="107" y="330" type="line"/>
			<point x="221" y="330" type="line" smooth="yes"/>
			<point x="323" y="330"/>
			<point x="389" y="280"/>
			<point x="389" y="192" type="curve" smooth="yes"/>
			<point x="389" y="104"/>
			<point x="323" y="54"/>
			<point x="221" y="54" type="curve" smooth="yes"/>
			<point x="107" y="54" type="line"/>
		</contour>
		<contour>
			<point x="107" y="340" type="line"/>
			<point x="206" y="340" type="line" smooth="yes"/>
			<point x="332" y="340"/>
			<point x="428" y="403"/>
			<point x="428" y="513" type="curve" smooth="yes"/>
			<point x="428" y="624"/>
			<point x="334" y="690"/>
			<point x="208" y="690" type="curve" smooth="yes"/>
			<point x="107" y="690" type="line"/>
			<point x="107" y="636" type="line"/>
			<point x="201" y="636" type="line" smooth="yes"/>
			<point x="300" y="636"/>
			<point x="364" y="590"/>
			<point x="364" y="508" type="curve" smooth="yes"/>
			<point x="364" y="426"/>
			<point x="300" y="380"/>
			<point x="201" y="380" type="curve" smooth="yes"/>
			<point x="107" y="380" type="line"/>
		</contour>
	</outline>
</glyph>
<glyph name="C" format="2">
	<advance width="481"/>
	<unicode hex="0043"/>
	<anchor x="271" y="690" name="top"/>
	<anchor x="271" y="0" name="bottom"/>
	<outline>
		<contour>
			<point x="48" y="345" type="curve"/>
			<point x="48" y="112"/>
			<point x="128" y="-8"/>
			<point x="288" y="-8" type="curve"/>
			<point x="350" y="-8"/>
			<point x="415" y="30"/>
			<point x="446" y="96" type="curve"/>
			<point x="404" y="125" type="line"/>
			<point x="370" y="74"/>
			<point x="332" y="49"/>
			<point x="288" y="49" type="curve"/>
			<point x="161" y="49"/>
			<point x="112" y="148"/>
			<point x="112" y="345" type="curve"/>
			<point x="112" y="542"/>
			<point x="163" y="641"/>
			<point x="288" y="641" type="curve" smooth="yes"/>
			<point x="334" y="641"/>
			<point x="366" y="619"/>
			<point x="399" y="572" type="curve"/>
			<point x="445" y="604" type="line"/>
			<point x="402" y="667"/>
			<point x="353" y="698"/>
			<point x="288" y="698" type="curve" smooth="yes"/>
			<point x="130" y="698"/>
			<point x="48" y="578"/>
		</contour>
	</outline>
</glyph>
<glyph name="D" format="2">
  <advance width="566"/>
  <unicode hex="0044"/>
  <anchor x="249.0" y="690.0" name="top"/>
  <outline>
    <contour>
      <point x="77" y="0" type="line"/>
      <point x="167" y="0" type="line"/>
      <point x="167" y="690" type="line"/>
      <point x="77" y="690" type="line"/>
    </contour>
    <contour>
      <point x="122" y="0" type="line"/>
      <point x="247" y="0" type="line" smooth="yes"/>
      <point x="418.49640287769785" y="0.0"/>
      <point x="521.0" y="113.0"/>
      <point x="521" y="345" type="curve" smooth="yes"/>
      <point x="521.0" y="577.0"/>
      <point x="418.49640287769785" y="690.0"/>
      <point x="247" y="690" type="curve" smooth="yes"/>
      <point x="122" y="690" type="line"/>
      <point x="122" y="607" type="line"/>
      <point x="241" y="607" type="line" smooth="yes"/>
      <point x="360.4450261780105" y="607.0"/>
      <point x="428.0" y="523.0"/>
      <point x="428" y="345" type="curve" smooth="yes"/>
      <point x="428.0" y="167.0"/>
      <point x="360.4450261780105" y="83.0"/>
      <point x="241" y="83" type="curve" smooth="yes"/>
      <point x="122" y="83" type="line"/>
    </contour>
  </outline>
</glyph>
<glyph name="E" format="2">
	<advance width="461"/>
	<unicode hex="0045"/>
	<anchor x="237" y="690" name="top"/>
	<anchor x="237" y="0" name="bottom"/>
	<anchor x="352" y="0" name="ogonek"/>
	<outline>
		<contour>
			<point x="77" y="0" type="line"/>
			<point x="139" y="0" type="line"/>
			<point x="139" y="690" type="line"/>
			<point x="77" y="690" type="line"/>
		</contour>
		<contour>
			<point x="107" y="0" type="line"/>
			<point x="407" y="0" type="line"/>
			<point x="407" y="54" type="line"/>
			<point x="107" y="54" type="line"/>
		</contour>
		<contour>
			<point x="107" y="322" type="line"/>
			<point x="356" y="322" type="line"/>
			<point x="356" y="374" type="line"/>
			<point x="107" y="374" type="line"/>
		</contour>
		<contour>
			<point x="107" y="636" type="line"/>
			<point x="402" y="636" type="line"/>
			<point x="402" y="690" type="line"/>
			<point x="107" y="690" type="line"/>
		</contour>
	</outline>
</glyph>
<glyph name="F" format="2">
	<advance width="450"/>
	<unicode hex="0046"/>
	<outline>
		<contour>
			<point x="88" y="0" type="line"/>
			<point x="150" y="0" type="line"/>
			<point x="150" y="690" type="line"/>
			<point x="88" y="690" type="line"/>
		</contour>
		<contour>
			<point x="118" y="301" type="line"/>
			<point x="352" y="301" type="line"/>
			<point x="352" y="355" type="line"/>
			<point x="118" y="355" type="line"/>
		</contour>
		<contour>
			<point x="118" y="636" type="line"/>
			<point x="390" y="636" type="line"/>
			<point x="390" y="690" type="line"/>
			<point x="118" y="690" type="line"/>
		</contour>
	</outline>
</glyph>
<glyph name="G" format="2">
	<advance width="516"/>
	<unicode hex="0047"/>
	<anchor x="256" y="690" name="top"/>
	<anchor x="256" y="0" name="bottom"/>
	<outline>
		<contour>
			<point x="45" y="345" type="curve" smooth="yes"/>
			<point x="45" y="112"/>
			<point x="136" y="-8"/>
			<point x="280" y="-8" type="curve" smooth="yes"/>
			<point x="352" y="-8"/>
			<point x="413" y="25"/>
			<point x="457" y="87" type="curve"/>
			<point x="409" y="117" type="line"/>
			<point x="377" y="69"/>
			<point x="334" y="47"/>
			<point x="280" y="47" type="curve" smooth="yes"/>
			<point x="182" y="47"/>
			<point x="109" y="148"/>
			<point x="109" y="345" type="curve" smooth="yes"/>
			<point x="109" y="542"/>
			<point x="171" y="641"/>
			<point x="276" y="641" type="curve" smooth="yes"/>
			<point x="327" y="641"/>
			<point x="360" y="625"/>
			<point x="400" y="586" type="curve"/>
			<point x="440" y="628" type="line"/>
			<point x="389" y="677"/>
			<point x="344" y="698"/>
			<point x="276" y="698" type="curve" smooth="yes"/>
			<point x="138" y="698"/>
			<point x="45" y="578"/>
		</contour>
		<contour>
			<point x="284" y="276" type="line"/>
			<point x="427" y="276" type="line"/>
			<point x="427" y="330" type="line"/>
			<point x="284" y="330" type="line"/>
		</contour>
		<contour>
			<point x="395" y="87" type="line"/>
			<point x="457" y="87" type="line"/>
			<point x="457" y="330" type="line"/>
			<point x="395" y="330" type="line"/>
		</contour>
	</outline>
</glyph>
<glyph name="H" format="2">
	<advance width="576"/>
	<unicode hex="0048"/>
	<anchor x="285" y="690" name="top"/>
	<outline>
		<contour>
			<point x="90" y="0" type="line"/>
			<point x="152" y="0" type="line"/>
			<point x="152" y="690" type="line"/>
			<point x="90" y="690" type="line"/>
		</contour>
		<contour>
			<point x="120" y="321" type="line"/>
			<point x="456" y="321" type="line"/>
			<point x="456" y="375" type="line"/>
			<point x="120" y="375" type="line"/>
		</contour>
		<contour>
			<point x="424" y="0" type="line"/>
			<point x="486" y="0" type="line"/>
			<point x="486" y="690" type="line"/>
			<point x="424" y="690" type="line"/>
		</contour>
	</outline>
</glyph>
<glyph name="I" format="2">
  <advance width="452"/>
  <unicode hex="0049"/>
  <anchor x="226" y="690" name="top"/>
  <anchor x="226" y="0" name="bottom"/>
  <anchor x="195" y="0" name="ogonek"/>
  <outline>
    <contour>
      <point x="90" y="0" type="line"/>
      <point x="362" y="0" type="line"/>
      <point x="362" y="50" type="line"/>
      <point x="90" y="50" type="line"/>
    </contour>
    <contour>
      <point x="90" y="640" type="line"/>
      <point x="362" y="640" type="line"/>
      <point x="362" y="690" type="line"/>
      <point x="90" y="690" type="line"/>
    </contour>
    <contour>
      <point x="195" y="0" type="line"/>
      <point x="257" y="0" type="line"/>
      <point x="257" y="690" type="line"/>
      <point x="195" y="690" type="line"/>
    </contour>
  </outline>
</glyph>
<glyph name="J" format="2">
	<advance width="450"/>
	<unicode hex="004A"/>
	<anchor x="245" y="690" name="top"/>
	<outline>
		<contour>
			<point x="66" y="87" type="line"/>
			<point x="96" y="25"/>
			<point x="140" y="-8"/>
			<point x="209" y="-8" type="curve"/>
			<point x="314" y="-8"/>
			<point x="357" y="61"/>
			<point x="357" y="205" type="curve" smooth="yes"/>
			<point x="357" y="690" type="line"/>
			<point x="295" y="690" type="line"/>
			<point x="295" y="210" type="line" smooth="yes"/>
			<point x="295" y="94"/>
			<point x="280" y="49"/>
			<point x="209" y="49" type="curve"/>
			<point x="157" y="49"/>
			<point x="134" y="73"/>
			<point x="113" y="119" type="curve"/>
		</contour>
		<contour>
			<point x="175" y="640" type="line"/>
			<point x="331" y="640" type="line"/>
			<point x="331" y="690" type="line"/>
			<point x="175" y="690" type="line"/>
		</contour>
	</outline>
</glyph>
<glyph name="K" format="2">
	<advance width="487"/>
	<unicode hex="004B"/>
	<anchor x="257" y="0" name="bottom"/>
	<outline>
		<contour>
			<point x="77" y="0" type="line"/>
			<point x="139" y="0" type="line"/>
			<point x="139" y="690" type="line"/>
			<point x="77" y="690" type="line"/>
		</contour>
		<contour>
			<point x="133" y="246" type="line"/>
			<point x="213" y="349" type="line"/>
			<point x="220" y="357" type="line"/>
			<point x="478" y="690" type="line"/>
			<point x="412" y="690" type="line"/>
			<point x="133" y="329" type="line"/>
		</contour>
		<contour>
			<point x="191" y="345" type="line"/>
			<point x="391" y="0" type="line"/>
			<point x="457" y="0" type="line"/>
			<point x="232" y="381" type="line"/>
		</contour>
	</outline>
</glyph>
<glyph name="L" format="2">
  <advance width="542"/>
  <unicode hex="004C"/>
  <anchor x="141" y="690" name="top"/>
  <anchor x="300" y="0" name="bottom"/>
  <anchor x="352" y="680" name="caron.alt"/>
  <outline>
    <contour>
      <point x="110" y="0" type="line"/>
      <point x="172" y="0" type="line"/>
      <point x="172" y="690" type="line"/>
      <point x="110" y="690" type="line"/>
    </contour>
    <contour>
      <point x="140" y="0" type="line"/>
      <point x="492" y="0" type="line"/>
      <point x="492" y="54" type="line"/>
      <point x="140" y="54" type="line"/>
    </contour>
  </outline>
</glyph>
<glyph name="M" format="2">
	<advance width="610"/>
	<unicode hex="004D"/>
	<outline>
		<contour>
			<point x="80" y="0" type="line"/>
			<point x="142" y="0" type="line"/>
			<point x="142" y="690" type="line"/>
			<point x="80" y="690" type="line"/>
		</contour>
		<contour>
			<point x="121" y="690" type="line"/>
			<point x="280" y="175" type="line"/>
			<point x="307" y="175" type="line"/>
			<point x="307" y="254" type="line"/>
			<point x="183" y="690" type="line"/>
		</contour>
		<contour>
			<point x="303" y="175" type="line"/>
			<point x="330" y="175" type="line"/>
			<point x="489" y="690" type="line"/>
			<point x="427" y="690" type="line"/>
			<point x="303" y="254" type="line"/>
		</contour>
		<contour>
			<point x="468" y="0" type="line"/>
			<point x="530" y="0" type="line"/>
			<point x="530" y="690" type="line"/>
			<point x="468" y="690" type="line"/>
		</contour>
	</outline>
</glyph>
<glyph name="N" format="2">
	<advance width="530"/>
	<unicode hex="004E"/>
	<anchor x="279" y="690" name="top"/>
	<anchor x="252" y="0" name="bottom"/>
	<outline>
		<contour>
			<point x="77" y="0" type="line"/>
			<point x="139" y="0" type="line"/>
			<point x="139" y="690" type="line"/>
			<point x="77" y="690" type="line"/>
		</contour>
		<contour>
			<point x="125" y="690" type="line"/>
			<point x="355" y="0" type="line"/>
			<point x="399" y="0" type="line"/>
			<point x="171" y="690" type="line"/>
		</contour>
		<contour>
			<point x="391" y="0" type="line"/>
			<point x="453" y="0" type="line"/>
			<point x="453" y="690" type="line"/>
			<point x="391" y="690" type="line"/>
		</contour>
	</outline>
</glyph>
<glyph name="O" format="2">
	<advance width="546"/>
	<unicode hex="004F"/>
	<anchor x="273" y="690" name="top"/>
	<anchor x="273" y="0" name="bottom"/>
	<anchor x="315" y="0" name="ogonek"/>
	<anchor x="317" y="690" name="horn"/>
	<outline>
		<contour>
			<point x="55" y="345" type="curve" smooth="yes"/>
			<point x="55" y="152"/>
			<point x="115" y="-8"/>
			<point x="273" y="-8" type="curve" smooth="yes"/>
			<point x="431" y="-8"/>
			<point x="491" y="152"/>
			<point x="491" y="345" type="curve" smooth="yes"/>
			<point x="491" y="538"/>
			<point x="431" y="698"/>
			<point x="273" y="698" type="curve" smooth="yes"/>
			<point x="115" y="698"/>
			<point x="55" y="538"/>
		</contour>
		<contour>
			<point x="119" y="345" type="curve" smooth="yes"/>
			<point x="119" y="502"/>
			<point x="148" y="641"/>
			<point x="273" y="641" type="curve" smooth="yes"/>
			<point x="398" y="641"/>
			<point x="427" y="502"/>
			<point x="427" y="345" type="curve" smooth="yes"/>
			<point x="427" y="188"/>
			<point x="398" y="49"/>
			<point x="273" y="49" type="curve" smooth="yes"/>
			<point x="148" y="49"/>
			<point x="119" y="188"/>
		</contour>
	</outline>
</glyph>
<glyph name="P" format="2">
	<advance width="482"/>
	<unicode hex="0050"/>
	<outline>
		<contour>
			<point x="80" y="0" type="line"/>
			<point x="142" y="0" type="line"/>
			<point x="142" y="690" type="line"/>
			<point x="80" y="690" type="line"/>
		</contour>
		<contour>
			<point x="110" y="250" type="line"/>
			<point x="211" y="250" type="line" smooth="yes"/>
			<point x="348" y="250"/>
			<point x="442" y="332"/>
			<point x="442" y="470" type="curve" smooth="yes"/>
			<point x="442" y="608"/>
			<point x="348" y="690"/>
			<point x="211" y="690" type="curve" smooth="yes"/>
			<point x="110" y="690" type="line"/>
			<point x="110" y="636" type="line"/>
			<point x="206" y="636" type="line" smooth="yes"/>
			<point x="316" y="636"/>
			<point x="378" y="577"/>
			<point x="378" y="470" type="curve" smooth="yes"/>
			<point x="378" y="363"/>
			<point x="316" y="304"/>
			<point x="206" y="304" type="curve" smooth="yes"/>
			<point x="110" y="304" type="line"/>
		</contour>
	</outline>
</glyph>
<glyph name="Q" format="2">
	<advance width="611"/>
	<unicode hex="0051"/>
	<outline>
		<contour>
			<point x="364" y="7" type="line"/>
			<point x="391" y="-97"/>
			<point x="439" y="-146"/>
			<point x="541" y="-150" type="curve"/>
			<point x="541" y="-87" type="line"/>
			<point x="471" y="-87"/>
			<point x="438" y="-58"/>
			<point x="414" y="29" type="curve"/>
		</contour>
		<contour>
			<point x="70" y="345" type="curve" smooth="yes"/>
			<point x="70" y="142"/>
			<point x="140" y="-8"/>
			<point x="298" y="-8" type="curve" smooth="yes"/>
			<point x="456" y="-8"/>
			<point x="526" y="142"/>
			<point x="526" y="345" type="curve" smooth="yes"/>
			<point x="526" y="548"/>
			<point x="456" y="698"/>
			<point x="298" y="698" type="curve" smooth="yes"/>
			<point x="140" y="698"/>
			<point x="70" y="548"/>
		</contour>
		<contour>
			<point x="134" y="345" type="curve" smooth="yes"/>
			<point x="134" y="512"/>
			<point x="173" y="641"/>
			<point x="298" y="641" type="curve" smooth="yes"/>
			<point x="423" y="641"/>
			<point x="462" y="512"/>
			<point x="462" y="345" type="curve" smooth="yes"/>
			<point x="462" y="178"/>
			<point x="423" y="49"/>
			<point x="298" y="49" type="curve" smooth="yes"/>
			<point x="173" y="49"/>
			<point x="134" y="178"/>
		</contour>
	</outline>
</glyph>
<glyph name="R" format="2">
  <advance width="522"/>
  <unicode hex="0052"/>
  <anchor x="255.0" y="690.0" name="top"/>
  <anchor x="266.0" y="0.0" name="bottom"/>
  <outline>
    <contour>
      <point x="77" y="0" type="line"/>
      <point x="167" y="0" type="line"/>
      <point x="167" y="690" type="line"/>
      <point x="77" y="690" type="line"/>
    </contour>
    <contour>
      <point x="122" y="261" type="line"/>
      <point x="240" y="261" type="line"/>
      <point x="371" y="261"/>
      <point x="467" y="334"/>
      <point x="467" y="476" type="curve" smooth="yes"/>
      <point x="467" y="627"/>
      <point x="375" y="690"/>
      <point x="250" y="690" type="curve"/>
      <point x="122" y="690" type="line"/>
      <point x="122" y="607" type="line"/>
      <point x="238" y="607" type="line"/>
      <point x="327" y="607"/>
      <point x="375" y="568"/>
      <point x="375" y="476" type="curve" smooth="yes"/>
      <point x="375" y="383"/>
      <point x="326" y="342"/>
      <point x="238" y="342" type="curve"/>
      <point x="122" y="342" type="line"/>
    </contour>
    <contour>
      <point x="238" y="290" type="line"/>
      <point x="380" y="0" type="line"/>
      <point x="482" y="0" type="line"/>
      <point x="335" y="290" type="line"/>
    </contour>
  </outline>
</glyph>
<glyph name="S" format="2">
	<advance width="476"/>
	<unicode hex="0053"/>
	<anchor x="241" y="690" name="top"/>
	<anchor x="238" y="0" name="bottom"/>
	<outline>
		<contour>
			<point x="36" y="78" type="line"/>
			<point x="94" y="18"/>
			<point x="162" y="-8"/>
			<point x="237" y="-8" type="curve"/>
			<point x="376" y="-8"/>
			<point x="433" y="72"/>
			<point x="433" y="171" type="curve"/>
			<point x="433" y="240"/>
			<point x="387" y="334"/>
			<point x="241" y="390" type="curve" smooth="yes"/>
			<point x="116" y="438"/>
			<point x="117" y="496"/>
			<point x="117" y="532" type="curve"/>
			<point x="117" y="598"/>
			<point x="160" y="644"/>
			<point x="241" y="644" type="curve"/>
			<point x="293" y="644"/>
			<point x="328" y="625"/>
			<point x="373" y="589" type="curve"/>
			<point x="410" y="633" type="line"/>
			<point x="355" y="678"/>
			<point x="307" y="698"/>
			<point x="241" y="698" type="curve"/>
			<point x="127" y="698"/>
			<point x="58" y="625"/>
			<point x="58" y="529" type="curve"/>
			<point x="58" y="467"/>
			<point x="74" y="390"/>
			<point x="217" y="334" type="curve" smooth="yes"/>
			<point x="354" y="280"/>
			<point x="372" y="207"/>
			<point x="372" y="166" type="curve"/>
			<point x="372" y="105"/>
			<point x="340" y="46"/>
			<point x="237" y="46" type="curve"/>
			<point x="170" y="46"/>
			<point x="124" y="72"/>
			<point x="71" y="120" type="curve"/>
		</contour>
	</outline>
</glyph>
<glyph name="T" format="2">
	<advance width="386"/>
	<unicode hex="0054"/>
	<anchor x="193" y="690" name="top"/>
	<anchor x="195" y="0" name="bottom"/>
	<outline>
		<contour>
			<point x="23" y="636" type="line"/>
			<point x="363" y="636" type="line"/>
			<point x="363" y="690" type="line"/>
			<point x="23" y="690" type="line"/>
		</contour>
		<contour>
			<point x="164" y="0" type="line"/>
			<point x="226" y="0" type="line"/>
			<point x="226" y="690" type="line"/>
			<point x="164" y="690" type="line"/>
		</contour>
	</outline>
</glyph>
<glyph name="U" format="2">
	<advance width="502"/>
	<unicode hex="0055"/>
	<anchor x="253" y="690" name="top"/>
	<anchor x="251" y="0" name="bottom"/>
	<anchor x="258" y="0" name="ogonek"/>
	<anchor x="415" y="690" name="horn"/>
	<outline>
		<contour>
			<point x="75" y="203" type="line" smooth="yes"/>
			<point x="75" y="86"/>
			<point x="112" y="-8"/>
			<point x="251" y="-8" type="curve" smooth="yes"/>
			<point x="390" y="-8"/>
			<point x="427" y="86"/>
			<point x="427" y="203" type="curve" smooth="yes"/>
			<point x="427" y="690" type="line"/>
			<point x="365" y="690" type="line"/>
			<point x="365" y="208" type="line" smooth="yes"/>
			<point x="365" y="124"/>
			<point x="356" y="49"/>
			<point x="251" y="49" type="curve" smooth="yes"/>
			<point x="146" y="49"/>
			<point x="137" y="124"/>
			<point x="137" y="208" type="curve" smooth="yes"/>
			<point x="137" y="690" type="line"/>
			<point x="75" y="690" type="line"/>
		</contour>
	</outline>
</glyph>
<glyph name="V" format="2">
	<advance width="502"/>
	<unicode hex="0056"/>
	<outline>
		<contour>
			<point x="20" y="690" type="line"/>
			<point x="225" y="0" type="line"/>
			<point x="269" y="0" type="line"/>
			<point x="267" y="31" type="line"/>
			<point x="85" y="690" type="line"/>
		</contour>
		<contour>
			<point x="235" y="31" type="line"/>
			<point x="237" y="0" type="line"/>
			<point x="277" y="0" type="line"/>
			<point x="482" y="690" type="line"/>
			<point x="420" y="690" type="line"/>
		</contour>
	</outline>
</glyph>
<glyph name="W" format="2">
	<advance width="717"/>
	<unicode hex="0057"/>
	<anchor x="358" y="690" name="top"/>
	<outline>
		<contour>
			<point x="20" y="690" type="line"/>
			<point x="180" y="0" type="line"/>
			<point x="224" y="0" type="line"/>
			<point x="222" y="32" type="line"/>
			<point x="85" y="690" type="line"/>
		</contour>
		<contour>
			<point x="190" y="32" type="line"/>
			<point x="192" y="0" type="line"/>
			<point x="232" y="0" type="line"/>
			<point x="369" y="614" type="line"/>
			<point x="369" y="690" type="line"/>
			<point x="334" y="690" type="line"/>
		</contour>
		<contour>
			<point x="346" y="614" type="line"/>
			<point x="485" y="0" type="line"/>
			<point x="529" y="0" type="line"/>
			<point x="527" y="32" type="line"/>
			<point x="384" y="690" type="line"/>
			<point x="346" y="690" type="line"/>
		</contour>
		<contour>
			<point x="495" y="32" type="line"/>
			<point x="497" y="0" type="line"/>
			<point x="537" y="0" type="line"/>
			<point x="697" y="690" type="line"/>
			<point x="635" y="690" type="line"/>
		</contour>
	</outline>
</glyph>
<glyph name="X" format="2">
	<advance width="485"/>
	<unicode hex="0058"/>
	<outline>
		<contour>
			<point x="30" y="0" type="line"/>
			<point x="100" y="0" type="line"/>
			<point x="249" y="312" type="line"/>
			<point x="268" y="338" type="line"/>
			<point x="445" y="690" type="line"/>
			<point x="375" y="690" type="line"/>
			<point x="236" y="392" type="line"/>
			<point x="217" y="367" type="line"/>
		</contour>
		<contour>
			<point x="40" y="690" type="line"/>
			<point x="224" y="325" type="line"/>
			<point x="382" y="0" type="line"/>
			<point x="455" y="0" type="line"/>
			<point x="262" y="380" type="line"/>
			<point x="113" y="690" type="line"/>
		</contour>
	</outline>
</glyph>
<glyph name="Y" format="2">
	<advance width="452"/>
	<unicode hex="0059"/>
	<anchor x="226" y="690" name="top"/>
	<outline>
		<contour>
			<point x="25" y="690" type="line"/>
			<point x="200" y="280" type="line"/>
			<point x="244" y="280" type="line"/>
			<point x="242" y="314" type="line"/>
			<point x="93" y="690" type="line"/>
		</contour>
		<contour>
			<point x="195" y="0" type="line"/>
			<point x="257" y="0" type="line"/>
			<point x="257" y="310" type="line"/>
			<point x="195" y="310" type="line"/>
		</contour>
		<contour>
			<point x="210" y="314" type="line"/>
			<point x="212" y="280" type="line"/>
			<point x="252" y="280" type="line"/>
			<point x="427" y="690" type="line"/>
			<point x="363" y="690" type="line"/>
		</contour>
	</outline>
</glyph>
<glyph name="Z" format="2">
	<advance width="407"/>
	<unicode hex="005A"/>
	<anchor x="213" y="690" name="top"/>
	<outline>
		<contour>
			<point x="30" y="42" type="line"/>
			<point x="66" y="0" type="line"/>
			<point x="369" y="648" type="line"/>
			<point x="333" y="690" type="line"/>
		</contour>
		<contour>
			<point x="30" y="0" type="line"/>
			<point x="377" y="0" type="line"/>
			<point x="377" y="54" type="line"/>
			<point x="45" y="54" type="line"/>
			<point x="30" y="42" type="line"/>
		</contour>
		<contour>
			<point x="38" y="636" type="line"/>
			<point x="352" y="636" type="line"/>
			<point x="369" y="648" type="line"/>
			<point x="369" y="690" type="line"/>
			<point x="38" y="690" type="line"/>
		</contour>
	</outline>
</glyph>
<glyph name="bracketleft" format="2">
  <advance width="270"/>
  <unicode hex="005B"/>
  <outline>
    <contour>
      <point x="82" y="-241" type="line"/>
      <point x="161" y="-241" type="line"/>
      <point x="161" y="776" type="line"/>
      <point x="82" y="776" type="line"/>
    </contour>
    <contour>
      <point x="82" y="-241" type="line"/>
      <point x="295" y="-241" type="line"/>
      <point x="295" y="-175" type="line"/>
      <point x="82" y="-175" type="line"/>
    </contour>
    <contour>
      <point x="82" y="710" type="line"/>
      <point x="295" y="710" type="line"/>
      <point x="295" y="776" type="line"/>
      <point x="82" y="776" type="line"/>
    </contour>
  </outline>
</glyph>
<glyph name="bracketright" format="2">
	<advance width="295"/>
	<unicode hex="005D"/>
	<outline>
		<contour>
			<point x="-15" y="-225" type="line"/>
			<point x="159" y="-225" type="line"/>
			<point x="159" y="-175" type="line"/>
			<point x="-15" y="-175" type="line"/>
		</contour>
		<contour>
			<point x="-15" y="710" type="line"/>
			<point x="159" y="710" type="line"/>
			<point x="159" y="760" type="line"/>
			<point x="-15" y="760" type="line"/>
		</contour>
		<contour>
			<point x="129" y="-225" type="line"/>
			<point x="185" y="-225" type="line"/>
			<point x="185" y="760" type="line"/>
			<point x="129" y="760" type="line"/>
		</contour>
	</outline>
</glyph>
<glyph name="asciicircum" format="2">
	<advance width="500"/>
	<unicode hex="005E"/>
	<outline>
		<contour>
			<point x="72" y="290" type="line"/>
			<point x="133" y="290" type="line"/>
			<point x="263" y="654" type="line"/>
			<point x="262" y="690" type="line"/>
			<point x="224" y="690" type="line"/>
		</contour>
		<contour>
			<point x="230" y="690" type="line"/>
			<point x="234" y="654" type="line"/>
			<point x="365" y="290" type="line"/>
			<point x="428" y="290" type="line"/>
			<point x="276" y="690" type="line"/>
		</contour>
	</outline>
</glyph>
<glyph name="underscore" format="2">
	<advance width="402"/>
	<unicode hex="005F"/>
	<outline>
		<contour>
			<point x="0" y="-50" type="line"/>
			<point x="402" y="-50" type="line"/>
			<point x="402" y="0" type="line"/>
			<point x="0" y="0" type="line"/>
		</contour>
	</outline>
</glyph>
<glyph name="grave" format="2">
  <advance width="500"/>
  <unicode hex="0060"/>
  <anchor x="250.0" y="514.0" name="_top"/>
  <outline>
    <contour>
      <point x="128.0" y="739" type="line"/>
      <point x="219.0" y="589" type="line"/>
      <point x="292.0" y="589" type="line"/>
      <point x="228.0" y="739" type="line"/>
    </contour>
  </outline>
</glyph>
<glyph name="a" format="2">
	<advance width="427"/>
	<unicode hex="0061"/>
	<anchor x="214" y="510" name="top"/>
	<anchor x="204" y="0" name="bottom"/>
	<anchor x="316" y="0" name="ogonek"/>
	<anchor x="230" y="540" name="hook"/>
	<outline>
		<contour>
			<point x="46" y="121" type="curve"/>
			<point x="46" y="49"/>
			<point x="95" y="-8"/>
			<point x="178" y="-8" type="curve" smooth="yes"/>
			<point x="232" y="-8"/>
			<point x="286" y="35"/>
			<point x="315" y="87" type="curve"/>
			<point x="315" y="146" type="line"/>
			<point x="282" y="85"/>
			<point x="236" y="46"/>
			<point x="186" y="46" type="curve" smooth="yes"/>
			<point x="128" y="46"/>
			<point x="105" y="81"/>
			<point x="105" y="128" type="curve"/>
			<point x="105" y="178"/>
			<point x="130" y="223"/>
			<point x="267" y="248" type="curve" smooth="yes"/>
			<point x="306" y="255" type="line"/>
			<point x="306" y="297" type="line"/>
			<point x="260" y="291" type="line" smooth="yes"/>
			<point x="95" y="270"/>
			<point x="46" y="207"/>
		</contour>
		<contour>
			<point x="70" y="472" type="curve"/>
			<point x="94" y="424" type="line"/>
			<point x="132" y="452"/>
			<point x="164" y="463"/>
			<point x="212" y="463" type="curve"/>
			<point x="269" y="463"/>
			<point x="300" y="423"/>
			<point x="300" y="324" type="curve"/>
			<point x="300" y="103" type="line"/>
			<point x="316" y="0" type="line"/>
			<point x="371" y="0" type="line"/>
			<point x="365" y="39" type="line" smooth="yes"/>
			<point x="361" y="68"/>
			<point x="360" y="89"/>
			<point x="360" y="122" type="curve"/>
			<point x="360" y="327" type="line" smooth="yes"/>
			<point x="360" y="454"/>
			<point x="302" y="518"/>
			<point x="216" y="518" type="curve"/>
			<point x="162" y="518"/>
			<point x="111" y="501"/>
		</contour>
	</outline>
</glyph>
<glyph name="b" format="2">
	<advance width="437"/>
	<unicode hex="0062"/>
	<outline>
		<contour>
			<point x="70" y="0" type="line"/>
			<point x="125" y="0" type="line"/>
			<point x="141" y="103" type="line"/>
			<point x="141" y="731" type="line"/>
			<point x="81" y="717" type="line"/>
			<point x="81" y="122" type="line"/>
			<point x="81" y="89"/>
			<point x="80" y="68"/>
			<point x="76" y="39" type="curve" smooth="yes"/>
		</contour>
		<contour>
			<point x="113" y="190" type="line"/>
			<point x="113" y="62"/>
			<point x="148" y="-8"/>
			<point x="233" y="-8" type="curve" smooth="yes"/>
			<point x="334" y="-8"/>
			<point x="387" y="73"/>
			<point x="387" y="260" type="curve" smooth="yes"/>
			<point x="387" y="435"/>
			<point x="342" y="518"/>
			<point x="249" y="518" type="curve" smooth="yes"/>
			<point x="194" y="518"/>
			<point x="165" y="475"/>
			<point x="126" y="417" type="curve"/>
			<point x="126" y="369" type="line"/>
			<point x="169" y="428"/>
			<point x="190" y="463"/>
			<point x="241" y="463" type="curve" smooth="yes"/>
			<point x="302" y="463"/>
			<point x="326" y="404"/>
			<point x="326" y="255" type="curve" smooth="yes"/>
			<point x="326" y="103"/>
			<point x="304" y="44"/>
			<point x="229" y="44" type="curve" smooth="yes"/>
			<point x="161" y="44"/>
			<point x="141" y="97"/>
			<point x="141" y="200" type="curve"/>
		</contour>
	</outline>
</glyph>
<glyph name="c" format="2">
	<advance width="420"/>
	<unicode hex="0063"/>
	<anchor x="239" y="510" name="top"/>
	<anchor x="240" y="0" name="bottom"/>
	<outline>
		<contour>
			<point x="49" y="255" type="curve"/>
			<point x="49" y="82"/>
			<point x="135" y="-8"/>
			<point x="238" y="-8" type="curve"/>
			<point x="290" y="-8"/>
			<point x="334" y="21"/>
			<point x="365" y="77" type="curve"/>
			<point x="321" y="107" type="line"/>
			<point x="298" y="68"/>
			<point x="270" y="48"/>
			<point x="236" y="48" type="curve"/>
			<point x="165" y="48"/>
			<point x="110" y="112"/>
			<point x="110" y="255" type="curve"/>
			<point x="110" y="395"/>
			<point x="164" y="462"/>
			<point x="236" y="462" type="curve"/>
			<point x="269" y="462"/>
			<point x="302" y="442"/>
			<point x="325" y="402" type="curve"/>
			<point x="371" y="435" type="line"/>
			<point x="340" y="495"/>
			<point x="289" y="518"/>
			<point x="238" y="518" type="curve"/>
			<point x="135" y="518"/>
			<point x="49" y="425"/>
		</contour>
	</outline>
</glyph>
<glyph name="d" format="2">
	<advance width="444"/>
	<unicode hex="0064"/>
	<anchor x="428" y="720" name="caron.alt"/>
	<outline>
		<contour>
			<point x="53" y="250" type="curve" smooth="yes"/>
			<point x="53" y="75"/>
			<point x="106" y="-8"/>
			<point x="196" y="-8" type="curve" smooth="yes"/>
			<point x="257" y="-8"/>
			<point x="288" y="31"/>
			<point x="321" y="93" type="curve"/>
			<point x="321" y="144" type="line"/>
			<point x="284" y="79"/>
			<point x="261" y="47"/>
			<point x="204" y="47" type="curve" smooth="yes"/>
			<point x="146" y="47"/>
			<point x="114" y="106"/>
			<point x="114" y="255" type="curve" smooth="yes"/>
			<point x="114" y="407"/>
			<point x="143" y="466"/>
			<point x="216" y="466" type="curve" smooth="yes"/>
			<point x="286" y="466"/>
			<point x="306" y="413"/>
			<point x="306" y="310" type="curve"/>
			<point x="334" y="317" type="line"/>
			<point x="334" y="445"/>
			<point x="299" y="518"/>
			<point x="212" y="518" type="curve" smooth="yes"/>
			<point x="113" y="518"/>
			<point x="53" y="437"/>
		</contour>
		<contour>
			<point x="322" y="0" type="line"/>
			<point x="377" y="0" type="line"/>
			<point x="371" y="39" type="line" smooth="yes"/>
			<point x="367" y="68"/>
			<point x="366" y="89"/>
			<point x="366" y="122" type="curve" smooth="yes"/>
			<point x="366" y="731" type="line"/>
			<point x="307" y="717" type="line"/>
			<point x="306" y="103" type="line"/>
		</contour>
	</outline>
</glyph>
<glyph name="e" format="2">
	<advance width="456"/>
	<unicode hex="0065"/>
	<anchor x="235" y="510" name="top"/>
	<anchor x="235" y="0" name="bottom"/>
	<anchor x="235" y="0" name="ogonek"/>
	<outline>
		<contour>
			<point x="50" y="255" type="curve" smooth="yes"/>
			<point x="50" y="81"/>
			<point x="138" y="-8"/>
			<point x="254" y="-8" type="curve" smooth="yes"/>
			<point x="294" y="-8"/>
			<point x="344" y="9"/>
			<point x="389" y="55" type="curve"/>
			<point x="356" y="96" type="line"/>
			<point x="322" y="61"/>
			<point x="285" y="47"/>
			<point x="253" y="47" type="curve" smooth="yes"/>
			<point x="168" y="47"/>
			<point x="111" y="111"/>
			<point x="111" y="255" type="curve" smooth="yes"/>
			<point x="111" y="395"/>
			<point x="145" y="463"/>
			<point x="235" y="463" type="curve" smooth="yes"/>
			<point x="316" y="463"/>
			<point x="349" y="402"/>
			<point x="349" y="270" type="curve"/>
			<point x="362" y="294" type="line"/>
			<point x="94" y="294" type="line"/>
			<point x="94" y="244" type="line"/>
			<point x="404" y="244" type="line"/>
			<point x="405" y="254"/>
			<point x="406" y="267"/>
			<point x="406" y="280" type="curve" smooth="yes"/>
			<point x="406" y="431"/>
			<point x="347" y="518"/>
			<point x="235" y="518" type="curve" smooth="yes"/>
			<point x="114" y="518"/>
			<point x="50" y="425"/>
		</contour>
	</outline>
</glyph>
<glyph name="f" format="2">
	<advance width="302"/>
	<unicode hex="0066"/>
	<outline>
		<contour>
			<point x="25" y="460" type="line"/>
			<point x="265" y="460" type="line"/>
			<point x="265" y="510" type="line"/>
			<point x="25" y="510" type="line"/>
		</contour>
		<contour>
			<point x="98" y="0" type="line"/>
			<point x="158" y="0" type="line"/>
			<point x="158" y="572" type="line" smooth="yes"/>
			<point x="158" y="645"/>
			<point x="161" y="674"/>
			<point x="207" y="674" type="curve"/>
			<point x="221" y="674"/>
			<point x="236" y="671"/>
			<point x="261" y="656" type="curve"/>
			<point x="277" y="702" type="line"/>
			<point x="257" y="718"/>
			<point x="225" y="728"/>
			<point x="202" y="728" type="curve"/>
			<point x="126" y="728"/>
			<point x="98" y="682"/>
			<point x="98" y="575" type="curve" smooth="yes"/>
		</contour>
	</outline>
</glyph>
<glyph name="g" format="2">
	<advance width="477"/>
	<unicode hex="0067"/>
	<anchor x="218" y="510" name="top"/>
	<outline>
		<contour>
			<point x="55" y="255" type="curve" smooth="yes"/>
			<point x="55" y="97"/>
			<point x="100" y="7"/>
			<point x="203" y="7" type="curve" smooth="yes"/>
			<point x="268" y="7"/>
			<point x="307" y="49"/>
			<point x="346" y="104" type="curve"/>
			<point x="346" y="151" type="line"/>
			<point x="303" y="95"/>
			<point x="272" y="62"/>
			<point x="211" y="62" type="curve" smooth="yes"/>
			<point x="140" y="62"/>
			<point x="116" y="128"/>
			<point x="116" y="260" type="curve" smooth="yes"/>
			<point x="116" y="398"/>
			<point x="138" y="466"/>
			<point x="223" y="466" type="curve" smooth="yes"/>
			<point x="301" y="466"/>
			<point x="331" y="413"/>
			<point x="331" y="310" type="curve"/>
			<point x="359" y="320" type="line"/>
			<point x="359" y="448"/>
			<point x="314" y="518"/>
			<point x="219" y="518" type="curve" smooth="yes"/>
			<point x="108" y="518"/>
			<point x="55" y="429"/>
		</contour>
		<contour>
			<point x="85" y="-147" type="line"/>
			<point x="127" y="-176"/>
			<point x="165" y="-193"/>
			<point x="227" y="-193" type="curve" smooth="yes"/>
			<point x="342" y="-193"/>
			<point x="391" y="-121"/>
			<point x="391" y="20" type="curve" smooth="yes"/>
			<point x="391" y="388" type="line"/>
			<point x="391" y="421"/>
			<point x="392" y="442"/>
			<point x="396" y="471" type="curve" smooth="yes"/>
			<point x="402" y="510" type="line"/>
			<point x="347" y="510" type="line"/>
			<point x="331" y="407" type="line"/>
			<point x="331" y="25" type="line" smooth="yes"/>
			<point x="331" y="-93"/>
			<point x="307" y="-138"/>
			<point x="216" y="-138" type="curve" smooth="yes"/>
			<point x="165" y="-138"/>
			<point x="145" y="-125"/>
			<point x="108" y="-97" type="curve"/>
		</contour>
	</outline>
</glyph>
<glyph name="h" format="2">
	<advance width="505"/>
	<unicode hex="0068"/>
	<anchor x="120" y="720" name="top"/>
	<outline>
		<contour>
			<point x="90" y="0" type="line"/>
			<point x="150" y="0" type="line"/>
			<point x="150" y="731" type="line"/>
			<point x="90" y="717" type="line"/>
		</contour>
		<contour>
			<point x="135" y="368" type="line"/>
			<point x="179" y="427"/>
			<point x="227" y="463"/>
			<point x="282" y="463" type="curve"/>
			<point x="335" y="463"/>
			<point x="360" y="423"/>
			<point x="360" y="320" type="curve" smooth="yes"/>
			<point x="360" y="0" type="line"/>
			<point x="420" y="0" type="line"/>
			<point x="420" y="325" type="line" smooth="yes"/>
			<point x="420" y="453"/>
			<point x="371" y="518"/>
			<point x="290" y="518" type="curve"/>
			<point x="231" y="518"/>
			<point x="175" y="475"/>
			<point x="135" y="417" type="curve"/>
		</contour>
	</outline>
</glyph>
<glyph name="i" format="2">
	<advance width="204"/>
	<unicode hex="0069"/>
	<anchor x="102" y="0" name="bottom"/>
	<anchor x="72" y="0" name="ogonek"/>
	<outline>
		<contour>
			<point x="72" y="0" type="line"/>
			<point x="132" y="0" type="line"/>
			<point x="132" y="510" type="line"/>
			<point x="72" y="510" type="line"/>
		</contour>
		<contour>
			<point x="59" y="683" type="curve" smooth="yes"/>
			<point x="59" y="659"/>
			<point x="78" y="639"/>
			<point x="102" y="639" type="curve" smooth="yes"/>
			<point x="127" y="639"/>
			<point x="145" y="659"/>
			<point x="145" y="683" type="curve" smooth="yes"/>
			<point x="145" y="708"/>
			<point x="127" y="728"/>
			<point x="102" y="728" type="curve" smooth="yes"/>
			<point x="78" y="728"/>
			<point x="59" y="708"/>
		</contour>
	</outline>
</glyph>
<glyph name="j" format="2">
	<advance width="247"/>
	<unicode hex="006A"/>
	<outline>
		<contour>
			<point x="-50" y="-177" type="line"/>
			<point x="-30" y="-187"/>
			<point x="-2" y="-193"/>
			<point x="20" y="-193" type="curve"/>
			<point x="101" y="-193"/>
			<point x="154" y="-136"/>
			<point x="154" y="-48" type="curve" smooth="yes"/>
			<point x="154" y="510" type="line"/>
			<point x="94" y="510" type="line"/>
			<point x="94" y="-47" type="line" smooth="yes"/>
			<point x="94" y="-112"/>
			<point x="64" y="-138"/>
			<point x="18" y="-138" type="curve"/>
			<point x="-1" y="-138"/>
			<point x="-19" y="-134"/>
			<point x="-37" y="-126" type="curve"/>
		</contour>
		<contour>
			<point x="81" y="683" type="curve" smooth="yes"/>
			<point x="81" y="659"/>
			<point x="100" y="639"/>
			<point x="124" y="639" type="curve" smooth="yes"/>
			<point x="149" y="639"/>
			<point x="167" y="659"/>
			<point x="167" y="683" type="curve" smooth="yes"/>
			<point x="167" y="708"/>
			<point x="149" y="728"/>
			<point x="124" y="728" type="curve" smooth="yes"/>
			<point x="100" y="728"/>
			<point x="81" y="708"/>
		</contour>
	</outline>
</glyph>
<glyph name="k" format="2">
	<advance width="403"/>
	<unicode hex="006B"/>
	<anchor x="222" y="0" name="bottom"/>
	<outline>
		<contour>
			<point x="75" y="0" type="line"/>
			<point x="135" y="0" type="line"/>
			<point x="135" y="731" type="line"/>
			<point x="75" y="717" type="line"/>
		</contour>
		<contour>
			<point x="129" y="186" type="line"/>
			<point x="376" y="510" type="line"/>
			<point x="320" y="510" type="line"/>
			<point x="129" y="259" type="line"/>
		</contour>
		<contour>
			<point x="161" y="267" type="line"/>
			<point x="331" y="0" type="line"/>
			<point x="393" y="0" type="line"/>
			<point x="200" y="308" type="line"/>
		</contour>
	</outline>
</glyph>
<glyph name="l" format="2">
  <advance width="234"/>
  <unicode hex="006C"/>
  <anchor x="117.0" y="720.0" name="top"/>
  <anchor x="234.0" y="720.0" name="caron.alt"/>
  <anchor x="117.0" y="0.0" name="bottom"/>
  <outline>
    <contour>
      <point x="73" y="0" type="line"/>
      <point x="161" y="0" type="line"/>
      <point x="161" y="735" type="line"/>
      <point x="73" y="715" type="line"/>
    </contour>
  </outline>
</glyph>
<glyph name="m" format="2">
  <advance width="859"/>
  <unicode hex="006D"/>
  <outline>
    <contour>
      <point x="84" y="510" type="line"/>
      <point x="90" y="471" type="line" smooth="yes"/>
      <point x="94" y="442"/>
      <point x="95" y="421"/>
      <point x="95" y="388" type="curve" smooth="yes"/>
      <point x="95" y="0" type="line"/>
      <point x="155" y="0" type="line"/>
      <point x="155" y="407" type="line"/>
      <point x="139" y="510" type="line"/>
    </contour>
    <contour>
      <point x="140" y="366" type="line"/>
      <point x="178" y="427"/>
      <point x="235" y="463"/>
      <point x="295" y="463" type="curve"/>
      <point x="355" y="463"/>
      <point x="402" y="423"/>
      <point x="402" y="327" type="curve" smooth="yes"/>
      <point x="402" y="0" type="line"/>
      <point x="462" y="0" type="line"/>
      <point x="462" y="332" type="line" smooth="yes"/>
      <point x="462" y="453"/>
      <point x="391" y="518"/>
      <point x="303" y="518" type="curve"/>
      <point x="239" y="518"/>
      <point x="175" y="475"/>
      <point x="140" y="417" type="curve"/>
    </contour>
    <contour>
      <point x="441" y="418" type="curve"/>
      <point x="447" y="366" type="line"/>
      <point x="485" y="427"/>
      <point x="542" y="463"/>
      <point x="602" y="463" type="curve"/>
      <point x="662" y="463"/>
      <point x="709" y="423"/>
      <point x="709" y="327" type="curve" smooth="yes"/>
      <point x="709" y="0" type="line"/>
      <point x="769" y="0" type="line"/>
      <point x="769" y="332" type="line" smooth="yes"/>
      <point x="769" y="453"/>
      <point x="698" y="518"/>
      <point x="610" y="518" type="curve"/>
      <point x="543" y="518"/>
      <point x="476" y="476"/>
    </contour>
  </outline>
</glyph>
<glyph name="n" format="2">
	<advance width="466"/>
	<unicode hex="006E"/>
	<anchor x="247" y="510" name="top"/>
	<anchor x="237" y="0" name="bottom"/>
	<outline>
		<contour>
			<point x="61" y="510" type="line"/>
			<point x="67" y="471" type="line" smooth="yes"/>
			<point x="71" y="442"/>
			<point x="72" y="421"/>
			<point x="72" y="388" type="curve" smooth="yes"/>
			<point x="72" y="0" type="line"/>
			<point x="132" y="0" type="line"/>
			<point x="132" y="407" type="line"/>
			<point x="116" y="510" type="line"/>
		</contour>
		<contour>
			<point x="117" y="375" type="line"/>
			<point x="157" y="432"/>
			<point x="194" y="463"/>
			<point x="252" y="463" type="curve"/>
			<point x="300" y="463"/>
			<point x="337" y="432"/>
			<point x="337" y="320" type="curve" smooth="yes"/>
			<point x="337" y="0" type="line"/>
			<point x="397" y="0" type="line"/>
			<point x="397" y="325" type="line" smooth="yes"/>
			<point x="397" y="471"/>
			<point x="336" y="518"/>
			<point x="260" y="518" type="curve"/>
			<point x="198" y="518"/>
			<point x="157" y="486"/>
			<point x="117" y="434" type="curve"/>
		</contour>
	</outline>
</glyph>
<glyph name="o" format="2">
	<advance width="450"/>
	<unicode hex="006F"/>
	<anchor x="225" y="510" name="top"/>
	<anchor x="225" y="0" name="bottom"/>
	<anchor x="263" y="0" name="ogonek"/>
	<anchor x="264" y="510" name="horn"/>
	<outline>
		<contour>
			<point x="43" y="255" type="curve" smooth="yes"/>
			<point x="43" y="74"/>
			<point x="125" y="-8"/>
			<point x="225" y="-8" type="curve" smooth="yes"/>
			<point x="325" y="-8"/>
			<point x="407" y="74"/>
			<point x="407" y="255" type="curve" smooth="yes"/>
			<point x="407" y="436"/>
			<point x="325" y="518"/>
			<point x="225" y="518" type="curve" smooth="yes"/>
			<point x="125" y="518"/>
			<point x="43" y="436"/>
		</contour>
		<contour>
			<point x="104" y="255" type="curve" smooth="yes"/>
			<point x="104" y="402"/>
			<point x="156" y="463"/>
			<point x="225" y="463" type="curve" smooth="yes"/>
			<point x="294" y="463"/>
			<point x="346" y="402"/>
			<point x="346" y="255" type="curve" smooth="yes"/>
			<point x="346" y="104"/>
			<point x="294" y="47"/>
			<point x="225" y="47" type="curve" smooth="yes"/>
			<point x="156" y="47"/>
			<point x="104" y="104"/>
		</contour>
	</outline>
</glyph>
<glyph name="p" format="2">
	<advance width="452"/>
	<unicode hex="0070"/>
	<outline>
		<contour>
			<point x="60" y="510" type="line"/>
			<point x="66" y="471" type="line" smooth="yes"/>
			<point x="70" y="442"/>
			<point x="71" y="421"/>
			<point x="71" y="388" type="curve" smooth="yes"/>
			<point x="71" y="-196" type="line"/>
			<point x="131" y="-182" type="line"/>
			<point x="131" y="407" type="line"/>
			<point x="115" y="510" type="line"/>
		</contour>
		<contour>
			<point x="103" y="193" type="line"/>
			<point x="103" y="65"/>
			<point x="153" y="-8"/>
			<point x="243" y="-8" type="curve" smooth="yes"/>
			<point x="334" y="-8"/>
			<point x="407" y="70"/>
			<point x="407" y="260" type="curve" smooth="yes"/>
			<point x="407" y="438"/>
			<point x="334" y="518"/>
			<point x="251" y="518" type="curve" smooth="yes"/>
			<point x="193" y="518"/>
			<point x="155" y="475"/>
			<point x="116" y="417" type="curve"/>
			<point x="116" y="366" type="line"/>
			<point x="159" y="427"/>
			<point x="189" y="463"/>
			<point x="243" y="463" type="curve" smooth="yes"/>
			<point x="294" y="463"/>
			<point x="346" y="407"/>
			<point x="346" y="255" type="curve" smooth="yes"/>
			<point x="346" y="100"/>
			<point x="304" y="44"/>
			<point x="239" y="44" type="curve" smooth="yes"/>
			<point x="166" y="44"/>
			<point x="131" y="97"/>
			<point x="131" y="200" type="curve"/>
		</contour>
	</outline>
</glyph>
<glyph name="q" format="2">
	<advance width="450"/>
	<unicode hex="0071"/>
	<outline>
		<contour>
			<point x="42" y="250" type="curve" smooth="yes"/>
			<point x="42" y="75"/>
			<point x="115" y="-8"/>
			<point x="198" y="-8" type="curve" smooth="yes"/>
			<point x="250" y="-8"/>
			<point x="298" y="18"/>
			<point x="333" y="71" type="curve"/>
			<point x="333" y="123" type="line"/>
			<point x="294" y="67"/>
			<point x="259" y="47"/>
			<point x="207" y="47" type="curve" smooth="yes"/>
			<point x="156" y="47"/>
			<point x="103" y="106"/>
			<point x="103" y="255" type="curve" smooth="yes"/>
			<point x="103" y="407"/>
			<point x="153" y="466"/>
			<point x="216" y="466" type="curve" smooth="yes"/>
			<point x="284" y="466"/>
			<point x="318" y="419"/>
			<point x="318" y="323" type="curve"/>
			<point x="346" y="333" type="line"/>
			<point x="346" y="454"/>
			<point x="297" y="518"/>
			<point x="212" y="518" type="curve" smooth="yes"/>
			<point x="121" y="518"/>
			<point x="42" y="437"/>
		</contour>
		<contour>
			<point x="318" y="-196" type="line"/>
			<point x="378" y="-182" type="line"/>
			<point x="378" y="388" type="line"/>
			<point x="378" y="421"/>
			<point x="379" y="442"/>
			<point x="383" y="471" type="curve" smooth="yes"/>
			<point x="389" y="510" type="line"/>
			<point x="334" y="510" type="line"/>
			<point x="318" y="407" type="line"/>
		</contour>
	</outline>
</glyph>
<glyph name="r" format="2">
	<advance width="288"/>
	<unicode hex="0072"/>
	<anchor x="159" y="510" name="top"/>
	<anchor x="102" y="0" name="bottom"/>
	<outline>
		<contour>
			<point x="61" y="510" type="line"/>
			<point x="67" y="471" type="line" smooth="yes"/>
			<point x="71" y="442"/>
			<point x="72" y="421"/>
			<point x="72" y="388" type="curve" smooth="yes"/>
			<point x="72" y="0" type="line"/>
			<point x="132" y="0" type="line"/>
			<point x="132" y="392" type="line"/>
			<point x="116" y="510" type="line"/>
		</contour>
		<contour>
			<point x="117" y="351" type="line"/>
			<point x="159" y="422"/>
			<point x="202" y="456"/>
			<point x="268" y="456" type="curve"/>
			<point x="268" y="518" type="line"/>
			<point x="205" y="518"/>
			<point x="157" y="477"/>
			<point x="117" y="406" type="curve"/>
		</contour>
	</outline>
</glyph>
<glyph name="s" format="2">
	<advance width="386"/>
	<unicode hex="0073"/>
	<anchor x="198" y="0" name="bottom"/>
	<anchor x="196" y="510" name="top"/>
	<outline>
		<contour>
			<point x="40" y="68" type="line"/>
			<point x="82" y="15"/>
			<point x="132" y="-8"/>
			<point x="198" y="-8" type="curve"/>
			<point x="283" y="-8"/>
			<point x="346" y="53"/>
			<point x="346" y="130" type="curve"/>
			<point x="346" y="188"/>
			<point x="326" y="243"/>
			<point x="213" y="288" type="curve" smooth="yes"/>
			<point x="130" y="321"/>
			<point x="116" y="350"/>
			<point x="116" y="389" type="curve"/>
			<point x="116" y="428"/>
			<point x="143" y="466"/>
			<point x="196" y="466" type="curve"/>
			<point x="238" y="466"/>
			<point x="260" y="447"/>
			<point x="289" y="414" type="curve"/>
			<point x="330" y="452" type="line"/>
			<point x="289" y="497"/>
			<point x="256" y="518"/>
			<point x="196" y="518" type="curve"/>
			<point x="113" y="518"/>
			<point x="57" y="457"/>
			<point x="57" y="384" type="curve"/>
			<point x="57" y="327"/>
			<point x="87" y="273"/>
			<point x="186" y="237" type="curve" smooth="yes"/>
			<point x="283" y="202"/>
			<point x="286" y="162"/>
			<point x="286" y="125" type="curve"/>
			<point x="286" y="85"/>
			<point x="252" y="47"/>
			<point x="202" y="47" type="curve"/>
			<point x="153" y="47"/>
			<point x="111" y="63"/>
			<point x="82" y="106" type="curve"/>
		</contour>
	</outline>
</glyph>
<glyph name="t" format="2">
	<advance width="307"/>
	<unicode hex="0074"/>
	<anchor x="190" y="0" name="bottom"/>
	<anchor x="307" y="720" name="caron.alt"/>
	<outline>
		<contour>
			<point x="20" y="460" type="line"/>
			<point x="272" y="460" type="line"/>
			<point x="272" y="510" type="line"/>
			<point x="20" y="510" type="line"/>
		</contour>
		<contour>
			<point x="93" y="135" type="line" smooth="yes"/>
			<point x="93" y="44"/>
			<point x="125" y="-8"/>
			<point x="204" y="-8" type="curve"/>
			<point x="233" y="-8"/>
			<point x="257" y="0"/>
			<point x="282" y="13" type="curve"/>
			<point x="269" y="64" type="line"/>
			<point x="244" y="52"/>
			<point x="230" y="47"/>
			<point x="210" y="47" type="curve"/>
			<point x="164" y="47"/>
			<point x="153" y="73"/>
			<point x="153" y="138" type="curve" smooth="yes"/>
			<point x="153" y="654" type="line"/>
			<point x="93" y="640" type="line"/>
		</contour>
	</outline>
</glyph>
<glyph name="u" format="2">
  <advance width="511"/>
  <unicode hex="0075"/>
  <anchor x="254.0" y="514.0" name="top"/>
  <anchor x="367.0" y="0.0" name="ogonek"/>
  <anchor x="254.0" y="0.0" name="bottom"/>
  <outline>
    <contour>
      <point x="69" y="184" type="line" smooth="yes"/>
      <point x="69" y="53"/>
      <point x="133" y="-10"/>
      <point x="224" y="-10" type="curve" smooth="yes"/>
      <point x="279" y="-10"/>
      <point x="327" y="19"/>
      <point x="363" y="60" type="curve"/>
      <point x="363" y="130" type="line"/>
      <point x="328" y="95"/>
      <point x="287" y="73"/>
      <point x="244" y="73" type="curve" smooth="yes"/>
      <point x="192.5909090909091" y="73.0"/>
      <point x="157" y="110"/>
      <point x="157" y="195" type="curve" smooth="yes"/>
      <point x="157" y="515" type="line"/>
      <point x="69" y="515" type="line"/>
    </contour>
    <contour>
      <point x="367" y="0" type="line"/>
      <point x="451" y="0" type="line"/>
      <point x="444" y="44" type="line" smooth="yes"/>
      <point x="439.0" y="73.0"/>
      <point x="438" y="94"/>
      <point x="438" y="122" type="curve" smooth="yes"/>
      <point x="438" y="515" type="line"/>
      <point x="350" y="515" type="line"/>
      <point x="350" y="100" type="line"/>
    </contour>
  </outline>
</glyph>
<glyph name="v" format="2">
  <advance width="466"/>
  <unicode hex="0076"/>
  <outline>
    <contour>
      <point x="15" y="510" type="line"/>
      <point x="207" y="0" type="line"/>
      <point x="253" y="0" type="line"/>
      <point x="251" y="38" type="line"/>
      <point x="80" y="510" type="line"/>
    </contour>
    <contour>
      <point x="219" y="38" type="line"/>
      <point x="221" y="0" type="line"/>
      <point x="259" y="0" type="line"/>
      <point x="451" y="510" type="line"/>
      <point x="389" y="510" type="line"/>
    </contour>
  </outline>
</glyph>
<glyph name="w" format="2">
  <advance width="644"/>
  <unicode hex="0077"/>
  <anchor x="322.0" y="514.0" name="top"/>
  <outline>
    <contour>
      <point x="10" y="515" type="line"/>
      <point x="152" y="0" type="line"/>
      <point x="206" y="0" type="line"/>
      <point x="207" y="93" type="line"/>
      <point x="102" y="515" type="line"/>
    </contour>
    <contour>
      <point x="178" y="93" type="line"/>
      <point x="180" y="0" type="line"/>
      <point x="224" y="0" type="line"/>
      <point x="336" y="413" type="line"/>
      <point x="336" y="515" type="line"/>
      <point x="287" y="515" type="line"/>
    </contour>
    <contour>
      <point x="307" y="413" type="line"/>
      <point x="419" y="0" type="line"/>
      <point x="470" y="0" type="line"/>
      <point x="470" y="93" type="line"/>
      <point x="360" y="515" type="line"/>
      <point x="307" y="515" type="line"/>
    </contour>
    <contour>
      <point x="441" y="93" type="line"/>
      <point x="443" y="0" type="line"/>
      <point x="491" y="0" type="line"/>
      <point x="633" y="515" type="line"/>
      <point x="545" y="515" type="line"/>
    </contour>
  </outline>
</glyph>
<glyph name="x" format="2">
	<advance width="394"/>
	<unicode hex="0078"/>
	<outline>
		<contour>
			<point x="18" y="0" type="line"/>
			<point x="79" y="0" type="line"/>
			<point x="202" y="227" type="line"/>
			<point x="220" y="249" type="line"/>
			<point x="371" y="510" type="line"/>
			<point x="310" y="510" type="line"/>
			<point x="197" y="298" type="line"/>
			<point x="179" y="276" type="line"/>
		</contour>
		<contour>
			<point x="22" y="510" type="line"/>
			<point x="179" y="238" type="line"/>
			<point x="183" y="232" type="line"/>
			<point x="312" y="0" type="line"/>
			<point x="376" y="0" type="line"/>
			<point x="213" y="281" type="line"/>
			<point x="209" y="287" type="line"/>
			<point x="86" y="510" type="line"/>
		</contour>
	</outline>
</glyph>
<glyph name="y" format="2">
	<advance width="390"/>
	<unicode hex="0079"/>
	<anchor x="198" y="510" name="top"/>
	<anchor x="184" y="-69" name="bottom"/>
	<outline>
		<contour>
			<point x="7" y="510" type="line"/>
			<point x="173" y="0" type="line"/>
			<point x="213" y="0" type="line"/>
			<point x="213" y="31" type="line"/>
			<point x="70" y="510" type="line"/>
		</contour>
		<contour>
			<point x="13" y="-179" type="line"/>
			<point x="32" y="-188"/>
			<point x="48" y="-193"/>
			<point x="73" y="-193" type="curve"/>
			<point x="118" y="-193"/>
			<point x="168" y="-170"/>
			<point x="198" y="-76" type="curve" smooth="yes"/>
			<point x="383" y="510" type="line"/>
			<point x="321" y="510" type="line"/>
			<point x="181" y="31" type="line"/>
			<point x="148" y="-68" type="line" smooth="yes"/>
			<point x="127" y="-130"/>
			<point x="102" y="-140"/>
			<point x="67" y="-140" type="curve"/>
			<point x="50" y="-140"/>
			<point x="38" y="-137"/>
			<point x="28" y="-133" type="curve"/>
		</contour>
	</outline>
</glyph>
<glyph name="z" format="2">
	<advance width="373"/>
	<unicode hex="007A"/>
	<anchor x="186" y="510" name="top"/>
	<outline>
		<contour>
			<point x="40" y="40" type="line"/>
			<point x="84" y="0" type="line"/>
			<point x="325" y="470" type="line"/>
			<point x="281" y="510" type="line"/>
		</contour>
		<contour>
			<point x="40" y="0" type="line"/>
			<point x="333" y="0" type="line"/>
			<point x="333" y="50" type="line"/>
			<point x="55" y="50" type="line"/>
			<point x="40" y="40" type="line"/>
		</contour>
		<contour>
			<point x="48" y="460" type="line"/>
			<point x="308" y="460" type="line"/>
			<point x="325" y="470" type="line"/>
			<point x="325" y="510" type="line"/>
			<point x="48" y="510" type="line"/>
		</contour>
	</outline>
</glyph>
<glyph name="braceleft" format="2">
	<advance width="358"/>
	<unicode hex="007B"/>
	<outline>
		<contour>
			<point x="80" y="291" type="line"/>
			<point x="176" y="267"/>
			<point x="217" y="223"/>
			<point x="217" y="177" type="curve" smooth="yes"/>
			<point x="217" y="102"/>
			<point x="134" y="53"/>
			<point x="134" y="-41" type="curve" smooth="yes"/>
			<point x="134" y="-121"/>
			<point x="188" y="-176"/>
			<point x="300" y="-201" type="curve"/>
			<point x="313" y="-155" type="line"/>
			<point x="213" y="-126"/>
			<point x="190" y="-87"/>
			<point x="190" y="-42" type="curve" smooth="yes"/>
			<point x="190" y="32"/>
			<point x="268" y="89"/>
			<point x="268" y="175" type="curve"/>
			<point x="268" y="232"/>
			<point x="236" y="280"/>
			<point x="152" y="308" type="curve"/>
			<point x="236" y="335"/>
			<point x="268" y="384"/>
			<point x="268" y="441" type="curve"/>
			<point x="268" y="527"/>
			<point x="190" y="583"/>
			<point x="190" y="657" type="curve" smooth="yes"/>
			<point x="190" y="702"/>
			<point x="213" y="741"/>
			<point x="313" y="770" type="curve"/>
			<point x="300" y="816" type="line"/>
			<point x="187" y="790"/>
			<point x="134" y="736"/>
			<point x="134" y="656" type="curve" smooth="yes"/>
			<point x="134" y="562"/>
			<point x="217" y="514"/>
			<point x="217" y="439" type="curve" smooth="yes"/>
			<point x="217" y="393"/>
			<point x="176" y="349"/>
			<point x="80" y="325" type="curve"/>
		</contour>
	</outline>
</glyph>
<glyph name="bar" format="2">
	<advance width="276"/>
	<unicode hex="007C"/>
	<outline>
		<contour>
			<point x="110" y="-215" type="line"/>
			<point x="166" y="-215" type="line"/>
			<point x="166" y="720" type="line"/>
			<point x="110" y="720" type="line"/>
		</contour>
	</outline>
</glyph>
<glyph name="braceright" format="2">
	<advance width="358"/>
	<unicode hex="007D"/>
	<outline>
		<contour>
			<point x="45" y="-155" type="curve"/>
			<point x="58" y="-201" type="line"/>
			<point x="170" y="-176"/>
			<point x="224" y="-121"/>
			<point x="224" y="-41" type="curve" smooth="yes"/>
			<point x="224" y="53"/>
			<point x="141" y="102"/>
			<point x="141" y="177" type="curve" smooth="yes"/>
			<point x="141" y="223"/>
			<point x="182" y="267"/>
			<point x="278" y="291" type="curve"/>
			<point x="278" y="325" type="line"/>
			<point x="182" y="349"/>
			<point x="141" y="393"/>
			<point x="141" y="439" type="curve" smooth="yes"/>
			<point x="141" y="514"/>
			<point x="224" y="562"/>
			<point x="224" y="656" type="curve" smooth="yes"/>
			<point x="224" y="736"/>
			<point x="171" y="790"/>
			<point x="58" y="816" type="curve"/>
			<point x="45" y="770" type="line"/>
			<point x="145" y="741"/>
			<point x="168" y="702"/>
			<point x="168" y="657" type="curve" smooth="yes"/>
			<point x="168" y="583"/>
			<point x="90" y="527"/>
			<point x="90" y="441" type="curve"/>
			<point x="90" y="384"/>
			<point x="122" y="335"/>
			<point x="206" y="308" type="curve"/>
			<point x="122" y="280"/>
			<point x="90" y="232"/>
			<point x="90" y="175" type="curve"/>
			<point x="90" y="89"/>
			<point x="168" y="32"/>
			<point x="168" y="-42" type="curve" smooth="yes"/>
			<point x="168" y="-87"/>
			<point x="145" y="-126"/>
		</contour>
	</outline>
</glyph>
<glyph name="asciitilde" format="2">
	<advance width="500"/>
	<unicode hex="007E"/>
	<outline>
		<contour>
			<point x="84" y="306" type="curve"/>
			<point x="128" y="306" type="line"/>
			<point x="139" y="381"/>
			<point x="166" y="409"/>
			<point x="193" y="409" type="curve"/>
			<point x="237" y="409"/>
			<point x="245" y="301"/>
			<point x="312" y="301" type="curve"/>
			<point x="365" y="301"/>
			<point x="407" y="355"/>
			<point x="416" y="451" type="curve"/>
			<point x="372" y="451" type="line"/>
			<point x="361" y="376"/>
			<point x="339" y="348"/>
			<point x="313" y="348" type="curve"/>
			<point x="272" y="348"/>
			<point x="264" y="456"/>
			<point x="193" y="456" type="curve"/>
			<point x="139" y="456"/>
			<point x="93" y="401"/>
		</contour>
	</outline>
</glyph>
<glyph name="exclamdown" format="2">
	<advance width="306"/>
	<unicode hex="00A1"/>
	<outline>
		<contour>
			<point x="122" y="-185" type="line"/>
			<point x="184" y="-185" type="line"/>
			<point x="184" y="0" type="line"/>
			<point x="175" y="330" type="line"/>
			<point x="131" y="330" type="line"/>
			<point x="122" y="0" type="line"/>
		</contour>
		<contour>
			<point x="110" y="474" type="curve" smooth="yes"/>
			<point x="110" y="449"/>
			<point x="128" y="429"/>
			<point x="153" y="429" type="curve" smooth="yes"/>
			<point x="177" y="429"/>
			<point x="196" y="449"/>
			<point x="196" y="474" type="curve" smooth="yes"/>
			<point x="196" y="498"/>
			<point x="177" y="518"/>
			<point x="153" y="518" type="curve" smooth="yes"/>
			<point x="128" y="518"/>
			<point x="110" y="498"/>
		</contour>
	</outline>
</glyph>
<glyph name="cent" format="2">
  <advance width="600"/>
  <unicode hex="00A2"/>
  <outline>
    <contour>
      <point x="290.0" y="-100" type="line"/>
      <point x="346.0" y="-100" type="line"/>
      <point x="346.0" y="280" type="line"/>
      <point x="290.0" y="280" type="line"/>
    </contour>
    <contour>
      <point x="290.0" y="280" type="line"/>
      <point x="346.0" y="280" type="line"/>
      <point x="346.0" y="695" type="line"/>
      <point x="290.0" y="695" type="line"/>
    </contour>
    <contour>
      <point x="112.0" y="295" type="curve"/>
      <point x="112.0" y="122"/>
      <point x="209.0" y="32"/>
      <point x="331.0" y="32" type="curve"/>
      <point x="398.0" y="32"/>
      <point x="456.0" y="64"/>
      <point x="495.0" y="117" type="curve"/>
      <point x="448.0" y="150" type="line"/>
      <point x="421.0" y="109"/>
      <point x="378.0" y="88"/>
      <point x="329.0" y="88" type="curve"/>
      <point x="239.0" y="88"/>
      <point x="173.0" y="152"/>
      <point x="173.0" y="295" type="curve"/>
      <point x="173.0" y="435"/>
      <point x="238.0" y="502"/>
      <point x="329.0" y="502" type="curve"/>
      <point x="377.0" y="502"/>
      <point x="419.0" y="483"/>
      <point x="447.0" y="442" type="curve"/>
      <point x="494.0" y="475" type="line"/>
      <point x="455.0" y="529"/>
      <point x="397.0" y="558"/>
      <point x="331.0" y="558" type="curve"/>
      <point x="209.0" y="558"/>
      <point x="112.0" y="465"/>
    </contour>
  </outline>
</glyph>
<glyph name="sterling" format="2">
  <advance width="500"/>
  <unicode hex="00A3"/>
  <outline>
    <contour>
      <point x="50.0" y="0" type="line"/>
      <point x="444.0" y="0" type="line"/>
      <point x="444.0" y="78" type="line"/>
      <point x="50.0" y="78" type="line"/>
    </contour>
    <contour>
      <point x="50.0" y="23" type="line"/>
      <point x="135.0" y="46"/>
      <point x="218.0" y="138"/>
      <point x="218.0" y="261" type="curve"/>
      <point x="218.0" y="354"/>
      <point x="188.0" y="409"/>
      <point x="188.0" y="492" type="curve"/>
      <point x="188.0" y="570"/>
      <point x="227.0" y="615"/>
      <point x="290.0" y="615" type="curve" smooth="yes"/>
      <point x="339.9514563106796" y="615.0"/>
      <point x="375.188679245283" y="580.2413793103448"/>
      <point x="395.0" y="543" type="curve"/>
      <point x="459.0" y="598" type="line"/>
      <point x="422.5739644970414" y="656.8461538461538"/>
      <point x="366.9230769230769" y="700.0"/>
      <point x="288.0" y="700" type="curve" smooth="yes"/>
      <point x="184.0" y="700"/>
      <point x="100.0" y="629"/>
      <point x="100.0" y="504" type="curve" smooth="yes"/>
      <point x="100.0" y="412"/>
      <point x="133.0" y="363.9652173913044"/>
      <point x="133.0" y="260" type="curve" smooth="yes"/>
      <point x="133.0" y="200.46153846153845"/>
      <point x="109.4320987654321" y="129.0"/>
      <point x="50.0" y="88" type="curve"/>
    </contour>
    <contour>
      <point x="50.0" y="297" type="line"/>
      <point x="358.0" y="297" type="line"/>
      <point x="358.0" y="375" type="line"/>
      <point x="50.0" y="375" type="line"/>
    </contour>
  </outline>
</glyph>
<glyph name="currency" format="2">
  <advance width="500"/>
  <unicode hex="00A4"/>
  <outline>
    <contour>
      <point x="49.0" y="347" type="curve" smooth="yes"/>
      <point x="49.0" y="218"/>
      <point x="140.1853658536585" y="138.0"/>
      <point x="250.0" y="138" type="curve" smooth="yes"/>
      <point x="361.78640776699035" y="138.0"/>
      <point x="452.0" y="218.0"/>
      <point x="452.0" y="347" type="curve" smooth="yes"/>
      <point x="452.0" y="473.0"/>
      <point x="361.78640776699035" y="554.0"/>
      <point x="250.0" y="554" type="curve" smooth="yes"/>
      <point x="140.1853658536585" y="554.0"/>
      <point x="49.0" y="473"/>
    </contour>
    <contour>
      <point x="133.0" y="345" type="curve" smooth="yes"/>
      <point x="133.0" y="430"/>
      <point x="187.9391304347826" y="472.0"/>
      <point x="250.0" y="472" type="curve" smooth="yes"/>
      <point x="313.05982905982904" y="472.0"/>
      <point x="369.0" y="430.0"/>
      <point x="369.0" y="345" type="curve" smooth="yes"/>
      <point x="369.0" y="263.0"/>
      <point x="313.05982905982904" y="220.0"/>
      <point x="250.0" y="220" type="curve" smooth="yes"/>
      <point x="187.9391304347826" y="220.0"/>
      <point x="133.0" y="263"/>
    </contour>
    <contour>
      <point x="26.0" y="141" type="line"/>
      <point x="81.0" y="89" type="line"/>
      <point x="149.0" y="166" type="line"/>
      <point x="94.0" y="219" type="line"/>
    </contour>
    <contour>
      <point x="351.0" y="166" type="line"/>
      <point x="419.0" y="89" type="line"/>
      <point x="474.0" y="141" type="line"/>
      <point x="406.0" y="219" type="line"/>
    </contour>
    <contour>
      <point x="26.0" y="549" type="line"/>
      <point x="94.0" y="471" type="line"/>
      <point x="149.0" y="524" type="line"/>
      <point x="81.0" y="601" type="line"/>
    </contour>
    <contour>
      <point x="351.0" y="524" type="line"/>
      <point x="406.0" y="471" type="line"/>
      <point x="474.0" y="549" type="line"/>
      <point x="419.0" y="601" type="line"/>
    </contour>
  </outline>
</glyph>
<glyph name="yen" format="2">
  <advance width="600"/>
  <unicode hex="00A5"/>
  <outline>
    <contour>
      <point x="29.0" y="690" type="line"/>
      <point x="274.0" y="280" type="line"/>
      <point x="318.0" y="280" type="line"/>
      <point x="316.0" y="321" type="line"/>
      <point x="101.0" y="690" type="line"/>
    </contour>
    <contour>
      <point x="87.0" y="144" type="line"/>
      <point x="513.0" y="144" type="line"/>
      <point x="513.0" y="198" type="line"/>
      <point x="87.0" y="198" type="line"/>
    </contour>
    <contour>
      <point x="87.0" y="288" type="line"/>
      <point x="513.0" y="288" type="line"/>
      <point x="513.0" y="342" type="line"/>
      <point x="87.0" y="342" type="line"/>
    </contour>
    <contour>
      <point x="269.0" y="0" type="line"/>
      <point x="331.0" y="0" type="line"/>
      <point x="331.0" y="310" type="line"/>
      <point x="269.0" y="310" type="line"/>
    </contour>
    <contour>
      <point x="284.0" y="321" type="line"/>
      <point x="286.0" y="280" type="line"/>
      <point x="326.0" y="280" type="line"/>
      <point x="571.0" y="690" type="line"/>
      <point x="503.0" y="690" type="line"/>
    </contour>
  </outline>
</glyph>
<glyph name="section" format="2">
  <advance width="496"/>
  <unicode hex="00A7"/>
  <outline>
    <contour>
      <point x="38" y="-120" type="line"/>
      <point x="89.99999999999999" y="-169.0"/>
      <point x="160.0" y="-196.0"/>
      <point x="230" y="-196" type="curve" smooth="yes"/>
      <point x="346.0" y="-196.0"/>
      <point x="423.0" y="-121.0"/>
      <point x="423" y="-29" type="curve" smooth="yes"/>
      <point x="423.0" y="51.0"/>
      <point x="374.10497237569064" y="108.64390243902439"/>
      <point x="246" y="174" type="curve" smooth="yes"/>
      <point x="148" y="223"/>
      <point x="122.0" y="255.72307692307692"/>
      <point x="122" y="302" type="curve" smooth="yes"/>
      <point x="122.0" y="350.1190476190476"/>
      <point x="154" y="386"/>
      <point x="210" y="388" type="curve"/>
      <point x="142" y="445" type="line"/>
      <point x="77" y="412"/>
      <point x="31" y="357"/>
      <point x="31" y="288" type="curve" smooth="yes"/>
      <point x="31" y="210"/>
      <point x="74" y="158"/>
      <point x="217" y="86" type="curve" smooth="yes"/>
      <point x="302.01694915254234" y="42.0"/>
      <point x="331.0" y="15.0"/>
      <point x="331" y="-31" type="curve" smooth="yes"/>
      <point x="331.0" y="-76.0"/>
      <point x="297.0" y="-114.0"/>
      <point x="231" y="-114" type="curve" smooth="yes"/>
      <point x="176.0" y="-114.0"/>
      <point x="128.0" y="-92.0"/>
      <point x="88" y="-51" type="curve"/>
    </contour>
    <contour>
      <point x="73" y="535" type="curve" smooth="yes"/>
      <point x="73.0" y="454.0"/>
      <point x="119.93922651933701" y="396.0"/>
      <point x="250" y="330" type="curve" smooth="yes"/>
      <point x="347" y="282"/>
      <point x="374.0" y="248.27692307692308"/>
      <point x="374" y="202" type="curve" smooth="yes"/>
      <point x="374.0" y="153.88095238095238"/>
      <point x="342" y="118"/>
      <point x="286" y="116" type="curve"/>
      <point x="355" y="59" type="line"/>
      <point x="420" y="92"/>
      <point x="465" y="147"/>
      <point x="465" y="216" type="curve" smooth="yes"/>
      <point x="465" y="293"/>
      <point x="422" y="348"/>
      <point x="280" y="418" type="curve" smooth="yes"/>
      <point x="193.99159663865544" y="462.0"/>
      <point x="165.0" y="491.0"/>
      <point x="165" y="537" type="curve" smooth="yes"/>
      <point x="165.0" y="580.0"/>
      <point x="200.0" y="618.0"/>
      <point x="271" y="618" type="curve" smooth="yes"/>
      <point x="323.0" y="618.0"/>
      <point x="371.0" y="596.0"/>
      <point x="409" y="555" type="curve"/>
      <point x="458" y="624" type="line"/>
      <point x="407.0" y="673.0"/>
      <point x="346.0" y="700.0"/>
      <point x="272" y="700" type="curve" smooth="yes"/>
      <point x="150.00000000000003" y="700.0"/>
      <point x="73.0" y="626.0"/>
    </contour>
  </outline>
</glyph>
<glyph name="dieresis" format="2">
	<advance width="600"/>
	<unicode hex="00A8"/>
	<anchor x="300" y="510" name="_top"/>
	<outline>
		<contour>
			<point x="163" y="685" type="curve" smooth="yes"/>
			<point x="163" y="661"/>
			<point x="182" y="643"/>
			<point x="205" y="643" type="curve" smooth="yes"/>
			<point x="229" y="643"/>
			<point x="247" y="661"/>
			<point x="247" y="685" type="curve" smooth="yes"/>
			<point x="247" y="710"/>
			<point x="229" y="728"/>
			<point x="205" y="728" type="curve" smooth="yes"/>
			<point x="182" y="728"/>
			<point x="163" y="710"/>
		</contour>
		<contour>
			<point x="353" y="685" type="curve" smooth="yes"/>
			<point x="353" y="661"/>
			<point x="372" y="643"/>
			<point x="395" y="643" type="curve" smooth="yes"/>
			<point x="419" y="643"/>
			<point x="437" y="661"/>
			<point x="437" y="685" type="curve" smooth="yes"/>
			<point x="437" y="710"/>
			<point x="419" y="728"/>
			<point x="395" y="728" type="curve" smooth="yes"/>
			<point x="372" y="728"/>
			<point x="353" y="710"/>
		</contour>
	</outline>
</glyph>
<glyph name="ordfeminine" format="2">
	<advance width="440"/>
	<unicode hex="00AA"/>
	<outline>
		<contour>
			<point x="56" y="394" type="curve" smooth="yes"/>
			<point x="56" y="324"/>
			<point x="108" y="282"/>
			<point x="170" y="282" type="curve" smooth="yes"/>
			<point x="230" y="282"/>
			<point x="282" y="316"/>
			<point x="310" y="352" type="curve"/>
			<point x="306" y="396" type="line"/>
			<point x="272" y="356"/>
			<point x="228" y="332"/>
			<point x="184" y="332" type="curve" smooth="yes"/>
			<point x="138" y="332"/>
			<point x="112" y="356"/>
			<point x="112" y="396" type="curve" smooth="yes"/>
			<point x="112" y="434"/>
			<point x="142" y="473"/>
			<point x="256" y="478" type="curve" smooth="yes"/>
			<point x="302" y="480" type="line"/>
			<point x="302" y="522" type="line"/>
			<point x="251" y="520" type="line" smooth="yes"/>
			<point x="105" y="514"/>
			<point x="56" y="458"/>
		</contour>
		<contour>
			<point x="66" y="656" type="curve"/>
			<point x="88" y="610" type="line"/>
			<point x="120" y="628"/>
			<point x="158" y="648"/>
			<point x="206" y="648" type="curve" smooth="yes"/>
			<point x="260" y="648"/>
			<point x="302" y="616"/>
			<point x="302" y="535" type="curve"/>
			<point x="302" y="365" type="line"/>
			<point x="318" y="290" type="line"/>
			<point x="370" y="290" type="line"/>
			<point x="363" y="325" type="line" smooth="yes"/>
			<point x="359" y="347"/>
			<point x="358" y="364"/>
			<point x="358" y="386" type="curve" smooth="yes"/>
			<point x="358" y="544" type="line" smooth="yes"/>
			<point x="358" y="648"/>
			<point x="299" y="698"/>
			<point x="210" y="698" type="curve" smooth="yes"/>
			<point x="158" y="698"/>
			<point x="104" y="678"/>
		</contour>
	</outline>
</glyph>
<glyph name="logicalnot" format="2">
	<advance width="600"/>
	<unicode hex="00AC"/>
	<outline>
		<contour>
			<point x="79" y="263" type="line"/>
			<point x="521" y="263" type="line"/>
			<point x="521" y="317" type="line"/>
			<point x="79" y="317" type="line"/>
		</contour>
		<contour>
			<point x="465" y="70" type="line"/>
			<point x="521" y="70" type="line"/>
			<point x="521" y="317" type="line"/>
			<point x="465" y="317" type="line"/>
		</contour>
	</outline>
</glyph>
<glyph name="registered" format="2">
	<advance width="810"/>
	<unicode hex="00AE"/>
	<outline>
		<contour>
			<point x="405" y="-8" type="curve" smooth="yes"/>
			<point x="605" y="-8"/>
			<point x="760" y="145"/>
			<point x="760" y="345" type="curve" smooth="yes"/>
			<point x="760" y="545"/>
			<point x="605" y="698"/>
			<point x="405" y="698" type="curve" smooth="yes"/>
			<point x="205" y="698"/>
			<point x="50" y="545"/>
			<point x="50" y="345" type="curve" smooth="yes"/>
			<point x="50" y="145"/>
			<point x="205" y="-8"/>
		</contour>
		<contour>
			<point x="405" y="44" type="curve" smooth="yes"/>
			<point x="236" y="44"/>
			<point x="106" y="176"/>
			<point x="106" y="345" type="curve" smooth="yes"/>
			<point x="106" y="514"/>
			<point x="236" y="646"/>
			<point x="405" y="646" type="curve" smooth="yes"/>
			<point x="574" y="646"/>
			<point x="704" y="514"/>
			<point x="704" y="345" type="curve" smooth="yes"/>
			<point x="704" y="176"/>
			<point x="574" y="44"/>
		</contour>
		<contour>
			<point x="278" y="138" type="line"/>
			<point x="330" y="138" type="line"/>
			<point x="330" y="552" type="line"/>
			<point x="278" y="552" type="line"/>
		</contour>
		<contour>
			<point x="300" y="300" type="line"/>
			<point x="409" y="300" type="line" smooth="yes"/>
			<point x="484" y="300"/>
			<point x="546" y="344"/>
			<point x="546" y="426" type="curve" smooth="yes"/>
			<point x="546" y="507"/>
			<point x="484" y="552"/>
			<point x="409" y="552" type="curve" smooth="yes"/>
			<point x="300" y="552" type="line"/>
			<point x="300" y="502" type="line"/>
			<point x="405" y="502" type="line" smooth="yes"/>
			<point x="458" y="502"/>
			<point x="494" y="476"/>
			<point x="494" y="426" type="curve" smooth="yes"/>
			<point x="494" y="377"/>
			<point x="457" y="348"/>
			<point x="405" y="348" type="curve" smooth="yes"/>
			<point x="300" y="348" type="line"/>
		</contour>
		<contour>
			<point x="396" y="312" type="line"/>
			<point x="496" y="138" type="line"/>
			<point x="558" y="138" type="line"/>
			<point x="452" y="312" type="line"/>
		</contour>
	</outline>
</glyph>
<glyph name="macron" format="2">
	<advance width="600"/>
	<unicode hex="00AF"/>
	<anchor x="300" y="510" name="_top"/>
	<outline>
		<contour>
			<point x="164" y="640" type="line"/>
			<point x="436" y="640" type="line"/>
			<point x="436" y="690" type="line"/>
			<point x="164" y="690" type="line"/>
		</contour>
	</outline>
</glyph>
<glyph name="degree" format="2">
	<advance width="372"/>
	<unicode hex="00B0"/>
	<outline>
		<contour>
			<point x="50" y="562" type="curve" smooth="yes"/>
			<point x="50" y="484"/>
			<point x="108" y="426"/>
			<point x="186" y="426" type="curve" smooth="yes"/>
			<point x="264" y="426"/>
			<point x="322" y="484"/>
			<point x="322" y="562" type="curve" smooth="yes"/>
			<point x="322" y="640"/>
			<point x="264" y="698"/>
			<point x="186" y="698" type="curve" smooth="yes"/>
			<point x="108" y="698"/>
			<point x="50" y="640"/>
		</contour>
		<contour>
			<point x="100" y="562" type="curve" smooth="yes"/>
			<point x="100" y="616"/>
			<point x="135" y="652"/>
			<point x="186" y="652" type="curve" smooth="yes"/>
			<point x="237" y="652"/>
			<point x="272" y="616"/>
			<point x="272" y="562" type="curve" smooth="yes"/>
			<point x="272" y="508"/>
			<point x="237" y="472"/>
			<point x="186" y="472" type="curve" smooth="yes"/>
			<point x="135" y="472"/>
			<point x="100" y="508"/>
		</contour>
	</outline>
</glyph>
<glyph name="threesuperior" format="2">
	<advance width="362"/>
	<unicode hex="00B3"/>
	<outline>
		<contour>
			<point x="58" y="340" type="line"/>
			<point x="100" y="300"/>
			<point x="142" y="282"/>
			<point x="180" y="282" type="curve" smooth="yes"/>
			<point x="232" y="282"/>
			<point x="298" y="329"/>
			<point x="298" y="400" type="curve" smooth="yes"/>
			<point x="298" y="467"/>
			<point x="261" y="520"/>
			<point x="181" y="520" type="curve" smooth="yes"/>
			<point x="146" y="520" type="line"/>
			<point x="115" y="514" type="line"/>
			<point x="115" y="475" type="line"/>
			<point x="164" y="475" type="line" smooth="yes"/>
			<point x="226" y="475"/>
			<point x="242" y="437"/>
			<point x="242" y="400" type="curve" smooth="yes"/>
			<point x="242" y="359"/>
			<point x="203" y="332"/>
			<point x="180" y="332" type="curve" smooth="yes"/>
			<point x="157" y="332"/>
			<point x="124" y="348"/>
			<point x="96" y="378" type="curve"/>
		</contour>
		<contour>
			<point x="76" y="640" type="line"/>
			<point x="238" y="640" type="line"/>
			<point x="278" y="650" type="line"/>
			<point x="278" y="690" type="line"/>
			<point x="76" y="690" type="line"/>
		</contour>
		<contour>
			<point x="115" y="514" type="line"/>
			<point x="182" y="514" type="line"/>
			<point x="278" y="650" type="line"/>
			<point x="248" y="690" type="line"/>
		</contour>
	</outline>
</glyph>
<glyph name="acute" format="2">
  <advance width="500"/>
  <unicode hex="00B4"/>
  <anchor x="250.0" y="514.0" name="_top"/>
  <outline>
    <contour>
      <point x="208.0" y="589" type="line"/>
      <point x="281.0" y="589" type="line"/>
      <point x="380.0" y="739" type="line"/>
      <point x="278.0" y="739" type="line"/>
    </contour>
  </outline>
</glyph>
<glyph name="cedilla" format="2">
	<advance width="600"/>
	<unicode hex="00B8"/>
	<anchor x="300" y="0" name="_bottom"/>
	<outline>
		<contour>
			<point x="231" y="-224" type="line"/>
			<point x="246" y="-224" type="line" smooth="yes"/>
			<point x="347" y="-224"/>
			<point x="380" y="-178"/>
			<point x="380" y="-136" type="curve" smooth="yes"/>
			<point x="380" y="-105"/>
			<point x="358.22955" y="-73.03826"/>
			<point x="310" y="-65" type="curve"/>
			<point x="324" y="9" type="line"/>
			<point x="284" y="15" type="line"/>
			<point x="262" y="-98" type="line"/>
			<point x="285" y="-100" type="line" smooth="yes"/>
			<point x="316.14868" y="-102.70858"/>
			<point x="328" y="-119"/>
			<point x="328" y="-138" type="curve" smooth="yes"/>
			<point x="328" y="-163"/>
			<point x="310" y="-185"/>
			<point x="240" y="-185" type="curve"/>
		</contour>
	</outline>
</glyph>
<glyph name="onesuperior" format="2">
  <advance width="440"/>
  <unicode hex="00B9"/>
  <outline>
    <contour>
      <point x="94" y="290" type="line"/>
      <point x="370" y="290" type="line"/>
      <point x="370" y="338" type="line"/>
      <point x="94" y="338" type="line"/>
    </contour>
    <contour>
      <point x="78" y="624" type="line"/>
      <point x="98" y="578" type="line"/>
      <point x="239" y="642" type="line"/>
      <point x="222" y="690" type="line"/>
    </contour>
    <contour>
      <point x="204" y="290" type="line"/>
      <point x="260" y="290" type="line"/>
      <point x="260" y="690" type="line"/>
      <point x="222" y="690" type="line"/>
      <point x="204" y="637" type="line"/>
    </contour>
  </outline>
</glyph>
<glyph name="threequarters" format="2">
	<advance width="650"/>
	<unicode hex="00BE"/>
	<outline>
		<component base="threesuperior" xOffset="-48"/>
		<component base="fraction" xOffset="68"/>
		<contour>
			<point x="280" y="149" type="line"/>
			<point x="312" y="111" type="line"/>
			<point x="487" y="400" type="line"/>
			<point x="436" y="400" type="line"/>
		</contour>
		<contour>
			<point x="280" y="111" type="line"/>
			<point x="563" y="111" type="line"/>
			<point x="563" y="160" type="line"/>
			<point x="321" y="160" type="line"/>
			<point x="280" y="149" type="line"/>
		</contour>
		<contour>
			<point x="450" y="0" type="line"/>
			<point x="506" y="0" type="line"/>
			<point x="506" y="400" type="line"/>
			<point x="450" y="400" type="line"/>
		</contour>
	</outline>
</glyph>
<glyph name="questiondown" format="2">
	<advance width="374"/>
	<unicode hex="00BF"/>
	<outline>
		<contour>
			<point x="50" y="-11" type="curve"/>
			<point x="50" y="-110"/>
			<point x="102" y="-193"/>
			<point x="201" y="-193" type="curve"/>
			<point x="271" y="-193"/>
			<point x="321" y="-154"/>
			<point x="359" y="-80" type="curve"/>
			<point x="320" y="-48" type="line"/>
			<point x="283" y="-106"/>
			<point x="256" y="-134"/>
			<point x="206" y="-134" type="curve"/>
			<point x="135" y="-134"/>
			<point x="114" y="-72"/>
			<point x="114" y="-11" type="curve"/>
			<point x="114" y="40"/>
			<point x="109" y="75"/>
			<point x="176" y="119" type="curve" smooth="yes"/>
			<point x="225" y="151"/>
			<point x="239" y="187"/>
			<point x="236" y="242" type="curve" smooth="yes"/>
			<point x="232" y="330" type="line"/>
			<point x="181" y="330" type="line"/>
			<point x="178" y="251" type="line" smooth="yes"/>
			<point x="176" y="211"/>
			<point x="168" y="184"/>
			<point x="136" y="163" type="curve" smooth="yes"/>
			<point x="56" y="110"/>
			<point x="50" y="54"/>
		</contour>
		<contour>
			<point x="165" y="474" type="curve" smooth="yes"/>
			<point x="165" y="449"/>
			<point x="183" y="429"/>
			<point x="208" y="429" type="curve" smooth="yes"/>
			<point x="232" y="429"/>
			<point x="251" y="449"/>
			<point x="251" y="474" type="curve" smooth="yes"/>
			<point x="251" y="498"/>
			<point x="232" y="518"/>
			<point x="208" y="518" type="curve" smooth="yes"/>
			<point x="183" y="518"/>
			<point x="165" y="498"/>
		</contour>
	</outline>
</glyph>
<glyph name="multiply" format="2">
	<advance width="500"/>
	<unicode hex="00D7"/>
	<outline>
		<contour>
			<point x="73" y="447" type="line"/>
			<point x="387" y="93" type="line"/>
			<point x="427" y="133" type="line"/>
			<point x="113" y="487" type="line"/>
		</contour>
		<contour>
			<point x="73" y="132" type="line"/>
			<point x="112" y="93" type="line"/>
			<point x="427" y="448" type="line"/>
			<point x="388" y="487" type="line"/>
		</contour>
	</outline>
</glyph>
<glyph name="Oslash" format="2">
	<advance width="716"/>
	<unicode hex="00D8"/>
	<anchor x="358" y="690" name="top"/>
	<outline>
		<contour>
			<point x="70" y="345" type="curve" smooth="yes"/>
			<point x="70" y="112"/>
			<point x="200" y="-8"/>
			<point x="358" y="-8" type="curve" smooth="yes"/>
			<point x="516" y="-8"/>
			<point x="646" y="112"/>
			<point x="646" y="345" type="curve" smooth="yes"/>
			<point x="646" y="578"/>
			<point x="516" y="698"/>
			<point x="358" y="698" type="curve" smooth="yes"/>
			<point x="200" y="698"/>
			<point x="70" y="578"/>
		</contour>
		<contour>
			<point x="134" y="345" type="curve" smooth="yes"/>
			<point x="134" y="542"/>
			<point x="233" y="641"/>
			<point x="358" y="641" type="curve" smooth="yes"/>
			<point x="483" y="641"/>
			<point x="582" y="542"/>
			<point x="582" y="345" type="curve" smooth="yes"/>
			<point x="582" y="148"/>
			<point x="483" y="49"/>
			<point x="358" y="49" type="curve" smooth="yes"/>
			<point x="233" y="49"/>
			<point x="134" y="148"/>
		</contour>
		<contour>
			<point x="35" y="27" type="line"/>
			<point x="75" y="-10" type="line"/>
			<point x="681" y="661" type="line"/>
			<point x="641" y="698" type="line"/>
		</contour>
	</outline>
</glyph>
<glyph name="germandbls" format="2">
	<advance width="479"/>
	<unicode hex="00DF"/>
	<outline>
		<contour>
			<point x="75" y="0" type="line"/>
			<point x="135" y="0" type="line"/>
			<point x="135" y="554" type="line" smooth="yes"/>
			<point x="135" y="626"/>
			<point x="165" y="673"/>
			<point x="220" y="673" type="curve" smooth="yes"/>
			<point x="269" y="673"/>
			<point x="310" y="630"/>
			<point x="310" y="565" type="curve" smooth="yes"/>
			<point x="310" y="500"/>
			<point x="295" y="450"/>
			<point x="190" y="380" type="curve"/>
			<point x="190" y="330" type="line"/>
			<point x="285" y="270" type="line" smooth="yes"/>
			<point x="359" y="223"/>
			<point x="377" y="178"/>
			<point x="377" y="138" type="curve" smooth="yes"/>
			<point x="377" y="90"/>
			<point x="365" y="47"/>
			<point x="295" y="47" type="curve" smooth="yes"/>
			<point x="245" y="47"/>
			<point x="229" y="64"/>
			<point x="197" y="84" type="curve"/>
			<point x="171" y="30" type="line"/>
			<point x="199" y="14"/>
			<point x="231" y="-8"/>
			<point x="291" y="-8" type="curve" smooth="yes"/>
			<point x="391" y="-8"/>
			<point x="439" y="55"/>
			<point x="439" y="140" type="curve" smooth="yes"/>
			<point x="439" y="200"/>
			<point x="407" y="259"/>
			<point x="315" y="320" type="curve" smooth="yes"/>
			<point x="255" y="360" type="line"/>
			<point x="345" y="420"/>
			<point x="372" y="480"/>
			<point x="372" y="570" type="curve" smooth="yes"/>
			<point x="372" y="665"/>
			<point x="299" y="728"/>
			<point x="220" y="728" type="curve" smooth="yes"/>
			<point x="135" y="728"/>
			<point x="75" y="665"/>
			<point x="75" y="556" type="curve" smooth="yes"/>
		</contour>
	</outline>
</glyph>
<glyph name="ae" format="2">
	<advance width="692"/>
	<unicode hex="00E6"/>
	<anchor x="350" y="515" name="top"/>
	<outline>
		<contour>
			<point x="45" y="121" type="curve"/>
			<point x="45" y="49"/>
			<point x="88" y="-8"/>
			<point x="181" y="-8" type="curve" smooth="yes"/>
			<point x="248" y="-8"/>
			<point x="313" y="40"/>
			<point x="364" y="124" type="curve"/>
			<point x="326" y="150" type="line"/>
			<point x="279" y="78"/>
			<point x="241" y="46"/>
			<point x="191" y="46" type="curve" smooth="yes"/>
			<point x="123" y="46"/>
			<point x="104" y="81"/>
			<point x="104" y="128" type="curve"/>
			<point x="104" y="178"/>
			<point x="134" y="233"/>
			<point x="252" y="248" type="curve" smooth="yes"/>
			<point x="308" y="255" type="line"/>
			<point x="308" y="297" type="line"/>
			<point x="245" y="292" type="line" smooth="yes"/>
			<point x="100" y="280"/>
			<point x="45" y="207"/>
		</contour>
		<contour>
			<point x="53" y="477" type="curve"/>
			<point x="77" y="429" type="line"/>
			<point x="122" y="455"/>
			<point x="141" y="463"/>
			<point x="189" y="463" type="curve"/>
			<point x="266" y="463"/>
			<point x="307" y="423"/>
			<point x="307" y="324" type="curve"/>
			<point x="307" y="260" type="line"/>
			<point x="362" y="260" type="line"/>
			<point x="362" y="320" type="line" smooth="yes"/>
			<point x="362" y="447"/>
			<point x="299" y="518"/>
			<point x="193" y="518" type="curve"/>
			<point x="139" y="518"/>
			<point x="101" y="504"/>
		</contour>
		<contour>
			<point x="307" y="255" type="curve" smooth="yes"/>
			<point x="307" y="81"/>
			<point x="379" y="-8"/>
			<point x="483" y="-8" type="curve" smooth="yes"/>
			<point x="540" y="-8"/>
			<point x="582" y="13"/>
			<point x="625" y="55" type="curve"/>
			<point x="591" y="97" type="line"/>
			<point x="560" y="66"/>
			<point x="531" y="48"/>
			<point x="482" y="48" type="curve" smooth="yes"/>
			<point x="409" y="48"/>
			<point x="362" y="111"/>
			<point x="362" y="255" type="curve" smooth="yes"/>
			<point x="362" y="395"/>
			<point x="407" y="463"/>
			<point x="477" y="463" type="curve" smooth="yes"/>
			<point x="558" y="463"/>
			<point x="592" y="402"/>
			<point x="592" y="270" type="curve"/>
			<point x="605" y="294" type="line"/>
			<point x="345" y="294" type="line"/>
			<point x="345" y="244" type="line"/>
			<point x="645" y="244" type="line"/>
			<point x="646" y="254"/>
			<point x="647" y="267"/>
			<point x="647" y="280" type="curve" smooth="yes"/>
			<point x="647" y="431"/>
			<point x="589" y="518"/>
			<point x="477" y="518" type="curve" smooth="yes"/>
			<point x="376" y="518"/>
			<point x="307" y="425"/>
		</contour>
	</outline>
</glyph>
<glyph name="eth" format="2">
	<advance width="475"/>
	<unicode hex="00F0"/>
	<outline>
		<contour>
			<point x="45" y="235" type="curve" smooth="yes"/>
			<point x="45" y="76"/>
			<point x="137" y="-8"/>
			<point x="236" y="-8" type="curve" smooth="yes"/>
			<point x="335" y="-8"/>
			<point x="424" y="86"/>
			<point x="425" y="260" type="curve" smooth="yes"/>
			<point x="426" y="460"/>
			<point x="330" y="630"/>
			<point x="215" y="720" type="curve"/>
			<point x="130" y="720" type="line"/>
			<point x="285" y="605"/>
			<point x="365" y="440"/>
			<point x="365" y="260" type="curve" smooth="yes"/>
			<point x="365" y="123"/>
			<point x="305" y="47"/>
			<point x="236" y="47" type="curve" smooth="yes"/>
			<point x="166" y="47"/>
			<point x="105" y="112"/>
			<point x="105" y="235" type="curve" smooth="yes"/>
			<point x="105" y="358"/>
			<point x="167" y="423"/>
			<point x="236" y="423" type="curve" smooth="yes"/>
			<point x="286" y="423"/>
			<point x="340" y="378"/>
			<point x="370" y="310" type="curve"/>
			<point x="370" y="370" type="line"/>
			<point x="347" y="425"/>
			<point x="302" y="478"/>
			<point x="226" y="478" type="curve" smooth="yes"/>
			<point x="137" y="478"/>
			<point x="45" y="394"/>
		</contour>
		<contour>
			<point x="145" y="544" type="line"/>
			<point x="395" y="684" type="line"/>
			<point x="371" y="728" type="line"/>
			<point x="121" y="588" type="line"/>
		</contour>
	</outline>
</glyph>
<glyph name="divide" format="2">
  <advance width="600"/>
  <unicode hex="00F7"/>
  <outline>
    <contour>
      <point x="79.0" y="263" type="line"/>
      <point x="521.0" y="263" type="line"/>
      <point x="521.0" y="317" type="line"/>
      <point x="79.0" y="317" type="line"/>
    </contour>
    <contour>
      <point x="257.0" y="106" type="curve" smooth="yes"/>
      <point x="257.0" y="82"/>
      <point x="276.0" y="62"/>
      <point x="300.0" y="62" type="curve" smooth="yes"/>
      <point x="325.0" y="62"/>
      <point x="343.0" y="82"/>
      <point x="343.0" y="106" type="curve" smooth="yes"/>
      <point x="343.0" y="131"/>
      <point x="325.0" y="151"/>
      <point x="300.0" y="151" type="curve" smooth="yes"/>
      <point x="276.0" y="151"/>
      <point x="257.0" y="131"/>
    </contour>
    <contour>
      <point x="257.0" y="473" type="curve" smooth="yes"/>
      <point x="257.0" y="449"/>
      <point x="276.0" y="429"/>
      <point x="300.0" y="429" type="curve" smooth="yes"/>
      <point x="325.0" y="429"/>
      <point x="343.0" y="449"/>
      <point x="343.0" y="473" type="curve" smooth="yes"/>
      <point x="343.0" y="498"/>
      <point x="325.0" y="518"/>
      <point x="300.0" y="518" type="curve" smooth="yes"/>
      <point x="276.0" y="518"/>
      <point x="257.0" y="498"/>
    </contour>
  </outline>
</glyph>
<glyph name="oslash" format="2">
	<advance width="544"/>
	<unicode hex="00F8"/>
	<anchor x="272" y="510" name="top"/>
	<outline>
		<contour>
			<point x="60" y="255" type="curve" smooth="yes"/>
			<point x="60" y="84"/>
			<point x="152" y="-8"/>
			<point x="272" y="-8" type="curve" smooth="yes"/>
			<point x="392" y="-8"/>
			<point x="484" y="84"/>
			<point x="484" y="255" type="curve" smooth="yes"/>
			<point x="484" y="426"/>
			<point x="392" y="518"/>
			<point x="272" y="518" type="curve" smooth="yes"/>
			<point x="152" y="518"/>
			<point x="60" y="426"/>
		</contour>
		<contour>
			<point x="121" y="255" type="curve" smooth="yes"/>
			<point x="121" y="396"/>
			<point x="183" y="463"/>
			<point x="272" y="463" type="curve" smooth="yes"/>
			<point x="361" y="463"/>
			<point x="423" y="396"/>
			<point x="423" y="255" type="curve" smooth="yes"/>
			<point x="423" y="114"/>
			<point x="361" y="47"/>
			<point x="272" y="47" type="curve" smooth="yes"/>
			<point x="183" y="47"/>
			<point x="121" y="114"/>
		</contour>
		<contour>
			<point x="25" y="27" type="line"/>
			<point x="65" y="-10" type="line"/>
			<point x="519" y="481" type="line"/>
			<point x="479" y="518" type="line"/>
		</contour>
	</outline>
</glyph>
<glyph name="thorn" format="2">
	<advance width="561"/>
	<unicode hex="00FE"/>
	<outline>
		<contour>
			<point x="95" y="-196" type="line"/>
			<point x="155" y="-182" type="line"/>
			<point x="155" y="731" type="line"/>
			<point x="95" y="717" type="line"/>
		</contour>
		<contour>
			<point x="127" y="193" type="line"/>
			<point x="127" y="65"/>
			<point x="202" y="-8"/>
			<point x="297" y="-8" type="curve" smooth="yes"/>
			<point x="408" y="-8"/>
			<point x="501" y="73"/>
			<point x="501" y="260" type="curve" smooth="yes"/>
			<point x="501" y="435"/>
			<point x="416" y="518"/>
			<point x="313" y="518" type="curve" smooth="yes"/>
			<point x="248" y="518"/>
			<point x="179" y="475"/>
			<point x="140" y="417" type="curve"/>
			<point x="140" y="366" type="line"/>
			<point x="183" y="427"/>
			<point x="244" y="463"/>
			<point x="305" y="463" type="curve" smooth="yes"/>
			<point x="376" y="463"/>
			<point x="440" y="404"/>
			<point x="440" y="255" type="curve" smooth="yes"/>
			<point x="440" y="103"/>
			<point x="378" y="44"/>
			<point x="293" y="44" type="curve" smooth="yes"/>
			<point x="215" y="44"/>
			<point x="155" y="97"/>
			<point x="155" y="200" type="curve"/>
		</contour>
	</outline>
</glyph>
<glyph name="Dcroat" format="2">
	<advance width="531"/>
	<unicode hex="0110"/>
	<outline>
		<contour>
			<point x="30" y="315" type="line"/>
			<point x="272" y="315" type="line"/>
			<point x="272" y="369" type="line"/>
			<point x="30" y="369" type="line"/>
		</contour>
		<contour>
			<point x="90" y="0" type="line"/>
			<point x="152" y="0" type="line"/>
			<point x="152" y="690" type="line"/>
			<point x="90" y="690" type="line"/>
		</contour>
		<contour>
			<point x="120" y="0" type="line"/>
			<point x="214" y="0" type="line" smooth="yes"/>
			<point x="372" y="0"/>
			<point x="486" y="112"/>
			<point x="486" y="345" type="curve" smooth="yes"/>
			<point x="486" y="578"/>
			<point x="372" y="690"/>
			<point x="214" y="690" type="curve" smooth="yes"/>
			<point x="120" y="690" type="line"/>
			<point x="120" y="636" type="line"/>
			<point x="209" y="636" type="line" smooth="yes"/>
			<point x="337" y="636"/>
			<point x="422" y="542"/>
			<point x="422" y="345" type="curve" smooth="yes"/>
			<point x="422" y="148"/>
			<point x="337" y="54"/>
			<point x="209" y="54" type="curve" smooth="yes"/>
			<point x="120" y="54" type="line"/>
		</contour>
	</outline>
</glyph>
<glyph name="eogonek" format="2">
	<advance width="446"/>
	<unicode hex="0119"/>
	<outline>
		<contour>
			<point x="45" y="255" type="curve" smooth="yes"/>
			<point x="45" y="81"/>
			<point x="119" y="-8"/>
			<point x="243" y="-8" type="curve" smooth="yes"/>
			<point x="300" y="-8"/>
			<point x="325" y="13"/>
			<point x="373" y="55" type="curve"/>
			<point x="342" y="95" type="line"/>
			<point x="313" y="70"/>
			<point x="281" y="48"/>
			<point x="242" y="48" type="curve" smooth="yes"/>
			<point x="149" y="48"/>
			<point x="106" y="111"/>
			<point x="106" y="255" type="curve" smooth="yes"/>
			<point x="106" y="395"/>
			<point x="150" y="463"/>
			<point x="230" y="463" type="curve" smooth="yes"/>
			<point x="301" y="463"/>
			<point x="344" y="402"/>
			<point x="344" y="270" type="curve"/>
			<point x="357" y="294" type="line"/>
			<point x="89" y="294" type="line"/>
			<point x="89" y="244" type="line"/>
			<point x="399" y="244" type="line"/>
			<point x="400" y="254"/>
			<point x="401" y="267"/>
			<point x="401" y="280" type="curve" smooth="yes"/>
			<point x="401" y="431"/>
			<point x="332" y="518"/>
			<point x="230" y="518" type="curve" smooth="yes"/>
			<point x="119" y="518"/>
			<point x="45" y="425"/>
		</contour>
		<contour>
			<point x="193" y="-108" type="curve" smooth="yes"/>
			<point x="193" y="-160"/>
			<point x="233" y="-193"/>
			<point x="283" y="-193" type="curve" smooth="yes"/>
			<point x="315" y="-193"/>
			<point x="339" y="-184"/>
			<point x="363" y="-170" type="curve"/>
			<point x="347" y="-132" type="line"/>
			<point x="331" y="-141"/>
			<point x="311" y="-149"/>
			<point x="288" y="-149" type="curve" smooth="yes"/>
			<point x="258" y="-149"/>
			<point x="239" y="-130"/>
			<point x="239" y="-100" type="curve" smooth="yes"/>
			<point x="239" y="-60"/>
			<point x="303" y="-10"/>
			<point x="373" y="55" type="curve"/>
			<point x="285" y="0" type="line"/>
			<point x="255" y="-20"/>
			<point x="193" y="-62"/>
		</contour>
	</outline>
</glyph>
<glyph name="Hbar" format="2">
	<advance width="616"/>
	<unicode hex="0126"/>
	<outline>
		<contour>
			<point x="105" y="0" type="line"/>
			<point x="167" y="0" type="line"/>
			<point x="167" y="690" type="line"/>
			<point x="105" y="690" type="line"/>
		</contour>
		<contour>
			<point x="135" y="321" type="line"/>
			<point x="481" y="321" type="line"/>
			<point x="481" y="375" type="line"/>
			<point x="135" y="375" type="line"/>
		</contour>
		<contour>
			<point x="449" y="0" type="line"/>
			<point x="511" y="0" type="line"/>
			<point x="511" y="690" type="line"/>
			<point x="449" y="690" type="line"/>
		</contour>
		<contour>
			<point x="30" y="526" type="line"/>
			<point x="586" y="526" type="line"/>
			<point x="586" y="580" type="line"/>
			<point x="30" y="580" type="line"/>
		</contour>
	</outline>
</glyph>
<glyph name="hbar" format="2">
	<advance width="465"/>
	<unicode hex="0127"/>
	<outline>
		<contour>
			<point x="75" y="0" type="line"/>
			<point x="135" y="0" type="line"/>
			<point x="135" y="731" type="line"/>
			<point x="75" y="717" type="line"/>
		</contour>
		<contour>
			<point x="120" y="368" type="line"/>
			<point x="164" y="427"/>
			<point x="188" y="463"/>
			<point x="251" y="463" type="curve" smooth="yes"/>
			<point x="314" y="463"/>
			<point x="335" y="423"/>
			<point x="335" y="330" type="curve" smooth="yes"/>
			<point x="335" y="0" type="line"/>
			<point x="395" y="0" type="line"/>
			<point x="395" y="335" type="line" smooth="yes"/>
			<point x="395" y="453"/>
			<point x="350" y="518"/>
			<point x="259" y="518" type="curve" smooth="yes"/>
			<point x="192" y="518"/>
			<point x="160" y="475"/>
			<point x="120" y="417" type="curve"/>
		</contour>
		<contour>
			<point x="20" y="585" type="line"/>
			<point x="255" y="585" type="line"/>
			<point x="255" y="635" type="line"/>
			<point x="20" y="635" type="line"/>
		</contour>
	</outline>
</glyph>
<glyph name="dotlessi" format="2">
	<advance width="250"/>
	<unicode hex="0131"/>
	<anchor x="125" y="510" name="top"/>
	<outline>
		<contour>
			<point x="95" y="0" type="line"/>
			<point x="155" y="0" type="line"/>
			<point x="155" y="510" type="line"/>
			<point x="95" y="510" type="line"/>
		</contour>
	</outline>
</glyph>
<glyph name="IJ" format="2">
	<advance width="646"/>
	<unicode hex="0132"/>
	<outline>
		<contour>
			<point x="110" y="0" type="line"/>
			<point x="172" y="0" type="line"/>
			<point x="172" y="690" type="line"/>
			<point x="110" y="690" type="line"/>
		</contour>
		<contour>
			<point x="262" y="27" type="line"/>
			<point x="298" y="3"/>
			<point x="338" y="-8"/>
			<point x="382" y="-8" type="curve" smooth="yes"/>
			<point x="486" y="-8"/>
			<point x="546" y="68"/>
			<point x="546" y="215" type="curve" smooth="yes"/>
			<point x="546" y="690" type="line"/>
			<point x="484" y="690" type="line"/>
			<point x="484" y="220" type="line" smooth="yes"/>
			<point x="484" y="106"/>
			<point x="452" y="49"/>
			<point x="382" y="49" type="curve" smooth="yes"/>
			<point x="347" y="49"/>
			<point x="315" y="60"/>
			<point x="290" y="77" type="curve"/>
		</contour>
	</outline>
</glyph>
<glyph name="kra" format="2">
	<advance width="433"/>
	<unicode hex="0138"/>
	<outline>
		<contour>
			<point x="75" y="0" type="line"/>
			<point x="135" y="0" type="line"/>
			<point x="135" y="510" type="line"/>
			<point x="75" y="510" type="line"/>
		</contour>
		<contour>
			<point x="129" y="186" type="line"/>
			<point x="406" y="510" type="line"/>
			<point x="338" y="510" type="line"/>
			<point x="129" y="269" type="line"/>
		</contour>
		<contour>
			<point x="180" y="279" type="line"/>
			<point x="355" y="0" type="line"/>
			<point x="423" y="0" type="line"/>
			<point x="220" y="318" type="line"/>
		</contour>
	</outline>
</glyph>
<glyph name="Lslash" format="2">
	<advance width="412"/>
	<unicode hex="0141"/>
	<outline>
		<contour>
			<point x="85" y="0" type="line"/>
			<point x="147" y="0" type="line"/>
			<point x="147" y="690" type="line"/>
			<point x="85" y="690" type="line"/>
		</contour>
		<contour>
			<point x="115" y="0" type="line"/>
			<point x="377" y="0" type="line"/>
			<point x="377" y="54" type="line"/>
			<point x="115" y="54" type="line"/>
		</contour>
		<contour>
			<point x="30" y="220" type="line"/>
			<point x="257" y="360" type="line"/>
			<point x="257" y="420" type="line"/>
			<point x="30" y="280" type="line"/>
		</contour>
	</outline>
</glyph>
<glyph name="lslash" format="2">
	<advance width="240"/>
	<unicode hex="0142"/>
	<outline>
		<contour>
			<point x="90" y="0" type="line"/>
			<point x="150" y="0" type="line"/>
			<point x="150" y="731" type="line"/>
			<point x="90" y="717" type="line"/>
		</contour>
		<contour>
			<point x="30" y="230" type="line"/>
			<point x="215" y="346" type="line"/>
			<point x="215" y="404" type="line"/>
			<point x="30" y="288" type="line"/>
		</contour>
	</outline>
</glyph>
<glyph name="Eng" format="2">
	<advance width="576"/>
	<unicode hex="014A"/>
	<outline>
		<contour>
			<point x="110" y="0" type="line"/>
			<point x="172" y="0" type="line"/>
			<point x="172" y="690" type="line"/>
			<point x="110" y="690" type="line"/>
		</contour>
		<contour>
			<point x="133" y="690" type="line"/>
			<point x="404" y="0" type="line"/>
			<point x="452" y="14" type="line"/>
			<point x="195" y="690" type="line"/>
		</contour>
		<contour>
			<point x="262" y="-177" type="line"/>
			<point x="282" y="-187"/>
			<point x="310" y="-193"/>
			<point x="332" y="-193" type="curve"/>
			<point x="413" y="-193"/>
			<point x="466" y="-136"/>
			<point x="466" y="-48" type="curve" smooth="yes"/>
			<point x="466" y="690" type="line"/>
			<point x="404" y="690" type="line"/>
			<point x="404" y="-47" type="line" smooth="yes"/>
			<point x="404" y="-112"/>
			<point x="376" y="-138"/>
			<point x="330" y="-138" type="curve"/>
			<point x="311" y="-138"/>
			<point x="293" y="-134"/>
			<point x="275" y="-126" type="curve"/>
		</contour>
	</outline>
</glyph>
<glyph name="eng" format="2">
	<advance width="575"/>
	<unicode hex="014B"/>
	<outline>
		<contour>
			<point x="84" y="510" type="line"/>
			<point x="90" y="471" type="line" smooth="yes"/>
			<point x="94" y="442"/>
			<point x="95" y="421"/>
			<point x="95" y="388" type="curve" smooth="yes"/>
			<point x="95" y="0" type="line"/>
			<point x="155" y="0" type="line"/>
			<point x="155" y="407" type="line"/>
			<point x="139" y="510" type="line"/>
		</contour>
		<contour>
			<point x="281" y="-177" type="line"/>
			<point x="301" y="-187"/>
			<point x="329" y="-193"/>
			<point x="351" y="-193" type="curve" smooth="yes"/>
			<point x="432" y="-193"/>
			<point x="485" y="-136"/>
			<point x="485" y="-48" type="curve" smooth="yes"/>
			<point x="485" y="325" type="line" smooth="yes"/>
			<point x="485" y="453"/>
			<point x="409" y="518"/>
			<point x="318" y="518" type="curve"/>
			<point x="251" y="518"/>
			<point x="180" y="475"/>
			<point x="140" y="417" type="curve"/>
			<point x="140" y="366" type="line"/>
			<point x="184" y="427"/>
			<point x="247" y="463"/>
			<point x="310" y="463" type="curve"/>
			<point x="373" y="463"/>
			<point x="425" y="423"/>
			<point x="425" y="320" type="curve" smooth="yes"/>
			<point x="425" y="-47" type="line" smooth="yes"/>
			<point x="425" y="-112"/>
			<point x="395" y="-138"/>
			<point x="349" y="-138" type="curve" smooth="yes"/>
			<point x="330" y="-138"/>
			<point x="312" y="-134"/>
			<point x="294" y="-126" type="curve"/>
		</contour>
	</outline>
</glyph>
<glyph name="oe" format="1">
  <advance width="743"/>
  <unicode hex="0153"/>
  <outline>
    <contour>
      <point x="43" y="257" type="curve" smooth="yes"/>
      <point x="43" y="83"/>
      <point x="116" y="-10"/>
      <point x="222" y="-10" type="curve" smooth="yes"/>
      <point x="327" y="-10"/>
      <point x="405" y="78"/>
      <point x="405" y="257" type="curve" smooth="yes"/>
      <point x="405" y="435"/>
      <point x="331.47826086956525" y="524.0"/>
      <point x="227" y="524" type="curve" smooth="yes"/>
      <point x="117.42696629213484" y="524.0"/>
      <point x="43.0" y="430.0"/>
    </contour>
    <contour>
      <point x="128" y="257" type="curve" smooth="yes"/>
      <point x="128.0" y="378.0"/>
      <point x="170" y="446"/>
      <point x="229" y="446" type="curve" smooth="yes"/>
      <point x="292" y="446"/>
      <point x="332" y="378"/>
      <point x="332" y="257" type="curve" smooth="yes"/>
      <point x="332" y="136"/>
      <point x="292" y="68"/>
      <point x="229" y="68" type="curve" smooth="yes"/>
      <point x="170" y="68"/>
      <point x="128.0" y="136.0"/>
    </contour>
    <contour>
      <point x="352" y="252" type="curve" smooth="yes"/>
      <point x="352" y="76"/>
      <point x="437" y="-11"/>
      <point x="543" y="-11" type="curve" smooth="yes"/>
      <point x="592" y="-11"/>
      <point x="650" y="14"/>
      <point x="687" y="48" type="curve"/>
      <point x="640" y="107" type="line"/>
      <point x="617" y="86"/>
      <point x="585" y="70"/>
      <point x="549" y="70" type="curve" smooth="yes"/>
      <point x="479" y="70"/>
      <point x="425" y="132"/>
      <point x="425" y="251" type="curve" smooth="yes"/>
      <point x="425" y="379"/>
      <point x="467" y="446"/>
      <point x="526" y="446" type="curve" smooth="yes"/>
      <point x="577" y="446"/>
      <point x="615" y="397"/>
      <point x="615" y="267" type="curve"/>
      <point x="632" y="303" type="line"/>
      <point x="408" y="303" type="line"/>
      <point x="408" y="231" type="line"/>
      <point x="698" y="231" type="line"/>
      <point x="699" y="243"/>
      <point x="700" y="255"/>
      <point x="700" y="266" type="curve" smooth="yes"/>
      <point x="700" y="439"/>
      <point x="626" y="524"/>
      <point x="529" y="524" type="curve" smooth="yes"/>
      <point x="431" y="524"/>
      <point x="352" y="432"/>
    </contour>
  </outline>
</glyph>
<glyph name="Tbar" format="2">
	<advance width="454"/>
	<unicode hex="0166"/>
	<outline>
		<contour>
			<point x="30" y="636" type="line"/>
			<point x="424" y="636" type="line"/>
			<point x="424" y="690" type="line"/>
			<point x="30" y="690" type="line"/>
		</contour>
		<contour>
			<point x="196" y="0" type="line"/>
			<point x="258" y="0" type="line"/>
			<point x="258" y="690" type="line"/>
			<point x="196" y="690" type="line"/>
		</contour>
		<contour>
			<point x="96" y="306" type="line"/>
			<point x="358" y="306" type="line"/>
			<point x="358" y="360" type="line"/>
			<point x="96" y="360" type="line"/>
		</contour>
	</outline>
</glyph>
<glyph name="tbar" format="2">
	<advance width="310"/>
	<unicode hex="0167"/>
	<outline>
		<contour>
			<point x="25" y="460" type="line"/>
			<point x="277" y="460" type="line"/>
			<point x="277" y="510" type="line"/>
			<point x="25" y="510" type="line"/>
		</contour>
		<contour>
			<point x="98" y="135" type="line" smooth="yes"/>
			<point x="98" y="44"/>
			<point x="130" y="-8"/>
			<point x="209" y="-8" type="curve"/>
			<point x="238" y="-8"/>
			<point x="255" y="-4"/>
			<point x="280" y="9" type="curve"/>
			<point x="266" y="57" type="line"/>
			<point x="246" y="49"/>
			<point x="235" y="47"/>
			<point x="215" y="47" type="curve"/>
			<point x="169" y="47"/>
			<point x="158" y="73"/>
			<point x="158" y="138" type="curve" smooth="yes"/>
			<point x="158" y="654" type="line"/>
			<point x="98" y="640" type="line"/>
		</contour>
		<contour>
			<point x="25" y="250" type="line"/>
			<point x="277" y="250" type="line"/>
			<point x="277" y="300" type="line"/>
			<point x="25" y="300" type="line"/>
		</contour>
	</outline>
</glyph>
<glyph name="Uogonek" format="2">
  <advance width="569"/>
  <unicode hex="0172"/>
  <outline>
    <contour>
      <point x="405" y="-170" type="curve"/>
      <point x="387" y="-123" type="line"/>
      <point x="376" y="-131"/>
      <point x="363" y="-140"/>
      <point x="346" y="-140" type="curve" smooth="yes"/>
      <point x="330" y="-140"/>
      <point x="317" y="-125"/>
      <point x="317" y="-101" type="curve" smooth="yes"/>
      <point x="317" y="-66"/>
      <point x="343" y="-29"/>
      <point x="411" y="34" type="curve" smooth="yes"/>
      <point x="465" y="80"/>
      <point x="500" y="150"/>
      <point x="500" y="249" type="curve" smooth="yes"/>
      <point x="500" y="690" type="line"/>
      <point x="412" y="690" type="line"/>
      <point x="412" y="258" type="line" smooth="yes"/>
      <point x="412" y="141"/>
      <point x="361" y="76"/>
      <point x="285" y="76" type="curve" smooth="yes"/>
      <point x="210" y="76"/>
      <point x="159" y="141"/>
      <point x="159" y="258" type="curve" smooth="yes"/>
      <point x="159" y="690" type="line"/>
      <point x="69" y="690" type="line"/>
      <point x="69" y="249" type="line" smooth="yes"/>
      <point x="69" y="83"/>
      <point x="163" y="-10"/>
      <point x="284" y="-10" type="curve" smooth="yes"/>
      <point x="292" y="-10"/>
      <point x="300" y="-9"/>
      <point x="308" y="-8" type="curve"/>
      <point x="281" y="-32"/>
      <point x="260" y="-69"/>
      <point x="260" y="-110" type="curve" smooth="yes"/>
      <point x="260" y="-162"/>
      <point x="294" y="-195"/>
      <point x="338" y="-195" type="curve" smooth="yes"/>
      <point x="365" y="-195"/>
      <point x="386" y="-185"/>
    </contour>
  </outline>
</glyph>
<glyph name="Schwa" format="2">
	<advance width="546"/>
	<unicode hex="018F"/>
	<outline>
		<contour>
			<point x="45" y="325" type="curve" smooth="yes"/>
			<point x="45" y="132"/>
			<point x="118" y="-10"/>
			<point x="279" y="-10" type="curve" smooth="yes"/>
			<point x="410" y="-10"/>
			<point x="501" y="132"/>
			<point x="501" y="345" type="curve" smooth="yes"/>
			<point x="501" y="578"/>
			<point x="400" y="700"/>
			<point x="259" y="700" type="curve" smooth="yes"/>
			<point x="186" y="700"/>
			<point x="139" y="679"/>
			<point x="77" y="636" type="curve"/>
			<point x="107" y="587" type="line"/>
			<point x="158" y="622"/>
			<point x="197" y="640"/>
			<point x="255" y="640" type="curve" smooth="yes"/>
			<point x="373" y="640"/>
			<point x="437" y="541"/>
			<point x="437" y="345" type="curve" smooth="yes"/>
			<point x="437" y="169"/>
			<point x="382" y="50"/>
			<point x="279" y="50" type="curve" smooth="yes"/>
			<point x="145" y="50"/>
			<point x="106" y="169"/>
			<point x="106" y="334" type="curve"/>
			<point x="91" y="300" type="line"/>
			<point x="471" y="300" type="line"/>
			<point x="471" y="360" type="line"/>
			<point x="47" y="360" type="line"/>
			<point x="46" y="350"/>
			<point x="45" y="335"/>
		</contour>
	</outline>
</glyph>
<glyph name="florin" format="2">
	<advance width="600"/>
	<unicode hex="0192"/>
	<outline>
		<contour>
			<point x="109" y="-177" type="line"/>
			<point x="129" y="-187"/>
			<point x="157" y="-193"/>
			<point x="179" y="-193" type="curve"/>
			<point x="260" y="-193"/>
			<point x="313" y="-136"/>
			<point x="313" y="-48" type="curve" smooth="yes"/>
			<point x="313" y="572" type="line" smooth="yes"/>
			<point x="313" y="645"/>
			<point x="344" y="674"/>
			<point x="397" y="674" type="curve"/>
			<point x="421" y="674"/>
			<point x="444" y="668"/>
			<point x="472" y="654" type="curve"/>
			<point x="486" y="704" type="line"/>
			<point x="462" y="718"/>
			<point x="425" y="728"/>
			<point x="392" y="728" type="curve"/>
			<point x="309" y="728"/>
			<point x="253" y="675"/>
			<point x="253" y="575" type="curve" smooth="yes"/>
			<point x="253" y="-47" type="line" smooth="yes"/>
			<point x="253" y="-112"/>
			<point x="223" y="-138"/>
			<point x="177" y="-138" type="curve"/>
			<point x="158" y="-138"/>
			<point x="140" y="-134"/>
			<point x="122" y="-126" type="curve"/>
		</contour>
		<contour>
			<point x="160" y="460" type="line"/>
			<point x="460" y="460" type="line"/>
			<point x="460" y="510" type="line"/>
			<point x="160" y="510" type="line"/>
		</contour>
	</outline>
</glyph>
<glyph name="Nhookleft" format="2">
	<advance width="726"/>
	<unicode hex="019D"/>
	<outline>
		<contour>
			<point x="-32" y="-177" type="line"/>
			<point x="-12" y="-187"/>
			<point x="16" y="-193"/>
			<point x="38" y="-193" type="curve" smooth="yes"/>
			<point x="119" y="-193"/>
			<point x="172" y="-136"/>
			<point x="172" y="-48" type="curve" smooth="yes"/>
			<point x="172" y="690" type="line"/>
			<point x="110" y="690" type="line"/>
			<point x="110" y="-47" type="line" smooth="yes"/>
			<point x="110" y="-112"/>
			<point x="82" y="-138"/>
			<point x="36" y="-138" type="curve" smooth="yes"/>
			<point x="17" y="-138"/>
			<point x="-1" y="-134"/>
			<point x="-19" y="-126" type="curve"/>
		</contour>
		<contour>
			<point x="128" y="690" type="line"/>
			<point x="531" y="0" type="line"/>
			<point x="598" y="0" type="line"/>
			<point x="195" y="690" type="line"/>
		</contour>
		<contour>
			<point x="554" y="0" type="line"/>
			<point x="616" y="0" type="line"/>
			<point x="616" y="690" type="line"/>
			<point x="554" y="690" type="line"/>
		</contour>
	</outline>
</glyph>
<glyph name="dotlessj" format="2">
  <advance width="234"/>
  <unicode hex="0237"/>
  <anchor x="117.0" y="514.0" name="top"/>
  <outline>
    <contour>
      <point x="-45" y="-181" type="line"/>
      <point x="-26" y="-189"/>
      <point x="-1" y="-195"/>
      <point x="22" y="-195" type="curve"/>
      <point x="103" y="-195"/>
      <point x="161" y="-134"/>
      <point x="161" y="-37" type="curve" smooth="yes"/>
      <point x="161" y="514" type="line"/>
      <point x="73" y="514" type="line"/>
      <point x="73" y="-33" type="line" smooth="yes"/>
      <point x="73" y="-91"/>
      <point x="51" y="-118"/>
      <point x="13" y="-118" type="curve"/>
      <point x="-3" y="-118"/>
      <point x="-17" y="-114"/>
      <point x="-31" y="-109" type="curve"/>
    </contour>
  </outline>
</glyph>
<glyph name="ipa:schwa" format="2">
	<advance width="426"/>
	<unicode hex="0259"/>
	<outline>
		<contour>
			<point x="45" y="230" type="curve" smooth="yes"/>
			<point x="45" y="102"/>
			<point x="94" y="-8"/>
			<point x="206" y="-8" type="curve" smooth="yes"/>
			<point x="327" y="-8"/>
			<point x="381" y="108"/>
			<point x="381" y="255" type="curve" smooth="yes"/>
			<point x="381" y="429"/>
			<point x="309" y="518"/>
			<point x="203" y="518" type="curve" smooth="yes"/>
			<point x="146" y="518"/>
			<point x="111" y="502"/>
			<point x="63" y="465" type="curve"/>
			<point x="99" y="421" type="line"/>
			<point x="135" y="447"/>
			<point x="155" y="462"/>
			<point x="204" y="462" type="curve" smooth="yes"/>
			<point x="279" y="462"/>
			<point x="320" y="399"/>
			<point x="320" y="255" type="curve" smooth="yes"/>
			<point x="320" y="138"/>
			<point x="296" y="47"/>
			<point x="206" y="47" type="curve" smooth="yes"/>
			<point x="125" y="47"/>
			<point x="102" y="131"/>
			<point x="102" y="240" type="curve"/>
			<point x="89" y="216" type="line"/>
			<point x="337" y="216" type="line"/>
			<point x="337" y="266" type="line"/>
			<point x="47" y="266" type="line"/>
			<point x="46" y="256"/>
			<point x="45" y="243"/>
		</contour>
	</outline>
</glyph>
<glyph name="circumflex" format="2">
	<advance width="600"/>
	<unicode hex="02C6"/>
	<anchor x="300" y="510" name="_top"/>
	<anchor x="300" y="706" name="top"/>
	<outline>
		<contour>
			<point x="175" y="585" type="line"/>
			<point x="230" y="585" type="line"/>
			<point x="331" y="735" type="line"/>
			<point x="264" y="735" type="line"/>
		</contour>
		<contour>
			<point x="269" y="735" type="line"/>
			<point x="370" y="585" type="line"/>
			<point x="425" y="585" type="line"/>
			<point x="336" y="735" type="line"/>
		</contour>
	</outline>
</glyph>
<glyph name="breve" format="2">
	<advance width="600"/>
	<unicode hex="02D8"/>
	<anchor x="300" y="510" name="_top"/>
	<outline>
		<contour>
			<point x="174" y="730" type="line"/>
			<point x="182" y="650"/>
			<point x="225" y="595"/>
			<point x="300" y="595" type="curve" smooth="yes"/>
			<point x="375" y="595"/>
			<point x="418" y="650"/>
			<point x="426" y="730" type="curve"/>
			<point x="376" y="730" type="line"/>
			<point x="370" y="670"/>
			<point x="340" y="645"/>
			<point x="300" y="645" type="curve" smooth="yes"/>
			<point x="260" y="645"/>
			<point x="230" y="670"/>
			<point x="224" y="730" type="curve"/>
		</contour>
	</outline>
</glyph>
<glyph name="dotaccent" format="2">
	<advance width="600"/>
	<unicode hex="02D9"/>
	<anchor x="300" y="510" name="_top"/>
	<outline>
		<contour>
			<point x="257" y="683" type="curve" smooth="yes"/>
			<point x="257" y="659"/>
			<point x="276" y="639"/>
			<point x="300" y="639" type="curve" smooth="yes"/>
			<point x="325" y="639"/>
			<point x="343" y="659"/>
			<point x="343" y="683" type="curve" smooth="yes"/>
			<point x="343" y="708"/>
			<point x="325" y="728"/>
			<point x="300" y="728" type="curve" smooth="yes"/>
			<point x="276" y="728"/>
			<point x="257" y="708"/>
		</contour>
	</outline>
</glyph>
<glyph name="ring" format="2">
	<advance width="600"/>
	<unicode hex="02DA"/>
	<anchor x="300" y="510" name="_top"/>
	<outline>
		<contour>
			<point x="195" y="690" type="curve" smooth="yes"/>
			<point x="195" y="628"/>
			<point x="241" y="585"/>
			<point x="300" y="585" type="curve" smooth="yes"/>
			<point x="359" y="585"/>
			<point x="405" y="628"/>
			<point x="405" y="690" type="curve" smooth="yes"/>
			<point x="405" y="752"/>
			<point x="359" y="795"/>
			<point x="300" y="795" type="curve" smooth="yes"/>
			<point x="241" y="795"/>
			<point x="195" y="752"/>
		</contour>
		<contour>
			<point x="241" y="690" type="curve" smooth="yes"/>
			<point x="241" y="728"/>
			<point x="264" y="755"/>
			<point x="300" y="755" type="curve" smooth="yes"/>
			<point x="336" y="755"/>
			<point x="359" y="728"/>
			<point x="359" y="690" type="curve" smooth="yes"/>
			<point x="359" y="652"/>
			<point x="336" y="625"/>
			<point x="300" y="625" type="curve" smooth="yes"/>
			<point x="264" y="625"/>
			<point x="241" y="652"/>
		</contour>
	</outline>
</glyph>
<glyph name="tilde" format="2">
  <advance width="500"/>
  <unicode hex="02DC"/>
  <anchor x="250.0" y="514.0" name="_top"/>
  <outline>
    <contour>
      <point x="125.0" y="605" type="curve"/>
      <point x="177.0" y="605" type="line"/>
      <point x="181.30769230769232" y="639.0"/>
      <point x="192.07692307692307" y="649.0"/>
      <point x="205.0" y="649" type="curve" smooth="yes"/>
      <point x="229.47368421052627" y="649.0"/>
      <point x="254.05494505494505" y="600.0"/>
      <point x="298.0" y="600" type="curve" smooth="yes"/>
      <point x="342.8354430379747" y="600.0"/>
      <point x="375.0" y="643.0"/>
      <point x="375.0" y="718" type="curve"/>
      <point x="322.0" y="718" type="line"/>
      <point x="318.76" y="684.0"/>
      <point x="307.96" y="674.0"/>
      <point x="295.0" y="674" type="curve" smooth="yes"/>
      <point x="271.0" y="674.0"/>
      <point x="245.94505494505495" y="723.0"/>
      <point x="202.0" y="723" type="curve" smooth="yes"/>
      <point x="157.1645569620253" y="723.0"/>
      <point x="125.0" y="680.0"/>
    </contour>
  </outline>
</glyph>
<glyph name="hungarumlaut" format="2">
  <advance width="600"/>
  <unicode hex="02DD"/>
  <anchor x="300" y="510" name="_top"/>
  <outline>
    <contour>
      <point x="185" y="585" type="line"/>
      <point x="235" y="585" type="line"/>
      <point x="310" y="735" type="line"/>
      <point x="240" y="735" type="line"/>
    </contour>
    <contour>
      <point x="335" y="585" type="line"/>
      <point x="385" y="585" type="line"/>
      <point x="470" y="735" type="line"/>
      <point x="400" y="735" type="line"/>
    </contour>
  </outline>
</glyph>
<glyph name="gravecomb" format="2">
	<advance width="0"/>
	<unicode hex="0300"/>
	<anchor x="0" y="510" name="_top"/>
	<outline>
		<contour>
			<point x="-128" y="735" type="line"/>
			<point x="-24" y="585" type="line"/>
			<point x="31" y="584" type="line"/>
			<point x="-54" y="735" type="line"/>
		</contour>
	</outline>
</glyph>
<glyph name="tildecomb" format="2">
	<advance width="0"/>
	<unicode hex="0303"/>
	<anchor x="0" y="510" name="_top"/>
	<outline>
		<contour>
			<point x="-138" y="610" type="curve"/>
			<point x="-94" y="610" type="line"/>
			<point x="-88" y="655"/>
			<point x="-74" y="671"/>
			<point x="-56" y="671" type="curve" smooth="yes"/>
			<point x="-22" y="671"/>
			<point x="-4" y="605"/>
			<point x="54" y="605" type="curve"/>
			<point x="95" y="605"/>
			<point x="126" y="645"/>
			<point x="134" y="715" type="curve"/>
			<point x="90" y="715" type="line"/>
			<point x="84" y="670"/>
			<point x="70" y="654"/>
			<point x="53" y="654" type="curve" smooth="yes"/>
			<point x="17" y="654"/>
			<point x="0" y="720"/>
			<point x="-58" y="720" type="curve"/>
			<point x="-100" y="720"/>
			<point x="-130" y="680"/>
		</contour>
	</outline>
</glyph>
<glyph name="macroncomb" format="2">
	<advance width="0"/>
	<unicode hex="0304"/>
	<anchor x="0" y="510" name="_top"/>
	<anchor x="1" y="690" name="top"/>
	<outline>
		<contour>
			<point x="-136" y="580" type="line"/>
			<point x="136" y="580" type="line"/>
			<point x="136" y="630" type="line"/>
			<point x="-136" y="630" type="line"/>
		</contour>
	</outline>
</glyph>
<glyph name="dotaccentcomb" format="2">
	<advance width="0"/>
	<unicode hex="0307"/>
	<anchor x="0" y="510" name="_top"/>
	<anchor x="0" y="678" name="top"/>
	<outline>
		<contour>
			<point x="-43" y="653" type="curve" smooth="yes"/>
			<point x="-43" y="629"/>
			<point x="-24" y="609"/>
			<point x="0" y="609" type="curve" smooth="yes"/>
			<point x="25" y="609"/>
			<point x="43" y="629"/>
			<point x="43" y="653" type="curve" smooth="yes"/>
			<point x="43" y="678"/>
			<point x="25" y="698"/>
			<point x="0" y="698" type="curve" smooth="yes"/>
			<point x="-24" y="698"/>
			<point x="-43" y="678"/>
		</contour>
	</outline>
</glyph>
<glyph name="dieresiscomb" format="2">
	<advance width="0"/>
	<unicode hex="0308"/>
	<anchor x="0" y="510" name="_top"/>
	<anchor x="0" y="670" name="top"/>
	<outline>
		<contour>
			<point x="-127" y="615" type="curve" smooth="yes"/>
			<point x="-127" y="591"/>
			<point x="-108" y="573"/>
			<point x="-85" y="573" type="curve" smooth="yes"/>
			<point x="-61" y="573"/>
			<point x="-43" y="591"/>
			<point x="-43" y="615" type="curve" smooth="yes"/>
			<point x="-43" y="640"/>
			<point x="-61" y="658"/>
			<point x="-85" y="658" type="curve" smooth="yes"/>
			<point x="-108" y="658"/>
			<point x="-127" y="640"/>
		</contour>
		<contour>
			<point x="43" y="615" type="curve" smooth="yes"/>
			<point x="43" y="591"/>
			<point x="62" y="573"/>
			<point x="85" y="573" type="curve" smooth="yes"/>
			<point x="109" y="573"/>
			<point x="127" y="591"/>
			<point x="127" y="615" type="curve" smooth="yes"/>
			<point x="127" y="640"/>
			<point x="109" y="658"/>
			<point x="85" y="658" type="curve" smooth="yes"/>
			<point x="62" y="658"/>
			<point x="43" y="640"/>
		</contour>
	</outline>
</glyph>
<glyph name="hookabovecomb" format="2">
	<advance width="0"/>
	<unicode hex="0309"/>
	<anchor x="0" y="510" name="_top"/>
	<outline>
		<contour>
			<point x="-22" y="557" type="line"/>
			<point x="22" y="557" type="line"/>
			<point x="22" y="595" type="line"/>
			<point x="54" y="602"/>
			<point x="74" y="621"/>
			<point x="74" y="655" type="curve" smooth="yes"/>
			<point x="74" y="682"/>
			<point x="59" y="720"/>
			<point x="-24" y="720" type="curve"/>
			<point x="-24" y="679" type="line"/>
			<point x="12" y="679"/>
			<point x="28" y="675"/>
			<point x="28" y="655" type="curve" smooth="yes"/>
			<point x="28" y="639"/>
			<point x="12" y="627"/>
			<point x="-22" y="620" type="curve"/>
		</contour>
	</outline>
</glyph>
<glyph name="ringcomb" format="2">
	<advance width="0"/>
	<unicode hex="030A"/>
	<anchor x="0" y="510" name="_top"/>
	<outline>
		<contour>
			<point x="-105" y="690" type="curve" smooth="yes"/>
			<point x="-105" y="628"/>
			<point x="-59" y="585"/>
			<point x="0" y="585" type="curve" smooth="yes"/>
			<point x="59" y="585"/>
			<point x="105" y="628"/>
			<point x="105" y="690" type="curve" smooth="yes"/>
			<point x="105" y="752"/>
			<point x="59" y="795"/>
			<point x="0" y="795" type="curve" smooth="yes"/>
			<point x="-59" y="795"/>
			<point x="-105" y="752"/>
		</contour>
		<contour>
			<point x="-59" y="690" type="curve" smooth="yes"/>
			<point x="-59" y="728"/>
			<point x="-36" y="755"/>
			<point x="0" y="755" type="curve" smooth="yes"/>
			<point x="36" y="755"/>
			<point x="59" y="728"/>
			<point x="59" y="690" type="curve" smooth="yes"/>
			<point x="59" y="652"/>
			<point x="36" y="625"/>
			<point x="0" y="625" type="curve" smooth="yes"/>
			<point x="-36" y="625"/>
			<point x="-59" y="652"/>
		</contour>
	</outline>
</glyph>
<glyph name="dblgravecomb" format="2">
	<advance width="0"/>
	<unicode hex="030F"/>
	<anchor x="0" y="510" name="_top"/>
	<outline>
		<contour>
			<point x="-183" y="735" type="line"/>
			<point x="-79" y="585" type="line"/>
			<point x="-24" y="584" type="line"/>
			<point x="-109" y="735" type="line"/>
		</contour>
		<contour>
			<point x="-70" y="735" type="line"/>
			<point x="34" y="585" type="line"/>
			<point x="89" y="584" type="line"/>
			<point x="4" y="735" type="line"/>
		</contour>
	</outline>
</glyph>
<glyph name="horncomb" format="2">
	<advance width="0"/>
	<unicode hex="031B"/>
	<anchor x="0" y="690" name="_horn"/>
	<outline>
		<contour>
			<point x="0" y="633" type="line"/>
			<point x="86" y="633"/>
			<point x="138" y="690"/>
			<point x="138" y="792" type="curve"/>
			<point x="86" y="792" type="line"/>
			<point x="86" y="722"/>
			<point x="49" y="681"/>
			<point x="0" y="681" type="curve"/>
		</contour>
	</outline>
</glyph>
<glyph name="dotbelowcomb" format="2">
	<advance width="0"/>
	<unicode hex="0323"/>
	<anchor x="0" y="0" name="_bottom"/>
	<outline>
		<contour>
			<point x="-43" y="-135" type="curve" smooth="yes"/>
			<point x="-43" y="-159"/>
			<point x="-24" y="-179"/>
			<point x="0" y="-179" type="curve" smooth="yes"/>
			<point x="25" y="-179"/>
			<point x="43" y="-159"/>
			<point x="43" y="-135" type="curve" smooth="yes"/>
			<point x="43" y="-110"/>
			<point x="25" y="-90"/>
			<point x="0" y="-90" type="curve" smooth="yes"/>
			<point x="-24" y="-90"/>
			<point x="-43" y="-110"/>
		</contour>
	</outline>
</glyph>
<glyph name="commaaccentcomb" format="2">
	<advance width="0"/>
	<unicode hex="0326"/>
	<anchor x="0" y="0" name="_bottom"/>
	<outline>
		<contour>
			<point x="-40" y="-300" type="line"/>
			<point x="0" y="-300" type="line"/>
			<point x="30" y="-206" type="line" smooth="yes"/>
			<point x="36" y="-188"/>
			<point x="42" y="-170"/>
			<point x="42" y="-152" type="curve" smooth="yes"/>
			<point x="42" y="-125"/>
			<point x="24" y="-106"/>
			<point x="0" y="-106" type="curve" smooth="yes"/>
			<point x="-24" y="-106"/>
			<point x="-42" y="-125"/>
			<point x="-42" y="-149" type="curve" smooth="yes"/>
			<point x="-42" y="-170"/>
			<point x="-30" y="-185"/>
			<point x="-12" y="-190" type="curve"/>
		</contour>
	</outline>
</glyph>
<glyph name="ogonekcomb" format="2">
	<advance width="0"/>
	<unicode hex="0328"/>
	<anchor x="0" y="0" name="_ogonek"/>
	<outline>
		<contour>
			<point x="-113" y="-108" type="curve" smooth="yes"/>
			<point x="-113" y="-160"/>
			<point x="-73" y="-193"/>
			<point x="-23" y="-193" type="curve" smooth="yes"/>
			<point x="9" y="-193"/>
			<point x="33" y="-184"/>
			<point x="57" y="-170" type="curve"/>
			<point x="41" y="-132" type="line"/>
			<point x="25" y="-141"/>
			<point x="5" y="-149"/>
			<point x="-18" y="-149" type="curve" smooth="yes"/>
			<point x="-48" y="-149"/>
			<point x="-67" y="-130"/>
			<point x="-67" y="-100" type="curve" smooth="yes"/>
			<point x="-67" y="-64"/>
			<point x="-33" y="-30"/>
			<point x="12" y="0" type="curve"/>
			<point x="-43" y="0" type="line"/>
			<point x="-79" y="-20"/>
			<point x="-113" y="-62"/>
		</contour>
	</outline>
</glyph>
<glyph name="Delta" format="2">
	<advance width="513"/>
	<unicode hex="0394"/>
	<outline>
		<contour>
			<point x="20" y="0" type="line"/>
			<point x="82" y="0" type="line"/>
			<point x="273" y="645" type="line"/>
			<point x="271" y="690" type="line"/>
			<point x="231" y="690" type="line"/>
		</contour>
		<contour>
			<point x="60" y="0" type="line"/>
			<point x="447" y="0" type="line"/>
			<point x="447" y="56" type="line"/>
			<point x="60" y="56" type="line"/>
		</contour>
		<contour>
			<point x="241" y="645" type="line"/>
			<point x="428" y="0" type="line"/>
			<point x="493" y="0" type="line"/>
			<point x="283" y="690" type="line"/>
			<point x="239" y="690" type="line"/>
		</contour>
	</outline>
</glyph>
<glyph name="Omega" format="2">
	<advance width="706"/>
	<unicode hex="03A9"/>
	<outline>
		<contour>
			<point x="353" y="638" type="curve" smooth="yes"/>
			<point x="478" y="638"/>
			<point x="572" y="540"/>
			<point x="572" y="365" type="curve" smooth="yes"/>
			<point x="572" y="224"/>
			<point x="490" y="128"/>
			<point x="413" y="70" type="curve"/>
			<point x="413" y="0" type="line"/>
			<point x="636" y="0" type="line"/>
			<point x="636" y="56" type="line"/>
			<point x="436" y="56" type="line"/>
			<point x="413" y="10" type="line"/>
			<point x="540" y="80"/>
			<point x="636" y="210"/>
			<point x="636" y="365" type="curve" smooth="yes"/>
			<point x="636" y="578"/>
			<point x="509" y="698"/>
			<point x="353" y="698" type="curve" smooth="yes"/>
			<point x="197" y="698"/>
			<point x="70" y="578"/>
			<point x="70" y="365" type="curve" smooth="yes"/>
			<point x="70" y="210"/>
			<point x="166" y="80"/>
			<point x="293" y="10" type="curve"/>
			<point x="270" y="56" type="line"/>
			<point x="70" y="56" type="line"/>
			<point x="70" y="0" type="line"/>
			<point x="293" y="0" type="line"/>
			<point x="293" y="70" type="line"/>
			<point x="216" y="128"/>
			<point x="134" y="224"/>
			<point x="134" y="365" type="curve" smooth="yes"/>
			<point x="134" y="540"/>
			<point x="228" y="638"/>
		</contour>
	</outline>
</glyph>
<glyph name="mu" format="2">
	<advance width="579"/>
	<unicode hex="03BC"/>
	<outline>
		<contour>
			<point x="90" y="-185" type="line"/>
			<point x="150" y="-185" type="line"/>
			<point x="140" y="100" type="line"/>
			<point x="120" y="185" type="line"/>
			<point x="120" y="57"/>
			<point x="164" y="-8"/>
			<point x="260" y="-8" type="curve" smooth="yes"/>
			<point x="328" y="-8"/>
			<point x="389" y="35"/>
			<point x="429" y="93" type="curve"/>
			<point x="429" y="144" type="line"/>
			<point x="385" y="83"/>
			<point x="325" y="47"/>
			<point x="265" y="47" type="curve" smooth="yes"/>
			<point x="200" y="47"/>
			<point x="150" y="87"/>
			<point x="150" y="190" type="curve" smooth="yes"/>
			<point x="150" y="510" type="line"/>
			<point x="90" y="510" type="line"/>
		</contour>
		<contour>
			<point x="414" y="120" type="line"/>
			<point x="419" y="84" type="line"/>
			<point x="419" y="20"/>
			<point x="452" y="-8"/>
			<point x="493" y="-8" type="curve"/>
			<point x="506" y="-8"/>
			<point x="520" y="-5"/>
			<point x="531" y="0" type="curve"/>
			<point x="531" y="48" type="line"/>
			<point x="524" y="46"/>
			<point x="514" y="44"/>
			<point x="505" y="44" type="curve"/>
			<point x="487" y="44"/>
			<point x="474" y="53"/>
			<point x="474" y="81" type="curve"/>
			<point x="474" y="510" type="line"/>
			<point x="414" y="510" type="line"/>
		</contour>
	</outline>
</glyph>
<glyph name="pi" format="2">
	<advance width="493"/>
	<unicode hex="03C0"/>
	<outline>
		<contour>
			<point x="40" y="461" type="line"/>
			<point x="448" y="461" type="line"/>
			<point x="448" y="515" type="line"/>
			<point x="40" y="515" type="line"/>
		</contour>
		<contour>
			<point x="120" y="0" type="line"/>
			<point x="180" y="0" type="line"/>
			<point x="180" y="515" type="line"/>
			<point x="120" y="515" type="line"/>
		</contour>
		<contour>
			<point x="308" y="90" type="line" smooth="yes"/>
			<point x="308" y="20"/>
			<point x="346" y="-8"/>
			<point x="387" y="-8" type="curve" smooth="yes"/>
			<point x="400" y="-8"/>
			<point x="414" y="-5"/>
			<point x="425" y="0" type="curve"/>
			<point x="425" y="48" type="line"/>
			<point x="418" y="46"/>
			<point x="408" y="44"/>
			<point x="399" y="44" type="curve" smooth="yes"/>
			<point x="381" y="44"/>
			<point x="368" y="53"/>
			<point x="368" y="81" type="curve" smooth="yes"/>
			<point x="368" y="510" type="line"/>
			<point x="308" y="510" type="line"/>
		</contour>
	</outline>
</glyph>
<glyph name="endash" format="2">
  <advance width="575"/>
  <unicode hex="2013"/>
  <outline>
    <contour>
      <point x="60" y="250" type="line"/>
      <point x="515" y="250" type="line"/>
      <point x="515" y="300" type="line"/>
      <point x="60" y="300" type="line"/>
    </contour>
  </outline>
</glyph>
<glyph name="emdash" format="2">
  <advance width="859"/>
  <unicode hex="2014"/>
  <outline>
    <contour>
      <point x="60" y="250" type="line"/>
      <point x="799" y="250" type="line"/>
      <point x="799" y="300" type="line"/>
      <point x="60" y="300" type="line"/>
    </contour>
  </outline>
</glyph>
<glyph name="quoteleft" format="1">
  <advance width="197"/>
  <unicode hex="2018"/>
  <outline>
    <contour>
      <point x="149" y="720" type="line"/>
      <point x="96" y="720" type="line"/>
      <point x="57" y="601" type="line" smooth="yes"/>
      <point x="49" y="575"/>
      <point x="40" y="553"/>
      <point x="40" y="529" type="curve" smooth="yes"/>
      <point x="40" y="496"/>
      <point x="64.98485196156165" y="470.0"/>
      <point x="99" y="470" type="curve" smooth="yes"/>
      <point x="131" y="470"/>
      <point x="158" y="494"/>
      <point x="158" y="529" type="curve" smooth="yes"/>
      <point x="158" y="554"/>
      <point x="142" y="576"/>
      <point x="119" y="584" type="curve"/>
    </contour>
  </outline>
</glyph>
<glyph name="quoteright" format="2">
  <advance width="216"/>
  <unicode hex="2019"/>
  <outline>
    <contour>
      <point x="65" y="513" type="line"/>
      <point x="105" y="513" type="line"/>
      <point x="142" y="629" type="line" smooth="yes"/>
      <point x="148" y="647"/>
      <point x="152" y="663"/>
      <point x="152" y="680" type="curve" smooth="yes"/>
      <point x="152" y="708"/>
      <point x="134" y="728"/>
      <point x="109" y="728" type="curve" smooth="yes"/>
      <point x="85" y="728"/>
      <point x="66" y="708"/>
      <point x="66" y="683" type="curve" smooth="yes"/>
      <point x="66" y="662"/>
      <point x="78" y="648"/>
      <point x="94" y="642" type="curve"/>
    </contour>
  </outline>
</glyph>
<glyph name="dagger" format="2">
	<advance width="416"/>
	<unicode hex="2020"/>
	<outline>
		<contour>
			<point x="180" y="-185" type="line"/>
			<point x="236" y="-185" type="line"/>
			<point x="236" y="720" type="line"/>
			<point x="180" y="720" type="line"/>
		</contour>
		<contour>
			<point x="30" y="460" type="line"/>
			<point x="386" y="460" type="line"/>
			<point x="386" y="510" type="line"/>
			<point x="30" y="510" type="line"/>
		</contour>
	</outline>
</glyph>
<glyph name="daggerdbl" format="2">
	<advance width="416"/>
	<unicode hex="2021"/>
	<outline>
		<contour>
			<point x="180" y="-185" type="line"/>
			<point x="236" y="-185" type="line"/>
			<point x="236" y="720" type="line"/>
			<point x="180" y="720" type="line"/>
		</contour>
		<contour>
			<point x="30" y="460" type="line"/>
			<point x="386" y="460" type="line"/>
			<point x="386" y="510" type="line"/>
			<point x="30" y="510" type="line"/>
		</contour>
		<contour>
			<point x="30" y="25" type="line"/>
			<point x="386" y="25" type="line"/>
			<point x="386" y="75" type="line"/>
			<point x="30" y="75" type="line"/>
		</contour>
	</outline>
</glyph>
<glyph name="bullet" format="2">
	<advance width="400"/>
	<unicode hex="2022"/>
	<outline>
		<contour>
			<point x="80" y="290" type="curve" smooth="yes"/>
			<point x="80" y="220"/>
			<point x="130" y="170"/>
			<point x="200" y="170" type="curve" smooth="yes"/>
			<point x="270" y="170"/>
			<point x="320" y="220"/>
			<point x="320" y="290" type="curve" smooth="yes"/>
			<point x="320" y="360"/>
			<point x="270" y="410"/>
			<point x="200" y="410" type="curve" smooth="yes"/>
			<point x="130" y="410"/>
			<point x="80" y="360"/>
		</contour>
	</outline>
</glyph>
<glyph name="perthousand" format="1">
  <advance width="1143"/>
  <unicode hex="2030"/>
  <outline>
    <contour>
      <point x="62" y="518" type="curve" smooth="yes"/>
      <point x="62" y="401"/>
      <point x="127" y="337"/>
      <point x="208" y="337" type="curve" smooth="yes"/>
      <point x="288" y="337"/>
      <point x="354" y="401"/>
      <point x="354" y="518" type="curve" smooth="yes"/>
      <point x="354" y="635"/>
      <point x="288" y="700"/>
      <point x="208" y="700" type="curve" smooth="yes"/>
      <point x="127" y="700"/>
      <point x="62" y="635"/>
    </contour>
    <contour>
      <point x="141" y="518" type="curve" smooth="yes"/>
      <point x="141" y="587"/>
      <point x="171" y="621"/>
      <point x="208" y="621" type="curve" smooth="yes"/>
      <point x="245" y="621"/>
      <point x="275" y="587"/>
      <point x="275" y="518" type="curve" smooth="yes"/>
      <point x="275" y="450"/>
      <point x="245" y="417"/>
      <point x="208" y="417" type="curve" smooth="yes"/>
      <point x="171" y="417"/>
      <point x="141" y="450"/>
    </contour>
    <contour>
      <point x="165" y="0" type="line"/>
      <point x="259" y="0" type="line"/>
      <point x="638" y="690" type="line"/>
      <point x="545" y="690" type="line"/>
    </contour>
    <contour>
      <point x="450" y="171" type="curve" smooth="yes"/>
      <point x="450" y="54"/>
      <point x="515" y="-10"/>
      <point x="596" y="-10" type="curve" smooth="yes"/>
      <point x="676" y="-10"/>
      <point x="742" y="54"/>
      <point x="742" y="171" type="curve" smooth="yes"/>
      <point x="742" y="288"/>
      <point x="676" y="353"/>
      <point x="596" y="353" type="curve" smooth="yes"/>
      <point x="515" y="353"/>
      <point x="450" y="288"/>
    </contour>
    <contour>
      <point x="529" y="170" type="curve" smooth="yes"/>
      <point x="529" y="239"/>
      <point x="559" y="273"/>
      <point x="596" y="273" type="curve" smooth="yes"/>
      <point x="633" y="273"/>
      <point x="663" y="239"/>
      <point x="663" y="170" type="curve" smooth="yes"/>
      <point x="663" y="102"/>
      <point x="633" y="69"/>
      <point x="596" y="69" type="curve" smooth="yes"/>
      <point x="559" y="69"/>
      <point x="529" y="102"/>
    </contour>
    <contour>
      <point x="788" y="171" type="curve" smooth="yes"/>
      <point x="788" y="54"/>
      <point x="853" y="-10"/>
      <point x="934" y="-10" type="curve" smooth="yes"/>
      <point x="1014" y="-10"/>
      <point x="1080" y="54"/>
      <point x="1080" y="171" type="curve" smooth="yes"/>
      <point x="1080" y="288"/>
      <point x="1014" y="353"/>
      <point x="934" y="353" type="curve" smooth="yes"/>
      <point x="853" y="353"/>
      <point x="788" y="288"/>
    </contour>
    <contour>
      <point x="867" y="170" type="curve" smooth="yes"/>
      <point x="867" y="239"/>
      <point x="897" y="273"/>
      <point x="934" y="273" type="curve" smooth="yes"/>
      <point x="971" y="273"/>
      <point x="1001" y="239"/>
      <point x="1001" y="170" type="curve" smooth="yes"/>
      <point x="1001" y="102"/>
      <point x="971" y="69"/>
      <point x="934" y="69" type="curve" smooth="yes"/>
      <point x="897" y="69"/>
      <point x="867" y="102"/>
    </contour>
  </outline>
</glyph>
<glyph name="guilsinglleft" format="2">
	<advance width="302"/>
	<unicode hex="2039"/>
	<outline>
		<contour>
			<point x="55" y="251" type="line"/>
			<point x="193" y="78" type="line"/>
			<point x="262" y="78" type="line"/>
			<point x="104" y="272" type="line"/>
			<point x="55" y="272" type="line"/>
		</contour>
		<contour>
			<point x="55" y="259" type="line"/>
			<point x="104" y="259" type="line"/>
			<point x="262" y="453" type="line"/>
			<point x="193" y="453" type="line"/>
			<point x="55" y="280" type="line"/>
		</contour>
	</outline>
</glyph>
<glyph name="guilsinglright" format="2">
	<advance width="302"/>
	<unicode hex="203A"/>
	<outline>
		<contour>
			<point x="40" y="78" type="line"/>
			<point x="109" y="78" type="line"/>
			<point x="247" y="251" type="line"/>
			<point x="247" y="272" type="line"/>
			<point x="198" y="272" type="line"/>
		</contour>
		<contour>
			<point x="40" y="453" type="line"/>
			<point x="198" y="259" type="line"/>
			<point x="247" y="259" type="line"/>
			<point x="247" y="280" type="line"/>
			<point x="109" y="453" type="line"/>
		</contour>
	</outline>
</glyph>
<glyph name="franc" format="2">
	<advance width="450"/>
	<unicode hex="20A3"/>
	<outline>
		<component base="F"/>
		<contour>
			<point x="10" y="164" type="line"/>
			<point x="242" y="164" type="line"/>
			<point x="242" y="214" type="line"/>
			<point x="10" y="214" type="line"/>
		</contour>
	</outline>
</glyph>
<glyph name="lira" format="2">
	<advance width="600"/>
	<unicode hex="20A4"/>
	<outline>
		<contour>
			<point x="70" y="0" type="line"/>
			<point x="530" y="0" type="line"/>
			<point x="530" y="56" type="line"/>
			<point x="70" y="56" type="line"/>
		</contour>
		<contour>
			<point x="70" y="10" type="line"/>
			<point x="190" y="60"/>
			<point x="245" y="160"/>
			<point x="245" y="260" type="curve" smooth="yes"/>
			<point x="245" y="340"/>
			<point x="207" y="400"/>
			<point x="207" y="470" type="curve" smooth="yes"/>
			<point x="207" y="584"/>
			<point x="271" y="641"/>
			<point x="352" y="641" type="curve" smooth="yes"/>
			<point x="404" y="641"/>
			<point x="445" y="617"/>
			<point x="479" y="571" type="curve"/>
			<point x="526" y="603" type="line"/>
			<point x="483" y="665"/>
			<point x="421" y="698"/>
			<point x="352" y="698" type="curve" smooth="yes"/>
			<point x="237" y="698"/>
			<point x="145" y="622"/>
			<point x="145" y="475" type="curve" smooth="yes"/>
			<point x="145" y="400"/>
			<point x="185" y="340"/>
			<point x="185" y="260" type="curve" smooth="yes"/>
			<point x="185" y="204"/>
			<point x="160" y="110"/>
			<point x="70" y="60" type="curve"/>
		</contour>
		<contour>
			<point x="70" y="399" type="line"/>
			<point x="430" y="399" type="line"/>
			<point x="430" y="453" type="line"/>
			<point x="70" y="453" type="line"/>
		</contour>
		<contour>
			<point x="70" y="239" type="line"/>
			<point x="430" y="239" type="line"/>
			<point x="430" y="293" type="line"/>
			<point x="70" y="293" type="line"/>
		</contour>
	</outline>
</glyph>
<glyph name="peseta" format="2">
	<advance width="502"/>
	<unicode hex="20A7"/>
	<outline>
		<component base="P"/>
		<contour>
			<point x="10" y="445" type="line"/>
			<point x="492" y="445" type="line"/>
			<point x="492" y="495" type="line"/>
			<point x="10" y="495" type="line"/>
		</contour>
	</outline>
</glyph>
<glyph name="won" format="2">
	<advance width="717"/>
	<unicode hex="20A9"/>
	<outline>
		<component base="W"/>
		<contour>
			<point x="16" y="340" type="line"/>
			<point x="707" y="340" type="line"/>
			<point x="707" y="390" type="line"/>
			<point x="16" y="390" type="line"/>
		</contour>
	</outline>
</glyph>
<glyph name="dong" format="2">
	<advance width="444"/>
	<unicode hex="20AB"/>
	<outline>
		<contour>
			<point x="53" y="300" type="curve" smooth="yes"/>
			<point x="53" y="175"/>
			<point x="106" y="92"/>
			<point x="196" y="92" type="curve" smooth="yes"/>
			<point x="257" y="92"/>
			<point x="288" y="131"/>
			<point x="321" y="193" type="curve"/>
			<point x="321" y="244" type="line"/>
			<point x="284" y="179"/>
			<point x="261" y="147"/>
			<point x="204" y="147" type="curve" smooth="yes"/>
			<point x="146" y="147"/>
			<point x="114" y="206"/>
			<point x="114" y="305" type="curve" smooth="yes"/>
			<point x="114" y="407"/>
			<point x="143" y="466"/>
			<point x="216" y="466" type="curve" smooth="yes"/>
			<point x="286" y="466"/>
			<point x="306" y="413"/>
			<point x="306" y="340" type="curve"/>
			<point x="334" y="347" type="line"/>
			<point x="334" y="445"/>
			<point x="299" y="518"/>
			<point x="212" y="518" type="curve" smooth="yes"/>
			<point x="113" y="518"/>
			<point x="53" y="437"/>
		</contour>
		<contour>
			<point x="322" y="100" type="line"/>
			<point x="377" y="100" type="line"/>
			<point x="371" y="139" type="line" smooth="yes"/>
			<point x="367" y="168"/>
			<point x="366" y="189"/>
			<point x="366" y="222" type="curve" smooth="yes"/>
			<point x="366" y="731" type="line"/>
			<point x="307" y="717" type="line"/>
			<point x="306" y="203" type="line"/>
		</contour>
		<contour>
			<point x="75" y="0" type="line"/>
			<point x="391" y="0" type="line"/>
			<point x="391" y="50" type="line"/>
			<point x="75" y="50" type="line"/>
		</contour>
		<contour>
			<point x="208" y="577" type="line"/>
			<point x="434" y="577" type="line"/>
			<point x="434" y="627" type="line"/>
			<point x="208" y="627" type="line"/>
		</contour>
	</outline>
</glyph>
<glyph name="Euro" format="2">
  <advance width="600"/>
  <unicode hex="20AC"/>
  <outline>
    <contour>
      <point x="110.0" y="345" type="curve" smooth="yes"/>
      <point x="110.0" y="112"/>
      <point x="232.0" y="-8"/>
      <point x="381.0" y="-8" type="curve" smooth="yes"/>
      <point x="456.0" y="-8"/>
      <point x="528.0" y="26"/>
      <point x="581.0" y="91" type="curve"/>
      <point x="533.0" y="128" type="line"/>
      <point x="494.0" y="78"/>
      <point x="438.0" y="49"/>
      <point x="381.0" y="49" type="curve" smooth="yes"/>
      <point x="265.0" y="49"/>
      <point x="174.0" y="148"/>
      <point x="174.0" y="345" type="curve" smooth="yes"/>
      <point x="174.0" y="542"/>
      <point x="267.0" y="641"/>
      <point x="381.0" y="641" type="curve" smooth="yes"/>
      <point x="440.0" y="641"/>
      <point x="489.0" y="615"/>
      <point x="528.0" y="565" type="curve"/>
      <point x="576.0" y="602" type="line"/>
      <point x="523.0" y="667"/>
      <point x="458.0" y="698"/>
      <point x="381.0" y="698" type="curve" smooth="yes"/>
      <point x="234.0" y="698"/>
      <point x="110.0" y="578"/>
    </contour>
    <contour>
      <point x="40.0" y="231" type="line"/>
      <point x="410.0" y="231" type="line"/>
      <point x="410.0" y="285" type="line"/>
      <point x="40.0" y="285" type="line"/>
    </contour>
    <contour>
      <point x="40.0" y="405" type="line"/>
      <point x="410.0" y="405" type="line"/>
      <point x="410.0" y="459" type="line"/>
      <point x="40.0" y="459" type="line"/>
    </contour>
  </outline>
</glyph>
<glyph name="rupeeIndian" format="2">
	<advance width="500"/>
	<unicode hex="20B9"/>
	<outline>
		<contour>
			<point x="107" y="276" type="line"/>
			<point x="193" y="276" type="line" smooth="yes"/>
			<point x="328" y="276"/>
			<point x="428" y="354"/>
			<point x="428" y="483" type="curve" smooth="yes"/>
			<point x="428" y="612"/>
			<point x="336" y="690"/>
			<point x="201" y="690" type="curve" smooth="yes"/>
			<point x="107" y="690" type="line"/>
			<point x="107" y="636" type="line"/>
			<point x="196" y="636" type="line" smooth="yes"/>
			<point x="304" y="636"/>
			<point x="364" y="581"/>
			<point x="364" y="483" type="curve" smooth="yes"/>
			<point x="364" y="385"/>
			<point x="296" y="330"/>
			<point x="188" y="330" type="curve" smooth="yes"/>
			<point x="107" y="330" type="line"/>
		</contour>
		<contour>
			<point x="107" y="276" type="line"/>
			<point x="292" y="0" type="line"/>
			<point x="358" y="0" type="line"/>
			<point x="167" y="276" type="line"/>
		</contour>
		<contour>
			<point x="17" y="460" type="line"/>
			<point x="491" y="460" type="line"/>
			<point x="491" y="510" type="line"/>
			<point x="17" y="510" type="line"/>
		</contour>
		<contour>
			<point x="157" y="640" type="line"/>
			<point x="492" y="640" type="line"/>
			<point x="492" y="690" type="line"/>
			<point x="157" y="690" type="line"/>
		</contour>
	</outline>
</glyph>
<glyph name="liraTurkish" format="2">
	<advance width="400"/>
	<unicode hex="20BA"/>
	<outline>
		<contour>
			<point x="79" y="0" type="line"/>
			<point x="141" y="0" type="line"/>
			<point x="141" y="690" type="line"/>
			<point x="79" y="690" type="line"/>
		</contour>
		<contour>
			<point x="109" y="0" type="line"/>
			<point x="186" y="0"/>
			<point x="332" y="46"/>
			<point x="332" y="212" type="curve"/>
			<point x="287" y="212" type="line"/>
			<point x="287" y="107"/>
			<point x="186" y="54"/>
			<point x="109" y="54" type="curve"/>
		</contour>
		<contour>
			<point x="10" y="356" type="line"/>
			<point x="260" y="456" type="line"/>
			<point x="260" y="510" type="line"/>
			<point x="10" y="410" type="line"/>
		</contour>
		<contour>
			<point x="10" y="226" type="line"/>
			<point x="260" y="326" type="line"/>
			<point x="260" y="380" type="line"/>
			<point x="10" y="280" type="line"/>
		</contour>
	</outline>
</glyph>
<glyph name="litre" format="2">
	<advance width="422"/>
	<unicode hex="2113"/>
	<outline>
		<contour>
			<point x="118" y="135" type="line" smooth="yes"/>
			<point x="118" y="44"/>
			<point x="160" y="-8"/>
			<point x="239" y="-8" type="curve" smooth="yes"/>
			<point x="268" y="-8"/>
			<point x="302" y="0"/>
			<point x="327" y="13" type="curve"/>
			<point x="314" y="64" type="line"/>
			<point x="289" y="52"/>
			<point x="265" y="47"/>
			<point x="245" y="47" type="curve" smooth="yes"/>
			<point x="199" y="47"/>
			<point x="178" y="73"/>
			<point x="178" y="138" type="curve" smooth="yes"/>
			<point x="178" y="558" type="line" smooth="yes"/>
			<point x="178" y="625"/>
			<point x="190" y="673"/>
			<point x="233" y="673" type="curve" smooth="yes"/>
			<point x="276" y="673"/>
			<point x="288" y="625"/>
			<point x="288" y="558" type="curve" smooth="yes"/>
			<point x="288" y="371"/>
			<point x="231" y="280"/>
			<point x="58" y="210" type="curve"/>
			<point x="80" y="158" type="line"/>
			<point x="254" y="228"/>
			<point x="350" y="346"/>
			<point x="350" y="560" type="curve" smooth="yes"/>
			<point x="350" y="665"/>
			<point x="304" y="728"/>
			<point x="233" y="728" type="curve" smooth="yes"/>
			<point x="162" y="728"/>
			<point x="118" y="665"/>
			<point x="118" y="560" type="curve" smooth="yes"/>
		</contour>
	</outline>
</glyph>
<glyph name="numero" format="2">
	<advance width="1112"/>
	<unicode hex="2116"/>
	<outline>
		<contour>
			<point x="726" y="490" type="curve" smooth="yes"/>
			<point x="726" y="350"/>
			<point x="797" y="282"/>
			<point x="884" y="282" type="curve" smooth="yes"/>
			<point x="971" y="282"/>
			<point x="1042" y="350"/>
			<point x="1042" y="490" type="curve" smooth="yes"/>
			<point x="1042" y="630"/>
			<point x="971" y="698"/>
			<point x="884" y="698" type="curve" smooth="yes"/>
			<point x="797" y="698"/>
			<point x="726" y="630"/>
		</contour>
		<contour>
			<point x="782" y="490" type="curve" smooth="yes"/>
			<point x="782" y="600"/>
			<point x="827" y="648"/>
			<point x="884" y="648" type="curve" smooth="yes"/>
			<point x="941" y="648"/>
			<point x="986" y="600"/>
			<point x="986" y="490" type="curve" smooth="yes"/>
			<point x="986" y="380"/>
			<point x="941" y="332"/>
			<point x="884" y="332" type="curve" smooth="yes"/>
			<point x="827" y="332"/>
			<point x="782" y="380"/>
		</contour>
		<contour>
			<point x="734" y="135" type="line"/>
			<point x="1034" y="135" type="line"/>
			<point x="1034" y="185" type="line"/>
			<point x="734" y="185" type="line"/>
		</contour>
		<contour>
			<point x="110" y="0" type="line"/>
			<point x="172" y="0" type="line"/>
			<point x="172" y="690" type="line"/>
			<point x="110" y="690" type="line"/>
		</contour>
		<contour>
			<point x="128" y="690" type="line"/>
			<point x="531" y="0" type="line"/>
			<point x="598" y="0" type="line"/>
			<point x="195" y="690" type="line"/>
		</contour>
		<contour>
			<point x="554" y="0" type="line"/>
			<point x="616" y="0" type="line"/>
			<point x="616" y="690" type="line"/>
			<point x="554" y="690" type="line"/>
		</contour>
	</outline>
</glyph>
<glyph name="product" format="2">
	<advance width="594"/>
	<unicode hex="220F"/>
	<outline>
		<contour>
			<point x="135" y="-185" type="line"/>
			<point x="197" y="-185" type="line"/>
			<point x="197" y="690" type="line"/>
			<point x="135" y="690" type="line"/>
		</contour>
		<contour>
			<point x="75" y="634" type="line"/>
			<point x="519" y="634" type="line"/>
			<point x="519" y="690" type="line"/>
			<point x="75" y="690" type="line"/>
		</contour>
		<contour>
			<point x="397" y="-185" type="line"/>
			<point x="459" y="-185" type="line"/>
			<point x="459" y="690" type="line"/>
			<point x="397" y="690" type="line"/>
		</contour>
	</outline>
</glyph>
<glyph name="divisionslash" format="2">
	<advance width="485"/>
	<unicode hex="2215"/>
	<outline>
		<contour>
			<point x="0" y="0" type="line"/>
			<point x="65" y="0" type="line"/>
			<point x="485" y="690" type="line"/>
			<point x="420" y="690" type="line"/>
		</contour>
	</outline>
</glyph>
<glyph name="bulletoperator" format="2">
  <advance width="600"/>
  <unicode hex="2219"/>
  <outline>
    <contour>
      <point x="180.0" y="290" type="curve" smooth="yes"/>
      <point x="180.0" y="220"/>
      <point x="230.0" y="170"/>
      <point x="300.0" y="170" type="curve" smooth="yes"/>
      <point x="370.0" y="170"/>
      <point x="420.0" y="220"/>
      <point x="420.0" y="290" type="curve" smooth="yes"/>
      <point x="420.0" y="360"/>
      <point x="370.0" y="410"/>
      <point x="300.0" y="410" type="curve" smooth="yes"/>
      <point x="230.0" y="410"/>
      <point x="180.0" y="360"/>
    </contour>
  </outline>
</glyph>
<glyph name="radical" format="2">
	<advance width="586"/>
	<unicode hex="221A"/>
	<outline>
		<contour>
			<point x="110" y="330" type="line"/>
			<point x="312" y="-185" type="line"/>
			<point x="344" y="-185" type="line"/>
			<point x="344" y="-100" type="line"/>
			<point x="179" y="330" type="line"/>
		</contour>
		<contour>
			<point x="338" y="-100" type="line"/>
			<point x="338" y="-185" type="line"/>
			<point x="364" y="-185" type="line"/>
			<point x="600" y="690" type="line"/>
			<point x="535" y="690" type="line"/>
		</contour>
		<contour>
			<point x="40" y="274" type="line"/>
			<point x="170" y="274" type="line"/>
			<point x="170" y="330" type="line"/>
			<point x="40" y="330" type="line"/>
		</contour>
	</outline>
</glyph>
<glyph name="infinity" format="2">
  <advance width="556"/>
  <unicode hex="221E"/>
  <outline>
    <contour>
      <point x="37" y="291" type="curve" smooth="yes"/>
      <point x="37.0" y="175.27868852459017"/>
      <point x="89.83200000000001" y="110.0"/>
      <point x="164" y="110" type="curve" smooth="yes"/>
      <point x="223.2" y="110.0"/>
      <point x="272.0" y="152.0"/>
      <point x="312" y="281" type="curve" smooth="yes"/>
      <point x="339.0" y="368.0"/>
      <point x="363.7073170731707" y="402.0"/>
      <point x="392" y="402" type="curve" smooth="yes"/>
      <point x="425.08474576271186" y="402.0"/>
      <point x="453.0" y="365.0"/>
      <point x="453" y="292" type="curve" smooth="yes"/>
      <point x="453.0" y="223.0"/>
      <point x="425.0" y="178.0"/>
      <point x="386" y="178" type="curve" smooth="yes"/>
      <point x="347.96296296296293" y="178.0"/>
      <point x="317.7283950617284" y="224.0"/>
      <point x="307" y="301" type="curve"/>
      <point x="272" y="256" type="line"/>
      <point x="283.1880341880342" y="167.0"/>
      <point x="330" y="110"/>
      <point x="395" y="110" type="curve"/>
      <point x="465" y="110"/>
      <point x="520.0" y="188.8813559322034"/>
      <point x="520" y="289" type="curve" smooth="yes"/>
      <point x="520.0" y="404.72131147540983"/>
      <point x="466.1587301587302" y="470.0"/>
      <point x="392" y="470" type="curve" smooth="yes"/>
      <point x="333.7866666666667" y="470.0"/>
      <point x="282.0" y="427.0"/>
      <point x="244" y="299" type="curve" smooth="yes"/>
      <point x="218.0" y="212.0"/>
      <point x="193.2682926829268" y="178.0"/>
      <point x="164" y="178" type="curve" smooth="yes"/>
      <point x="131.93103448275863" y="178.0"/>
      <point x="104.0" y="216.0"/>
      <point x="104" y="288" type="curve" smooth="yes"/>
      <point x="104.0" y="357.0"/>
      <point x="131.5820895522388" y="402.0"/>
      <point x="170" y="402" type="curve" smooth="yes"/>
      <point x="208.03703703703704" y="402.0"/>
      <point x="239.2469135802469" y="355.0"/>
      <point x="249" y="278" type="curve"/>
      <point x="285" y="324" type="line"/>
      <point x="272.79661016949154" y="414.0"/>
      <point x="229" y="470"/>
      <point x="163" y="470" type="curve"/>
      <point x="91" y="470"/>
      <point x="37.0" y="391.1186440677966"/>
    </contour>
  </outline>
</glyph>
<glyph name="approxequal" format="2">
	<advance width="600"/>
	<unicode hex="2248"/>
	<outline>
		<contour>
			<point x="94" y="133" type="line"/>
			<point x="120" y="153"/>
			<point x="159" y="183"/>
			<point x="199" y="183" type="curve" smooth="yes"/>
			<point x="269" y="183"/>
			<point x="317" y="123"/>
			<point x="397" y="123" type="curve" smooth="yes"/>
			<point x="457" y="123"/>
			<point x="500" y="152"/>
			<point x="538" y="182" type="curve"/>
			<point x="506" y="227" type="line"/>
			<point x="480" y="207"/>
			<point x="441" y="177"/>
			<point x="401" y="177" type="curve" smooth="yes"/>
			<point x="331" y="177"/>
			<point x="283" y="237"/>
			<point x="203" y="237" type="curve" smooth="yes"/>
			<point x="143" y="237"/>
			<point x="100" y="208"/>
			<point x="62" y="178" type="curve"/>
		</contour>
		<contour>
			<point x="94" y="353" type="line"/>
			<point x="120" y="373"/>
			<point x="159" y="403"/>
			<point x="199" y="403" type="curve" smooth="yes"/>
			<point x="269" y="403"/>
			<point x="317" y="343"/>
			<point x="397" y="343" type="curve" smooth="yes"/>
			<point x="457" y="343"/>
			<point x="500" y="372"/>
			<point x="538" y="402" type="curve"/>
			<point x="506" y="447" type="line"/>
			<point x="480" y="427"/>
			<point x="441" y="397"/>
			<point x="401" y="397" type="curve" smooth="yes"/>
			<point x="331" y="397"/>
			<point x="283" y="457"/>
			<point x="203" y="457" type="curve" smooth="yes"/>
			<point x="143" y="457"/>
			<point x="100" y="428"/>
			<point x="62" y="398" type="curve"/>
		</contour>
	</outline>
</glyph>
<glyph name="lessequal" format="1">
  <advance width="500"/>
  <unicode hex="2264"/>
  <outline>
    <contour>
      <point x="58.0" y="65" type="line"/>
      <point x="418.0" y="65" type="line"/>
      <point x="418.0" y="136" type="line"/>
      <point x="58.0" y="136" type="line"/>
    </contour>
    <contour>
      <point x="57.0" y="320" type="line"/>
      <point x="418.0" y="153" type="line"/>
      <point x="418.0" y="237" type="line"/>
      <point x="131.0" y="365" type="line"/>
      <point x="57.0" y="365" type="line"/>
    </contour>
    <contour>
      <point x="57.0" y="344" type="line"/>
      <point x="131.0" y="344" type="line"/>
      <point x="418.0" y="471" type="line"/>
      <point x="418.0" y="553" type="line"/>
      <point x="57.0" y="387" type="line"/>
    </contour>
  </outline>
</glyph>
<glyph name="greaterequal" format="2">
  <advance width="500"/>
  <unicode hex="2265"/>
  <outline>
    <contour>
      <point x="81.0" y="65" type="line"/>
      <point x="442.0" y="65" type="line"/>
      <point x="442.0" y="136" type="line"/>
      <point x="81.0" y="136" type="line"/>
    </contour>
    <contour>
      <point x="81.0" y="153" type="line"/>
      <point x="442.0" y="320" type="line"/>
      <point x="442.0" y="362" type="line"/>
      <point x="368.0" y="362" type="line"/>
      <point x="81.0" y="235" type="line"/>
    </contour>
    <contour>
      <point x="81.0" y="469" type="line"/>
      <point x="368.0" y="341" type="line"/>
      <point x="442.0" y="341" type="line"/>
      <point x="442.0" y="387" type="line"/>
      <point x="81.0" y="553" type="line"/>
    </contour>
  </outline>
</glyph>
<glyph name="lozenge" format="2">
	<advance width="660"/>
	<unicode hex="25CA"/>
	<outline>
		<contour>
			<point x="335" y="-60" type="line"/>
			<point x="121" y="300" type="line"/>
			<point x="60" y="290" type="line"/>
			<point x="298" y="-110" type="line"/>
			<point x="335" y="-110" type="line"/>
		</contour>
		<contour>
			<point x="60" y="290" type="line"/>
			<point x="125" y="290" type="line"/>
			<point x="333" y="640" type="line"/>
			<point x="333" y="690" type="line"/>
			<point x="298" y="690" type="line"/>
		</contour>
		<contour>
			<point x="600" y="290" type="line"/>
			<point x="535" y="290" type="line"/>
			<point x="327" y="-60" type="line"/>
			<point x="327" y="-110" type="line"/>
			<point x="362" y="-110" type="line"/>
		</contour>
		<contour>
			<point x="325" y="640" type="line"/>
			<point x="539" y="280" type="line"/>
			<point x="600" y="290" type="line"/>
			<point x="362" y="690" type="line"/>
			<point x="325" y="690" type="line"/>
		</contour>
	</outline>
</glyph>
<glyph name="leftanglebracket-math" format="2">
	<advance width="242"/>
	<unicode hex="27E8"/>
	<outline>
		<contour>
			<point x="193" y="-185" type="line"/>
			<point x="242" y="-185" type="line"/>
			<point x="50" y="271" type="line"/>
			<point x="240" y="720" type="line"/>
			<point x="189" y="720" type="line"/>
			<point x="0" y="268" type="line"/>
		</contour>
	</outline>
</glyph>
<glyph name="I.alt" format="2">
	<advance width="282"/>
	<anchor x="141" y="690" name="top"/>
	<anchor x="141" y="0" name="bottom"/>
	<anchor x="110" y="0" name="ogonek"/>
	<outline>
		<contour>
			<point x="110" y="0" type="line"/>
			<point x="172" y="0" type="line"/>
			<point x="172" y="690" type="line"/>
			<point x="110" y="690" type="line"/>
		</contour>
	</outline>
</glyph>
<glyph name="J.alt" format="2">
  <advance width="458"/>
  <anchor x="345.0" y="690.0" name="top"/>
  <outline>
    <contour>
      <point x="32" y="94" type="line"/>
      <point x="66" y="35"/>
      <point x="126" y="-10"/>
      <point x="203" y="-10" type="curve" smooth="yes"/>
      <point x="317" y="-10"/>
      <point x="389" y="71"/>
      <point x="389" y="236" type="curve" smooth="yes"/>
      <point x="389" y="690" type="line"/>
      <point x="300" y="690" type="line"/>
      <point x="300" y="243" type="line" smooth="yes"/>
      <point x="300.0" y="117.47674418604652"/>
      <point x="262.0" y="73.0"/>
      <point x="201" y="73" type="curve" smooth="yes"/>
      <point x="146.0" y="73.0"/>
      <point x="114.0" y="112.02702702702703"/>
      <point x="90" y="149" type="curve"/>
    </contour>
  </outline>
</glyph>
<glyph name=".notdef" format="2">
  <advance width="600"/>
  <outline>
    <contour>
      <point x="127.0" y="-185" type="line"/>
      <point x="183.0" y="-185" type="line"/>
      <point x="183.0" y="690" type="line"/>
      <point x="127.0" y="690" type="line"/>
    </contour>
    <contour>
      <point x="153.0" y="-185" type="line"/>
      <point x="447.0" y="-185" type="line"/>
      <point x="447.0" y="-135" type="line"/>
      <point x="153.0" y="-135" type="line"/>
    </contour>
    <contour>
      <point x="153.0" y="640" type="line"/>
      <point x="447.0" y="640" type="line"/>
      <point x="447.0" y="690" type="line"/>
      <point x="153.0" y="690" type="line"/>
    </contour>
    <contour>
      <point x="417.0" y="-185" type="line"/>
      <point x="473.0" y="-185" type="line"/>
      <point x="473.0" y="690" type="line"/>
      <point x="417.0" y="690" type="line"/>
    </contour>
  </outline>
</glyph>
